<?xml version="1.0" standalone="no"?>
<!DOCTYPE svg PUBLIC "-//W3C//DTD SVG 20010904//EN"
 "http://www.w3.org/TR/2001/REC-SVG-20010904/DTD/svg10.dtd">
<svg version="1.0" xmlns="http://www.w3.org/2000/svg"
 width="500.000000pt" height="500.000000pt" viewBox="0 0 500.000000 500.000000"
 preserveAspectRatio="xMidYMid meet">
<metadata>
Created by potrace 1.11, written by Peter Selinger 2001-2013
</metadata>
<g transform="translate(0.000000,500.000000) scale(0.100000,-0.100000)"
fill="#000000" stroke="none">
<path d="M2250 4785 c-285 -35 -517 -102 -755 -219 -455 -224 -813 -580 -1042
-1038 -29 -58 -53 -109 -53 -112 0 -3 -11 -29 -24 -58 -24 -55 -56 -150 -76
-227 -18 -70 2 -132 50 -154 8 -4 31 -17 50 -28 115 -70 412 -246 450 -267 25
-14 59 -34 75 -44 37 -22 67 -23 105 -3 30 15 42 44 55 130 37 250 177 528
369 731 129 138 266 238 436 318 214 100 357 131 615 131 211 0 331 -21 502
-86 86 -33 266 -126 271 -140 2 -5 8 -9 14 -9 14 0 120 -84 195 -153 147 -137
290 -351 360 -537 26 -68 68 -235 78 -310 8 -55 28 -77 77 -85 37 -6 57 2 143
54 17 10 109 64 205 121 96 57 204 121 240 142 77 45 91 56 108 86 17 31 15
59 -13 155 -97 334 -297 668 -560 934 -302 305 -614 488 -1035 606 -30 9 -68
18 -85 22 -16 3 -41 8 -55 11 -171 37 -517 52 -700 29z"/>
<path d="M1773 3494 c-4 -10 2 -32 13 -54 11 -20 167 -229 346 -466 314 -414
348 -462 348 -482 0 -5 -64 -94 -143 -198 -78 -104 -234 -310 -346 -457 -111
-147 -207 -281 -213 -298 -15 -43 3 -61 45 -46 28 9 355 195 382 217 6 4 35
21 65 38 30 16 195 112 365 212 171 101 319 188 330 194 126 69 523 306 542
324 13 12 22 26 19 31 -4 5 -50 35 -104 67 -53 31 -146 86 -207 122 -60 36
-126 74 -145 84 -19 11 -60 35 -90 53 -62 37 -388 228 -435 255 -16 9 -181
105 -367 214 -185 108 -350 199 -367 202 -24 5 -32 2 -38 -12z"/>
<path d="M910 2354 c-77 -46 -234 -138 -261 -154 -184 -104 -330 -199 -344
-223 -22 -37 -16 -84 24 -204 81 -246 204 -478 363 -685 81 -106 278 -307 385
-392 308 -246 712 -420 1093 -470 129 -18 169 -20 325 -20 255 -1 417 20 645
86 150 43 246 81 399 159 513 263 909 709 1109 1254 53 146 69 223 54 261 -14
34 -29 44 -217 155 -474 278 -443 262 -481 256 -52 -9 -71 -31 -79 -90 -14
-110 -63 -279 -110 -382 -239 -522 -746 -852 -1310 -853 -119 0 -242 12 -320
32 -11 3 -40 10 -65 16 -122 29 -289 107 -426 198 -316 212 -543 561 -609 937
-20 113 -33 134 -91 141 -30 4 -49 -1 -84 -22z"/>
</g>
</svg>
