<?xml version="1.0" standalone="no"?>
<!DOCTYPE svg PUBLIC "-//W3C//DTD SVG 20010904//EN"
 "http://www.w3.org/TR/2001/REC-SVG-20010904/DTD/svg10.dtd">
<svg version="1.0" xmlns="http://www.w3.org/2000/svg"
 width="512.000000pt" height="512.000000pt" viewBox="0 0 512.000000 512.000000"
 preserveAspectRatio="xMidYMid meet">
<metadata>
Created by potrace 1.11, written by Peter Selinger 2001-2013
</metadata>
<g transform="translate(0.000000,512.000000) scale(0.100000,-0.100000)"
fill="#000000" stroke="none">
<path d="M2399 5116 c-2 -2 -40 -6 -84 -10 -44 -4 -89 -9 -100 -11 -11 -2 -38
-6 -60 -9 -136 -17 -479 -110 -509 -137 -6 -5 -16 -9 -24 -9 -7 0 -56 -20
-109 -45 -52 -25 -96 -45 -98 -45 -19 0 -306 -179 -377 -234 -14 -12 -40 -32
-57 -44 -63 -48 -119 -99 -221 -202 -194 -194 -312 -355 -464 -634 -71 -128
-176 -410 -191 -507 -13 -85 2 -101 203 -221 518 -308 521 -309 560 -310 65
-1 95 26 106 97 12 71 18 102 26 141 40 180 158 435 270 584 126 168 290 319
455 420 140 86 346 169 495 199 30 6 66 14 80 16 118 24 397 24 520 0 14 -3
50 -10 80 -15 30 -6 98 -25 150 -42 532 -171 942 -619 1071 -1168 16 -69 14
-56 23 -120 5 -30 13 -63 18 -73 13 -25 65 -46 102 -40 41 6 707 401 732 433
30 39 23 117 -21 245 -64 186 -146 365 -222 487 -13 21 -23 39 -23 41 0 6 -80
125 -129 191 -128 173 -308 358 -481 493 -342 267 -787 454 -1210 509 -25 3
-56 8 -70 10 -28 6 -436 15 -441 10z"/>
<path d="M1768 3682 c-25 -5 -23 -47 4 -91 18 -28 129 -178 176 -236 4 -5 106
-140 227 -300 120 -159 246 -326 280 -370 75 -97 87 -118 78 -142 -6 -16 -145
-202 -629 -839 -133 -176 -157 -214 -152 -247 2 -18 9 -22 37 -19 31 2 60 17
251 129 41 24 82 48 90 52 151 88 1367 800 1450 849 110 66 129 84 112 108 -4
6 -74 51 -157 99 -268 157 -1158 678 -1235 722 -41 24 -82 48 -90 53 -49 29
-147 87 -162 95 -9 6 -29 17 -45 26 -15 9 -61 35 -101 58 -85 49 -110 59 -134
53z"/>
<path d="M819 2412 c-19 -10 -109 -62 -202 -117 -92 -55 -175 -104 -185 -110
-10 -5 -82 -48 -159 -94 -199 -118 -203 -130 -118 -374 231 -662 713 -1195
1345 -1486 164 -76 434 -163 575 -184 17 -3 59 -10 95 -16 118 -19 223 -26
400 -26 212 0 282 7 465 41 44 9 91 17 105 20 81 15 342 100 430 140 440 201
769 467 1056 854 148 200 314 540 375 766 33 126 19 164 -83 223 -25 14 -177
104 -338 200 -245 145 -298 173 -331 173 -70 -1 -95 -26 -104 -108 -23 -187
-117 -440 -230 -619 -165 -260 -412 -478 -687 -604 -102 -47 -156 -66 -287
-100 -249 -66 -558 -60 -818 15 -434 126 -791 422 -995 826 -41 82 -112 270
-121 323 -3 17 -8 41 -11 55 -3 14 -8 36 -11 50 -3 14 -8 42 -10 63 -7 52 -21
76 -53 88 -48 19 -68 19 -103 1z"/>
</g>
</svg>
