<?xml version="1.0" standalone="no"?>
<!DOCTYPE svg PUBLIC "-//W3C//DTD SVG 20010904//EN"
 "http://www.w3.org/TR/2001/REC-SVG-20010904/DTD/svg10.dtd">
<svg version="1.0" xmlns="http://www.w3.org/2000/svg"
 width="512.000000pt" height="512.000000pt" viewBox="0 0 512.000000 512.000000"
 preserveAspectRatio="xMidYMid meet">
<metadata>
Created by potrace 1.11, written by Peter Selinger 2001-2013
</metadata>
<g transform="translate(0.000000,512.000000) scale(0.100000,-0.100000)"
fill="#000000" stroke="none">
<path d="M2533 5051 c-250 -267 -349 -566 -289 -876 23 -118 69 -229 226 -542
170 -337 202 -428 207 -573 2 -103 -9 -178 -36 -228 -21 -39 3 -24 66 42 150
157 265 377 291 556 8 60 8 214 -1 272 -17 110 -81 277 -180 472 -196 389
-223 450 -252 586 -21 97 -13 217 20 310 8 24 14 44 13 45 -2 2 -31 -27 -65
-64z"/>
<path d="M884 4360 c14 -271 113 -505 285 -668 151 -144 297 -212 726 -337
320 -94 446 -151 562 -256 50 -45 86 -93 119 -155 l26 -49 -6 105 c-15 284
-113 520 -287 691 -149 146 -350 235 -824 364 -147 40 -305 107 -395 168 -44
30 -160 145 -160 158 0 4 -12 27 -26 50 l-25 44 5 -115z"/>
<path d="M3725 3638 c-250 -28 -487 -175 -661 -413 -16 -22 -32 -42 -35 -45
-4 -3 -55 -77 -114 -165 -205 -302 -292 -407 -407 -488 -70 -49 -136 -78 -217
-97 l-54 -13 29 -12 c76 -31 202 -49 344 -50 165 0 215 6 318 41 255 85 392
217 677 649 55 83 103 155 107 160 175 228 281 311 452 355 77 20 77 20 -34
49 -130 34 -267 44 -405 29z"/>
<path d="M1870 2000 c0 -225 3 -290 13 -291 16 -1 1174 -1 1209 0 25 1 37 21
171 291 l145 290 -769 0 -769 0 0 -290z"/>
<path d="M2069 1613 c0 -18 0 -1549 1 -1590 0 -21 5 -23 53 -23 l52 0 182 418
c101 229 253 577 339 772 86 195 165 374 175 398 l18 42 -409 0 c-384 0 -410
-1 -411 -17z"/>
</g>
</svg>
