<?xml version="1.0" standalone="no"?>
<!DOCTYPE svg PUBLIC "-//W3C//DTD SVG 20010904//EN"
 "http://www.w3.org/TR/2001/REC-SVG-20010904/DTD/svg10.dtd">
<svg version="1.0" xmlns="http://www.w3.org/2000/svg"
 width="500.000000pt" height="500.000000pt" viewBox="0 0 500.000000 500.000000"
 preserveAspectRatio="xMidYMid meet">
<metadata>
Created by potrace 1.11, written by Peter Selinger 2001-2013
</metadata>
<g transform="translate(0.000000,500.000000) scale(0.100000,-0.100000)"
fill="#000000" stroke="none">
<path d="M2468 4740 c-137 -146 -237 -331 -264 -490 -10 -60 -10 -213 0 -275
21 -128 60 -218 264 -620 73 -143 111 -233 128 -306 14 -58 13 -187 -2 -240
-8 -30 -18 -63 -21 -74 -9 -35 136 122 193 210 30 45 54 86 54 89 0 3 11 29
24 58 41 91 59 184 59 303 1 119 -4 154 -35 254 -36 117 -54 157 -237 515 -45
88 -93 196 -107 240 -35 109 -40 237 -14 321 11 33 19 64 17 68 -1 4 -28 -19
-59 -53z"/>
<path d="M967 4158 c13 -262 102 -478 258 -628 73 -71 73 -70 121 -101 106
-69 215 -112 486 -189 294 -84 439 -141 528 -208 58 -43 125 -120 154 -175
l28 -52 -6 95 c-6 101 -7 111 -31 205 -18 68 -19 72 -30 100 -69 169 -149 283
-265 377 -109 88 -236 140 -587 237 -214 60 -285 85 -394 142 -92 48 -169 118
-223 202 -20 31 -38 57 -39 57 -2 0 -2 -28 0 -62z"/>
<path d="M3627 3484 c-1 -1 -27 -4 -57 -7 -30 -3 -66 -8 -80 -11 -14 -3 -38
-8 -55 -12 -58 -11 -200 -77 -260 -120 -114 -81 -186 -159 -311 -341 -104
-151 -206 -295 -229 -323 -129 -157 -250 -241 -395 -274 l-55 -13 40 -12 c147
-45 337 -62 465 -42 296 45 480 192 750 596 229 343 344 448 527 486 l62 13
-37 11 c-92 29 -203 46 -310 49 -29 1 -54 1 -55 0z"/>
<path d="M1870 1990 l0 -260 569 0 c443 0 571 3 578 13 6 6 41 71 78 142 37
72 94 180 126 241 33 61 59 114 59 118 0 3 -317 6 -705 6 l-705 0 0 -260z"/>
<path d="M2060 1652 c-7 -3 -10 -246 -10 -733 l0 -729 48 0 49 0 198 447 c109
247 211 476 227 510 15 34 28 63 28 66 0 3 18 45 41 94 45 96 50 108 104 233
21 47 42 91 47 98 7 8 6 12 -3 13 -34 3 -720 4 -729 1z"/>
</g>
</svg>
