<svg class="svg-logo" viewBox="0 0 171.4 80">
  <path d="M171.4 24.1c-6.9.8-8.8 7.9-14 14.1-6.9 8.2-17.1 4-17.1 4 6.9-.9 8.9-8 14.2-14.2 7-8.1 16.9-3.9 16.9-3.9zm-24.9 12.1s8.6-6.8 4.9-16.9c-2.8-7.6-8.2-13-5.3-19.3 0 0-8.5 6.9-5 16.9 2.7 7.6 8.3 13 5.4 19.3zm-.5-1.5s.8-11.1-8.7-15.3c-7.4-3.3-15.2-3-17.9-9.4 0 0-1.1 11 9 15.3 7.5 3.2 15 3 17.6 9.4zm-11.3 18.6H154l4.5-9.1h-23.8v9.1zm3.1 26.7h1.6l11.1-25.5h-12.7V80z" class="svg-logo__avatar"/>
  <path d="M27.1 36.5l-.7 1.4a2 2 0 0 1-.4.6l-.5.4c-.3.2-.6.1-.9-.1l-.2-.1-.6-.1a3 3 0 0 0-1.3.5 17 17 0 0 0-3 2.3c-.4.4-.9.8-1.2 1.3a3 3 0 0 0-.5.7l-.3.5c-.1.3-.1.6.1.8l.3.2 1 .4.9.5c.5.3.9.8 1 1.4L21 49l-.2 2c-.2 1.1-.4 2.3-.8 3.4-.4 1.3-.9 2.5-1.5 3.7a14.6 14.6 0 0 1-4.8 5.6l-1.7 1-1.8.7-1.4.3a3 3 0 0 1-1.5.3l-2-.2-1.8-.6L2 64a9 9 0 0 1-1.7-3.1l-.2-1V58l.1-1.5v-.1l.2-1.7.3-1 .1-.7a22 22 0 0 1 1.3-3.6l.9-2 .5-1.1.4-.9.8-1.4.6-1.2.6-1.2.6-1 .1-.2h.2c.4-.1.8.2.9.6v.9l-.3.8-.2.3-1.6 3.5-1.3 3.2-.4 1-.1.3-.8 3.1c-.1 1.9.2 2.6.9 3.5.6.5 1.2.9 1.9 1.2h.3l.6.2 1.6.2c1.2.1 2.3 0 3.4-.4a11.3 11.3 0 0 0 5.3-3.6c.6-.6 1-1.3 1.2-2.1l.1-.6v-.2l-.4-.2-.4-.1h-.4c-.6-.2-1.3-.4-1.9-.8a3 3 0 0 1-1.2-1.3c-.2-.6-.3-1.3-.2-2l.1-.9.2-.7.7-1.9.8-1.5.1-.3 1.1-1.7 1.2-1.6.4-.5.9-1 1.4-1.4 1.5-1.3 1.2-.9.4-.3 1.8-1.1 1-.4c.4-.1.8-.1 1.1.1.3.3.5.7.3 1.1l-.2 1c-.2.8-.4 1.4-.7 1.9zm5.6-.4h-.1c-.2 0-.5 0-.9.6v.1l-2.3 5v.1c-.1.4.3.7.8 1.2l.7.6.8.9.2.2c.7.9.8 1.6.3 2.1L31 48l-.8.7-3.7 3.2c-.2.3-.2.6 0 .9.2.2.4.3.7.3h.1c1.9-.5 3.6-1.2 5.3-2.2.4-.2.7-.5 1-.9l.1-.1.8-1.2.2-.4.6-1.2c.4-1 .8-2 1-3 .7-3.3-.2-4.9-.8-5.6-.9-.8-1.8-1.7-2.8-2.4zm60.2 0h-.1c-.2 0-.5 0-.9.6v.1l-2.3 5v.1c-.1.4.3.7.8 1.2l.7.6.8.9.2.2c.7.9.8 1.6.3 2.1L91.2 48l-.8.7-3.7 3.2c-.2.3-.2.6 0 .9.2.2.4.3.7.3h.1c1.8-.5 3.6-1.2 5.2-2.2.4-.2.7-.5 1-.9l.1-.1.8-1.2.2-.3.6-1.2c.4-1 .8-2 1-3 .6-3.3-.2-4.9-.8-5.6a16 16 0 0 0-2.7-2.5zm-48.4 2.2l.3-2.3.2-1 .1-.5c.1-.9.3-1.8.3-2.8 0-.3.1-.9-.4-1.1s-1 .4-1.7 2v.1l-1.5 3.5-.2.4c-.2.4-.4.9-.4 1.3l-.1 1.1v.4l-.1 1.3c-.2 1.7-.5 3.5-.9 5.2L38.9 50l-.2.6-.1.2v.1c0 .3.2.6.5.7h.3l.4-.1c1.9-2.3 3.3-5 4.1-7.9.3-1.7.5-3.5.6-5.3zm19.9-7.8c-.6-.2-1 .4-1.7 2v.1l-1.5 3.5-.2.4c-.2.4-.4.9-.4 1.3l-.1 1.2-.2 1.7a47.1 47.1 0 0 1-2.1 9.3l-.2.6-.1.2v.1c0 .3.2.6.5.7.2.1.5.1.7-.1 1.9-2.3 3.3-5 4.1-7.9.5-1.8.8-3.6.9-5.5l.3-2.3.2-.9.1-.5c.2-.9.3-1.9.3-2.8-.2-.2-.1-.9-.6-1.1zm40.4 7.8l.3-2.3.2-.9.1-.5c.1-.9.3-1.8.3-2.8 0-.3.1-.9-.4-1.1s-1 .4-1.7 2v.1l-1.5 3.5-.2.4c-.2.4-.4.9-.4 1.3l-.1 1.2-.2 1.7c-.2 1.7-.5 3.5-.9 5.2l-1.2 4.1-.2.8v.1-.1c0 .3.2.6.5.7h.3l.4-.1a21.1 21.1 0 0 0 4.7-13.3zM50 26h.1c.3 0 .6-.1.8-.3a6.1 6.1 0 0 0 2.1-3.4 3 3 0 0 0-.6-2.9l-2.3-1.9-.3.4-.4-.2-.3.5-.1.1c-1 1.4-1.8 2.9-2.4 4.5v.2c.2.8 2.9 3 3.4 3zm25.4-6.1c1.3-1.1 2.3-2.4 3-3.9v-.1c.1-.3-.1-.7-.3-.9-.5-.3-1 .1-1.1.2l-.3.2-.3.2a24 24 0 0 1-4.3 2c-1.6.4-3.4.5-5 .1l-.6-.1-.6-.1c-.9-.3-1.9-.3-2.8-.2-1 .2-1.9.5-2.8.9-1.2.6-2.2 1.4-3.2 2.4-.4.4-.9.8-1.2 1.3a9 9 0 0 0-1.1 1.6c-.5.9-.4 1-.3 1.2l.2.2h.6c.2 0 .4 0 .5-.2 1.7-1.5 4.1-2 6.3-1.5l.5.1.8.2c.9.1 1.9.2 2.8.1a18.2 18.2 0 0 0 9.2-3.7zm11.7 39.6l-.3-.2a.8.8 0 0 0-.5-.2l-.5.2-1.3 2.2-.5 1.1c0-.4-.1-.7-.3-1-.6-.7-1.2-1.3-1.9-1.8l-.2-.2a.8.8 0 0 0-.5-.2l-.5.2a26.9 26.9 0 0 0-2.6 4.5v.1c-.1.2 0 .5.1.7l2.5 2.1.1.1h.4c.2 0 .4 0 .5-.2a8 8 0 0 0 1.3-1.3l.6-1 2.5 2.1.1.1h.4c.2 0 .4 0 .5-.2a8 8 0 0 0 1.3-1.3c.3-.5.6-.9.8-1.5.2-.5.3-1 .2-1.5a2 2 0 0 0-.3-1.1l-1.9-1.7zm27.2-22.6c-.2-.1-.6 0-.9.4-.4.7-.6 1.5-.8 2.3l-.3.8-.5 1.5-.3.8c-.3.9-.7 1.8-1.2 2.6a9 9 0 0 1-1.8 2.1l-3.2 2.6c-1.4 1-2.1 1.7-2.2 2.1-.1.4.1.8.5 1h.3a79 79 0 0 0 1.9-.3l1.3-.4a9 9 0 0 0 1.7-.8c.9-.4 1.7-1 2.3-1.8 1-1.4 1.7-2.9 2.2-4.5.7-2.5 1.2-5 1.5-7.5.1-.4-.1-.8-.5-.9zm-59.7-.1c-.2-.1-.6 0-.9.4l-.8 2.3-.3.8-.5 1.5-.3.8c-.3.9-.7 1.8-1.2 2.6a27 27 0 0 1-5 4.8c-1.4 1-2.1 1.7-2.2 2.1-.1.4.1.8.5 1h.4l1.9-.4 1.3-.4 1.7-.8c.9-.4 1.7-1 2.3-1.8 1-1.4 1.7-2.9 2.2-4.5.7-2.5 1.2-5 1.5-7.5 0-.4-.2-.7-.6-.9zM81 49.7l1.5-2.2.6-1 .7-1.7.1-.5.1-.3.5-.7 1-1.4.5-.7.5-.7.6-1.2.2-.3c.4-1.1.7-2.2.8-3.3v-5.2c-.1-.3-.3-.5-.5-.5s-.5 0-.8.5l-1 2.4-1 2.4c0 .1-.2.4-.2 2.2l.1 1.3-.1.2-.6.6a2 2 0 0 0-.4-.6c-.3-.5-.7-.9-1.2-1.3a3 3 0 0 0-2.6 0c-.6.4-1.2.9-1.6 1.6l-.1.1-1 2-.6 1.6c-.2.6-.1 1.3.3 1.9.5.5 1.2.9 2 1.1h1.5l-.1.2a8 8 0 0 1-1.3 1.3l-.3.2-.1.1c-.8.7-1.7 1.3-2.5 1.8l-.9.4-.2.1-3.2 1.9-.1.1c-.2.2-.3.4-.2.7.1.2.3.4.5.4h.1l3-.6 2.9-.8c.7-.2 1.4-.5 2-.9l1.1-1.2z" class="svg-logo__type"/>
</svg>
