<svg class="svg-logo" viewBox="0 0 180.2 80">
  <path d="M52 24.1c-6.9.8-8.8 7.9-14 14.1-6.9 8.2-17.1 4-17.1 4 6.9-.9 8.9-8 14.2-14.2 7-8.1 16.9-3.9 16.9-3.9zM27.1 36.2s8.6-6.8 4.9-16.9c-2.8-7.6-8.2-13-5.3-19.3 0 0-8.5 6.9-5 16.9 2.7 7.6 8.3 13 5.4 19.3zm-.5-1.5s.8-11.1-8.7-15.3C10.5 16.1 2.7 16.4 0 10c0 0-1.1 11 9 15.3 7.5 3.2 14.9 3 17.6 9.4zM15.3 53.3h19.3l4.5-9.1H15.3v9.1zM18.4 80H20l11.1-25.5H18.4V80z" class="svg-logo__avatar"/>
  <path d="M62 53.3c-2.6.2-5.1-.8-7-2.6a9.6 9.6 0 0 1-2.8-7.1 10 10 0 0 1 2.8-7.1c2-1.9 4.7-2.9 7.5-2.7 1.9-.1 3.7.4 5.4 1.4 1.3.9 2.3 2 3.1 3.3l.1.1-4.2 2.2-.1-.1c-.4-.8-.9-1.5-1.6-2-.8-.6-1.8-.9-2.8-.9a5 5 0 0 0-3.8 1.5 6.2 6.2 0 0 0-1.6 4.3c-.1 1.5.5 3 1.5 4.1 1 1 2.3 1.5 3.7 1.4 1.1.1 2.3-.3 3.2-1 .6-.5 1.1-1.2 1.3-2h-4.5v-3.7h9.6v.3c0 2.9-1.1 5.7-3 7.9a8.5 8.5 0 0 1-6.8 2.7zm17.6 0c-1.8.1-3.6-.6-4.8-1.9a7 7 0 0 1-1.9-4.7c0-1.9.7-3.7 2-5.1a6.2 6.2 0 0 1 4.5-1.7 5 5 0 0 1 3.8 1.5v-1.1h4.3v12.6h-4.3v-1.2a4.2 4.2 0 0 1-3.6 1.6zm.8-9.7a3 3 0 0 0-2.1.8 3 3 0 0 0-.9 2.2c0 .8.3 1.5.8 2.1a3.2 3.2 0 0 0 4.3.1 3.1 3.1 0 0 0 .1-4.4c-.7-.5-1.4-.8-2.2-.8zm23 9.3H99v-6.5c.1-.8-.1-1.7-.6-2.4-.4-.4-.9-.5-1.5-.5s-1.2.2-1.6.6c-.6.6-.8 1.4-.8 2.3v6.5h-4.3V40.3h4.3v1.2c1-1 2.3-1.6 3.8-1.5a5 5 0 0 1 3.7 1.3 5 5 0 0 1 1.3 3.7l.1 7.9zm8.5.4c-1.7.1-3.3-.6-4.4-1.7a7 7 0 0 1-2-5c-.1-1.9.7-3.7 2-5a6.6 6.6 0 0 1 4.5-1.7 5 5 0 0 1 3.8 1.6v-9h4.3V53h-4.3v-1.2c-1 1-2.5 1.6-3.9 1.5zm1-9.7c-.8 0-1.5.3-2.1.8-1.2 1.1-1.4 3-.3 4.2.6.6 1.4 1 2.3 1 .8 0 1.6-.3 2.2-.9.6-.5.9-1.3.9-2.1s-.3-1.6-.9-2.2a3 3 0 0 0-2.1-.8zm23.2 9.3h-4.3v-6.5c.1-.8-.1-1.7-.6-2.4-.4-.4-.9-.5-1.5-.5a2 2 0 0 0-1.5.6c-.6.7-.9 1.6-.8 2.5v6.3H123V32.5h4.3v9.1l1.3-1c.8-.4 1.6-.6 2.5-.5 1.3-.1 2.7.4 3.7 1.3a5 5 0 0 1 1.3 3.7v7.8zm8.7.4c-1.8.1-3.6-.6-4.8-1.9a7 7 0 0 1-1.9-4.7c0-1.9.7-3.7 2-5.1a6.2 6.2 0 0 1 4.5-1.7 5 5 0 0 1 3.8 1.5v-1.1h4.3v12.6h-4.3v-1.2a4 4 0 0 1-3.6 1.6zm.8-9.7a3 3 0 0 0-2.1.8 3 3 0 0 0-.9 2.2c0 .8.3 1.5.8 2.1a3.2 3.2 0 0 0 4.3.1 3.1 3.1 0 0 0 .1-4.4c-.6-.5-1.4-.8-2.2-.8zm26.6 9.7c-1.8.1-3.6-.6-4.8-1.9a7 7 0 0 1-1.9-4.7c0-1.9.7-3.7 2-5.1a5.8 5.8 0 0 1 4.5-1.7 5 5 0 0 1 3.8 1.5v-1.1h4.3v12.6h-4.3v-1.2a4.1 4.1 0 0 1-3.6 1.6zm.8-9.7a3 3 0 0 0-2.1.8c-.6.6-.9 1.4-.8 2.1 0 .8.3 1.5.8 2.1a3.2 3.2 0 0 0 4.3.1 3.1 3.1 0 0 0 .1-4.4c-.7-.4-1.5-.7-2.3-.7zm-13 9.3h-4.5V40.2h4.5v1.4c.3-.5.8-.9 1.3-1.2.7-.4 1.5-.6 2.3-.6l1.3.2v4.2s-.4-.5-2.1-.6c-.7 0-1.4.2-1.9.8a4 4 0 0 0-.9 3.2v5.3z" class="svg-logo__type"/>
</svg>
