<svg class="svg-logo" viewBox="0 0 222.3 80">
  <path d="M52 24.1c-6.9.8-8.8 7.9-14 14.1-6.9 8.2-17.1 4-17.1 4 6.9-.9 8.9-8 14.2-14.2 7-8.1 16.9-3.9 16.9-3.9zM27.1 36.2s8.6-6.8 4.9-16.9c-2.8-7.6-8.2-13-5.3-19.3 0 0-8.5 6.9-5 16.9 2.7 7.6 8.3 13 5.4 19.3zm-.5-1.5s.8-11.1-8.7-15.3C10.5 16.1 2.7 16.4 0 10c0 0-1.1 11 9 15.3 7.5 3.2 14.9 3 17.6 9.4zM15.3 53.3h19.3l4.5-9.1H15.3v9.1zM18.4 80H20l11.1-25.5H18.4V80z" class="svg-logo__avatar"/>
  <path d="M71.6 44h-5.7v-.1L61.1 37v7h-4.6V25.2h6.8c1.8-.1 3.5.5 4.9 1.6a5.9 5.9 0 0 1 1.7 4.2c.1 1.4-.5 2.9-1.5 3.9-.7.7-1.6 1.1-2.5 1.4l5.7 7.7zM61.1 33.6h.8c.9.1 1.8-.2 2.5-.8.4-.5.7-1.1.7-1.7 0-.7-.3-1.3-.8-1.8-.7-.4-1.5-.6-2.3-.6h-.9v4.9zm17 10.8c-1.8.1-3.6-.6-4.8-1.9a7 7 0 0 1-1.9-4.7c0-1.9.7-3.7 2-5.1a6.2 6.2 0 0 1 4.5-1.7c1.4-.1 2.8.5 3.8 1.6v-1.1H86V44h-4.3v-1.3a4.5 4.5 0 0 1-3.6 1.7zm.8-9.8a3 3 0 0 0-2.1.8c-.6.6-.9 1.3-.9 2.1s.3 1.5.8 2.1a3.2 3.2 0 0 0 4.3.1c.6-.6 1-1.4 1-2.2 0-.8-.3-1.6-.9-2.2-.6-.4-1.4-.7-2.2-.7zm15.5 9.8c-1.6.1-3.2-.6-4.4-1.7a7.3 7.3 0 0 1-2-5.1c-.1-1.9.7-3.7 2-5a6.6 6.6 0 0 1 4.5-1.7c1.4-.1 2.8.5 3.8 1.6v-9h4.3V44h-4.4v-1.3a5 5 0 0 1-3.8 1.7zm1-9.8c-.8 0-1.5.3-2.1.8-1.2 1.1-1.4 3-.3 4.2.6.6 1.4 1 2.3 1 .8 0 1.6-.3 2.2-.9.6-.5.9-1.3.9-2.1s-.3-1.6-.9-2.2a3 3 0 0 0-2.1-.8zM110 44h-4.3V31.3h4.3V44zm-2.2-15.3a2.3 2.3 0 0 1-2.4-2.5c0-1.4 1.1-2.5 2.5-2.4a2.5 2.5 0 0 1-.1 4.9zm11.9 15.7a8 8 0 0 1-5.7-2 6.6 6.6 0 0 1-.1-9.3l.1-.1c3.3-2.7 8-2.7 11.3 0a6.6 6.6 0 0 1 0 9.4 8.5 8.5 0 0 1-5.6 2zm0-9.8c-.8 0-1.6.3-2.2.8a3.3 3.3 0 0 0 0 4.5c.6.6 1.4.9 2.2.8.8 0 1.6-.3 2.2-.8a3.3 3.3 0 0 0 0-4.5c-.6-.5-1.4-.8-2.2-.8zm26.8 9.4h-10.9V25.2h10.9v3.9h-6.3v3.3h6v3.9h-6v3.8h6.3V44zm10.5 0h-2.7v-.1l-6.5-12.5h4.8v.1l3.1 6.4 3.1-6.4h4.8l-.1.2L157 44zm25.5.4a8 8 0 0 1-5.7-2 6.6 6.6 0 0 1 0-9.4c3.3-2.7 8-2.7 11.3 0a6.6 6.6 0 0 1 0 9.4 8 8 0 0 1-5.6 2zm0-9.8c-.8 0-1.6.3-2.2.8a3.3 3.3 0 0 0 0 4.5c.6.6 1.4.9 2.2.8.8 0 1.6-.3 2.2-.8a3.3 3.3 0 0 0 0-4.5c-.6-.5-1.4-.9-2.2-.8zm13.7 15.7h-4.3v-19h4.3v1.2a4.9 4.9 0 0 1 3.8-1.7c1.7 0 3.3.6 4.6 1.8a7.2 7.2 0 0 1-.1 10 5.5 5.5 0 0 1-4.4 1.7c-1.5.1-2.9-.5-3.9-1.6v7.6zm2.8-15.7c-.8 0-1.6.3-2.2.9-.6.6-.9 1.4-.9 2.2 0 .8.3 1.5.9 2.1.6.6 1.4.9 2.2.9.8 0 1.5-.3 2.1-.8.6-.6 1-1.4 1-2.3 0-.8-.3-1.6-.9-2.1-.6-.6-1.4-.9-2.2-.9zm15.4 9.8c-1.8.1-3.6-.6-4.8-1.9a7 7 0 0 1-1.9-4.7c0-1.9.7-3.7 2-5.1a6.2 6.2 0 0 1 4.5-1.7c1.4-.1 2.8.5 3.8 1.6v-1.1h4.4V44H218v-1.3a4.6 4.6 0 0 1-3.6 1.7zm.8-9.8a3 3 0 0 0-2.1.8c-.6.6-.9 1.3-.9 2.1s.3 1.5.8 2.1a3.2 3.2 0 0 0 4.3.1c.6-.6 1-1.4 1-2.2 0-.8-.3-1.6-.9-2.2-.6-.4-1.4-.7-2.2-.7zM86 73.9H75.5V55.2h4.6V70H86v3.9zm6.1 0h-4.3V61.3h4.3v12.6zM90 58.6a2.5 2.5 0 0 1-2.4-2.5c0-1.4 1.2-2.4 2.5-2.4s2.4 1.1 2.4 2.5c0 1.3-1.1 2.4-2.5 2.4zm9.4 15.3h-4.3V61.3h4.3v1.6c.4-.5.8-1 1.4-1.3.7-.4 1.5-.6 2.2-.5l1.4.2h.1l-.2 4.1-.2-.1c-.5-.3-1.2-.4-1.8-.4-.7 0-1.4.3-1.9.8-.7.9-1.1 2.1-1 3.2v5zm13.4.4c-1.9.1-3.7-.5-5.1-1.8-1.3-1.3-2-3-1.9-4.9a7 7 0 0 1 2-5 7.7 7.7 0 0 1 10 .1 6.8 6.8 0 0 1 1.8 5.1v.6h-9.4c0 .7.3 1.3.7 1.9.5.5 1.3.8 2 .7.5 0 1.1-.1 1.6-.3.4-.2.7-.6.8-1v-.1h4.2l-.2.6a5.7 5.7 0 0 1-2.5 3.2c-1.2.6-2.6 1-4 .9zm-2.5-8.5h5.2c-.1-.5-.4-.9-.7-1.2-.5-.4-1.2-.7-1.8-.7-1.3-.1-2.4.7-2.7 1.9zm5.4-6.3a2.3 2.3 0 1 1 .1-4.7c1.3 0 2.3 1.1 2.3 2.3-.1 1.4-1.1 2.4-2.4 2.4zm-6.2 0a2.3 2.3 0 1 1 .1-4.7c1.3 0 2.3 1.1 2.3 2.3 0 1.4-1.1 2.4-2.4 2.4zm-47.1 15a7 7 0 0 1-5.2-1.8 7 7 0 0 1-2-4.9 7 7 0 0 1 2-5 6.6 6.6 0 0 1 5-1.8c1.9-.1 3.8.6 5.2 1.9a7 7 0 0 1 1.8 5.2v.6h-9.4c0 .6.3 1.3.7 1.8.5.5 1.2.8 1.9.7.5 0 1.1-.1 1.5-.3l.8-.9.1-.1h4.3l-.1.4a5.7 5.7 0 0 1-2.5 3.2 7.4 7.4 0 0 1-4.1 1zM60 65.8h5c-.1-.4-.4-.8-.7-1.1-.5-.4-1.1-.7-1.8-.6-.7 0-1.4.2-1.9.8-.3.2-.5.6-.6.9zM169.1 44h-4.5V31.2h4.5v1.4c.3-.5.8-.9 1.3-1.2.7-.4 1.5-.6 2.3-.5l1.3.2v4.2s-.4-.5-2.1-.6c-.7 0-1.4.2-1.9.8-.7.9-1 2-.9 3.2V44z" class="svg-logo__type"/>
</svg>
