<svg class="svg-logo" viewBox="0 0 212.9 80">
  <path d="M52 24.1c-6.9.8-8.8 7.9-14 14.1-6.9 8.2-17.1 4-17.1 4 6.9-.9 8.9-8 14.2-14.2 7-8.1 16.9-3.9 16.9-3.9zM27.1 36.2s8.6-6.8 4.9-16.9c-2.8-7.6-8.2-13-5.3-19.3 0 0-8.5 6.9-5 16.9 2.7 7.6 8.3 13 5.4 19.3zm-.5-1.5s.8-11.1-8.7-15.3C10.5 16.1 2.7 16.4 0 10c0 0-1.1 11 9 15.3 7.5 3.2 14.9 3 17.6 9.4zM15.3 53.3h19.3l4.5-9.1H15.3v9.1zM18.4 80H20l11.1-25.5H18.4V80z" class="svg-logo__avatar"/>
  <path d="M72 45l-.4-.1c-.7-.2-1.4-.4-2.1-.8l-1.3-.8c-.6.4-1.3.7-1.9.9-1.8.5-3.7.5-5.5-.1-.9-.3-1.7-.8-2.4-1.4a7 7 0 0 1-1.6-2.2c-.4-.9-.6-2-.6-3V25.6h4.4v12l.2 1.4c.1.4.4.7.6.9.3.3.6.5 1 .6.7.2 1.4.3 2.1.1h-.1l-1.1-.4-.5-.1 1.2-3.5.4.1c.6.1 1.1.3 1.7.6l.7.4v-12h4.4v11.9l-.2 1.7-.3 1.1.9.5 1.4.5.5.1L72 45zm17 4.2h-7V44l-.7.3c-1.3.4-2.7.3-3.9-.1-.7-.3-1.4-.7-1.9-1.2-.6-.6-1-1.4-1.3-2.2-.3-1-.5-2.1-.5-3.2 0-1.2.2-2.3.6-3.4.4-.9.9-1.7 1.6-2.3a7.6 7.6 0 0 1 5-1.7H82l1.3.1 1.3.3 1.3.5.2.1v14.2H89v3.8zm-8.2-15.4c-.8-.1-1.6.2-2.2.9-.6.8-.8 1.8-.8 2.9 0 .6 0 1.1.2 1.7l.5 1 .7.5 1 .2.7-.1.6-.2.4-.2.1-.1V34l-.4-.1-.8-.1zm19.5 10.8c-.7 0-1.4-.1-2-.4l-1.2-.7c-.4.3-.9.6-1.4.7-.7.3-1.4.4-2.2.4-.7 0-1.5-.1-2.2-.3-.6-.2-1.1-.6-1.6-1a5 5 0 0 1-.9-1.6c-.2-.6-.3-1.3-.3-2v-9h4.2v8.8l.1.8.2.5.3.3.6.1a2 2 0 0 0 1.1-.3l.6-.4v-9.9h4.1v9.5l.2.5.3.3c.2.1.5.2.8.1l.5-.1.5-.2.4-.2.2-.2v-9.9h4.2v13.8h-4v-.4l-.7.3a3 3 0 0 1-1.8.5zm13.5 0l-1.7-.2c-.6-.2-1.1-.5-1.5-.9-.5-.4-.8-1-1.1-1.6-.3-.8-.4-1.6-.4-2.4v-9h4.2V40l.2.5.3.3c.2.1.5.2.8.1l.5-.1.5-.2.4-.2.2-.2v-9.9h4v.4l.7-.3a6 6 0 0 1 3.5-.1 5 5 0 0 1 1.6.9c.5.4.9 1 1.1 1.6.3.8.4 1.6.4 2.4v8.9h-4.2v-9.5l-.2-.5-.3-.3-.8-.1h-.5l-.5.2-.4.2-.2.2v9.9h-4v-.4l-.7.3c-.6.4-1.3.5-1.9.5zm27.3-.3H137v-8.8l-.1-.8-.2-.5-.4-.3-.8-.1a5 5 0 0 0-1.2.2 2 2 0 0 0-.6.4v9.9h-4.2V30.5h4v.4l.9-.4 1.8-.3 2.1.3c.6.2 1.1.6 1.6 1s.8 1 1 1.6c.2.6.3 1.3.3 2l-.1 9.2zm10.9 0h-8.6V30.5h4.1v10.1h4.4l.1 3.7zm5.4 5h-4.1V30.5h3.9v.5l.4-.1 1.2-.3 1.3-.2c1.3-.1 2.5 0 3.8.3.8.2 1.5.5 2.2 1 .7.4 1.2 1 1.6 1.7.4.6.6 1.3.7 2h1.7v3.7h-1.5a6 6 0 0 1-.5 2.3c-.3.7-.7 1.4-1.2 1.9s-1.1.9-1.8 1.1c-1.3.4-2.7.5-4 .1a5 5 0 0 1-1.6-.9c-.5-.4-.8-.9-1.1-1.4-.3-.6-.4-1.3-.4-2s.1-1.4.4-2c.2-.6.6-1.1 1.1-1.5a5 5 0 0 1 1.6-.9c.6-.2 1.3-.3 2-.3h1.2l-.3-.4c-.2-.3-.5-.5-.8-.6a2 2 0 0 0-1.1-.3h-2.4l-1.1.2-.8.3-.2.1-.2 14.5zm5.5-10.3l-.8.2c-.2.2-.3.5-.3.8 0 .3.1.6.3.8.3.3.8.3 1.2.2l.4-.3c.2-.2.3-.5.3-.8l.1-.8-1.2-.1zm7.4 10.5h-.9a5 5 0 0 1-1.2-.2l-.3-.1v-3.6l.5.1.6.1c.4.1.8 0 1.2-.1l.4-.3c.1-.2.3-.4.3-.7l.1-1.2v-13h4.1v13.2c0 .9-.1 1.8-.4 2.6-.2.7-.6 1.3-1.1 1.8a4 4 0 0 1-1.6 1c-.4.3-1 .4-1.7.4zm18.9-5.2h-4.1v-8.8l-.1-.8-.2-.5-.4-.3-.7-.1a5 5 0 0 0-1.2.2 2 2 0 0 0-.6.4v9.9h-4.1V30.5h3.9v.4l.9-.4 1.8-.3 2.1.3c.6.2 1.1.6 1.6 1s.8 1 1 1.6c.2.6.3 1.3.3 2l-.2 9.2zm10.9 0h-8.6V30.5h4.1v10.1h4.4v3.7zm6.2.3a4.4 4.4 0 0 1-4.9-4V29.3h-2.9v-3.7h7v13.7l.1.8.2.5.4.3.8.1a5 5 0 0 0 1.2-.2l.6-.4v-9.9h4.1v13.8H209v-.4l-.9.4-1.8.3zm-135 26.7h-4.4v-12l-.2-1.3c-.1-.4-.4-.7-.6-1a2 2 0 0 0-1-.6c-.8-.3-1.7-.3-2.5 0a2 2 0 0 0-1 .6l-.6.9c-.2.4-.2.9-.2 1.3v12h-4.3V59.3c0-1 .2-2.1.6-3a7 7 0 0 1 1.6-2.2c.7-.6 1.5-1.1 2.4-1.4 1.9-.6 4-.6 5.9 0 .9.3 1.7.8 2.4 1.4a7 7 0 0 1 1.6 2.2c.4.9.6 2 .6 3v2.9h2.2v4.1h-2.2l-.3 5zm15.2.3c-.7 0-1.4-.1-2-.4l-1.2-.7-1.4.8c-1.4.5-3 .5-4.4 0-.6-.2-1.2-.6-1.6-1.1a5 5 0 0 1-.9-1.6c-.2-.6-.3-1.3-.3-2v-9h4.1v8.8l.1.8.2.5.3.3h.6a5 5 0 0 0 1.2-.2l.6-.4v-9.9H86V67l.2.5.3.3.8.1h.5l.5-.2.4-.2.2-.2v-9.9H93v13.8h-4v-.4l-.7.3a4 4 0 0 1-1.8.5zm20.3 4.7h-4.2V62.4l-.1-.8-.2-.5-.4-.3-.7-.1a5 5 0 0 0-1.2.2 2 2 0 0 0-.6.4v9.9h-4.2V57.5h4v.4l.9-.4 1.8-.3 2.1.3c.6.2 1.1.6 1.6 1s.8 1 1 1.6c.2.6.3 1.3.3 2v5.5h2.2v3.7h-2.2l-.1 5zm7.4 0H110V52.6h4.2v5.2l.7-.3a5 5 0 0 1 1.7-.3l2.1.3a4 4 0 0 1 2.6 2.5c.2.6.3 1.3.3 2v9.1h-4.2v-8.7l-.1-.8-.2-.5-.4-.3-.7-.1a5 5 0 0 0-1.2.2 2 2 0 0 0-.6.4v15zm21.2-5h-4.1v-8.8l-.1-.8-.2-.5-.4-.3-.7-.1a5 5 0 0 0-1.2.2 2 2 0 0 0-.6.4v9.9h-4.2V57.5h4v.4l.9-.4 1.8-.3 2.1.3c.6.2 1.1.6 1.6 1 .4.4.8 1 1 1.6.2.6.3 1.3.3 2l-.2 9.2zm13.8 5H145V71l-.7.3-1.8.3a4.4 4.4 0 0 1-4.9-4v-15h4.1v13.7l.1.8.2.5.4.3.8.1a5 5 0 0 0 1.2-.2l.6-.4v-9.9h4.1l.1 18.8zm14.2-4.7c-.7 0-1.4-.1-2-.4l-1.2-.7-1.4.8c-1.4.5-3 .5-4.4 0-.6-.2-1.2-.6-1.6-1.1a5 5 0 0 1-.9-1.6c-.2-.6-.3-1.3-.3-2v-9h4.1v8.8l.1.8.2.5.3.3.6.1a5 5 0 0 0 1.2-.2l.6-.4v-9.9h4.1v9.5l.2.5.4.3.8.1h.5l.5-.2.4-.2.2-.2v-9.9h4.1v13.8H166v-.4l-.7.3c-.7.2-1.3.4-1.9.4zm7.8 4.9h-.9a5 5 0 0 1-1.2-.2l-.3-.1v-3.6l.5.1.6.1c.4.1.8.1 1.2-.1l.4-.3.3-.6.1-1.2V57.5h4.1v13.2c0 .9-.1 1.8-.4 2.6-.2.7-.6 1.3-1.1 1.8a4 4 0 0 1-1.6 1c-.4.3-1.1.4-1.7.4zm19.2-4.9c-.7 0-1.4-.1-2-.4l-1.2-.7-1.4.8c-1.4.5-3 .5-4.4 0-.6-.2-1.2-.6-1.6-1.1a5 5 0 0 1-.9-1.6c-.2-.6-.3-1.3-.3-2v-9h4.1v8.8l.1.8.2.5.3.3.6.1a5 5 0 0 0 1.2-.2l.6-.4v-9.9h4.1v9.5l.2.5.4.3c.4.2.8.2 1.2.1l.5-.2.4-.2.2-.2v-9.9h4.1v13.8H193v-.4l-.7.3c-.7.2-1.3.4-1.9.4zm13.7 0a4.4 4.4 0 0 1-4.9-4V56.2h-2.9v-3.7h7v13.7l.1.8.2.5.4.3.8.1a5 5 0 0 0 1.2-.2l.6-.4v-9.9h4.1v13.8h-4v-.4l-.9.4-1.7.4z" class="svg-logo__type"/>
</svg>
