<svg class="svg-logo" viewBox="0 0 180.2 80">
  <path d="M52 24.1c-6.9.8-8.8 7.9-14 14.1-6.9 8.2-17.1 4-17.1 4 6.9-.9 8.9-8 14.2-14.2 7-8.1 16.9-3.9 16.9-3.9zM27.1 36.2s8.6-6.8 4.9-16.9c-2.8-7.6-8.2-13-5.3-19.3 0 0-8.5 6.9-5 16.9 2.7 7.6 8.3 13 5.4 19.3zm-.5-1.5s.8-11.1-8.7-15.3C10.5 16.1 2.7 16.4 0 10c0 0-1.1 11 9 15.3 7.5 3.2 14.9 3 17.6 9.4zM15.3 53.3h19.3l4.5-9.1H15.3v9.1zM18.4 80H20l11.1-25.5H18.4V80z" class="svg-logo__avatar"/>
  <path d="M61 44.3h-4.6V25.6h6.8a7 7 0 0 1 5 1.6c1.3 1.2 2 2.9 1.9 4.6.1 1.6-.5 3.2-1.7 4.4a6.7 6.7 0 0 1-4.9 1.7H61v6.4zm0-10.2h1.4a3 3 0 0 0 2.2-.7c.4-.5.7-1.1.7-1.7 0-.6-.2-1.2-.7-1.7-.7-.5-1.5-.7-2.3-.7H61v4.8zm16.1 10.6c-1.8.1-3.6-.6-4.8-1.9a7 7 0 0 1-1.9-4.7c0-1.9.7-3.7 2-5.1a6.2 6.2 0 0 1 4.5-1.7c1.4-.1 2.8.5 3.8 1.6v-1.1H85v12.6h-4.3v-1.2c-.9 1-2.2 1.6-3.6 1.5zm.8-9.7a3 3 0 0 0-2.1.8 3 3 0 0 0-.9 2.2c0 .8.3 1.6.8 2.1.6.6 1.4.9 2.3.9 1.7-.1 3-1.5 3-3.2 0-.8-.3-1.5-.9-2.1-.7-.4-1.5-.7-2.2-.7zm25 12.8H99v-3.5h-8.3v3.5h-3.9V41h.1a3 3 0 0 0 1.7-.8c1-.9 1-2.2 1-3.6v-4.9H101V41h1.9v6.8zM92.4 41h4.3v-6h-3.1v2.2c0 .8-.1 1.6-.3 2.3-.2.6-.5 1.1-.9 1.5zm25.9 3.3H114v-6.9l-5.2 6.9h-4V31.7h4.3v6.8l5.2-6.8h4v12.6zm9.3.4c-2.1.1-4.1-.6-5.6-2a6.6 6.6 0 0 1 0-9.4c3.2-2.7 8-2.7 11.2 0a6.6 6.6 0 0 1 0 9.4 7.6 7.6 0 0 1-5.6 2zm0-9.8c-.8 0-1.6.3-2.2.8a3.3 3.3 0 0 0 0 4.5c.6.6 1.4.9 2.2.8a3 3 0 0 0 3-3.2c0-.8-.3-1.5-.9-2.1-.5-.5-1.3-.7-2.1-.8zm-54 36.7h-4.8l-1.4-3.5h-6.9L59 71.6h-4.8l7.7-18.7H66v.1l7.6 18.6zm-11.8-7H66l-2.1-5.7-2.1 5.7zM80.2 72c-1.2 0-2.4-.2-3.5-.6-.8-.3-1.6-.8-2.3-1.3l-.1-.1 1.9-2.9.1.1 1.5 1c.6.2 1.2.4 1.9.4.5 0 1-.1 1.4-.3.3-.2.5-.5.5-.8 0-.3-.2-.6-.5-.7l-1.4-.2H78v-3h1.3l1.5-.2c.3-.1.5-.4.5-.7 0-.1 0-.5-.5-.7-.4-.2-.8-.2-1.2-.2-.6 0-1.1.1-1.6.3l-1.3.8-.2.1-1.7-2.9.1-.1a10 10 0 0 1 5.1-1.5c1.1 0 3.2.2 4.4 1.3.7.6 1 1.5 1 2.4a3 3 0 0 1-.8 2.2l-.8.6c.5.2 1 .4 1.4.8.6.5.9 1.3.9 2.1 0 1-.4 2-1.2 2.7-1 1-2.4 1.4-4.7 1.4zm14 0c-1.8.1-3.6-.6-4.8-1.9a7 7 0 0 1-1.9-4.7c0-1.9.7-3.7 2-5.1a6.3 6.3 0 0 1 4.5-1.8 5 5 0 0 1 3.8 1.5v-1h4.3v12.6h-4.4v-1.2c-.8 1-2.1 1.7-3.5 1.6zm.8-9.8a3 3 0 0 0-2.1.8 3 3 0 0 0-.9 2.2c0 .8.3 1.5.8 2.1a3.2 3.2 0 0 0 4.3.1c1.2-1.2 1.3-3.2.1-4.4-.6-.5-1.4-.8-2.2-.8zm16.3 9.4H107v-9.1h-3.4V59h11.1v3.5h-3.4v9.1zm10.7 6.3h-4.9l4.5-8.1-6.1-10.8h5l3.5 6.5 3.4-6.5h4.9l-.1.2L122 77.9zm18.7-6.3h-4.4v-9.1H133V59h11.1v3.5h-3.4v9.1zm17.6.4c-1.9.1-3.8-.5-5.3-1.8a6.4 6.4 0 0 1-1.8-3.3h-1.3v4.7h-4.4V59h4.4v4.4h1.3c.2-1.1.8-2.1 1.5-2.8a7.1 7.1 0 0 1 5.4-2c2-.1 4 .6 5.5 2 1.3 1.2 2 2.9 2 4.7 0 1.8-.7 3.6-1.9 4.9a7.5 7.5 0 0 1-5.4 1.8zm-.1-9.8c-.8 0-1.5.2-2.1.7a3 3 0 0 0-.9 2.4c0 .8.3 1.6.8 2.2.6.6 1.4.9 2.2.9.8 0 1.5-.2 2.1-.8a3 3 0 0 0 .9-2.4c.1-1.6-1.2-2.9-2.8-3h-.2zm22 9.4h-4.4v-4.9h-4.3v4.8h-4.3V59h4.3v4.3h4.3V59h4.4v12.6z" class="svg-logo__type"/>
</svg>
