<svg class="svg-logo" viewBox="0 0 151.9 80">
  <path d="M52 24.1c-6.9.8-8.8 7.9-14 14.1-6.9 8.2-17.1 4-17.1 4 6.9-.9 8.9-8 14.2-14.2 7-8.1 16.9-3.9 16.9-3.9zM27.1 36.2s8.6-6.8 4.9-16.9c-2.8-7.6-8.2-13-5.3-19.3 0 0-8.5 6.9-5 16.9 2.7 7.6 8.3 13 5.4 19.3zm-.5-1.5s.8-11.1-8.7-15.3C10.5 16.1 2.7 16.4 0 10c0 0-1.1 11 9 15.3 7.5 3.2 14.9 3 17.6 9.4zM15.3 53.3h19.3l4.5-9.1H15.3v9.1zM18.4 80H20l11.1-25.5H18.4V80z" class="svg-logo__avatar"/>
  <path d="M71.4 44.2h-4.8l-1.4-3.5h-6.9l-1.4 3.5H52l7.7-18.7h4.2v.1l7.5 18.6zm-11.7-7H64l-2.1-5.7-2.2 5.7zm26.1 7H72.6l6.6-9H73v-3.6h13.5l-6.5 9h5.8v3.6zm8.2.4c-1.8.1-3.6-.6-4.8-1.9a7 7 0 0 1-1.9-4.7c0-1.9.7-3.7 2-5.1a6.2 6.2 0 0 1 4.5-1.7 5 5 0 0 1 3.8 1.5v-1.1h4.3v12.6h-4.4V43a4 4 0 0 1-3.5 1.6zm.7-9.7a3 3 0 0 0-2.1.8 3 3 0 0 0-.9 2.2c0 .8.3 1.5.8 2.1a3.2 3.2 0 0 0 4.3.1c.6-.6 1-1.4 1-2.2 0-.8-.3-1.6-.9-2.2-.6-.5-1.3-.8-2.2-.8zm15.8 9.7c-1.7.1-3.3-.6-4.5-1.7a7 7 0 0 1-2-5 6.4 6.4 0 0 1 6.1-6.7h.4c1.4-.1 2.8.5 3.8 1.6v-9h4.4v20.4h-4.4V43a4.5 4.5 0 0 1-3.8 1.6zm1-9.7a3 3 0 0 0-2.3 5l.2.2a3 3 0 0 0 2 .8c.8 0 1.6-.3 2.2-.9.6-.5.9-1.3.9-2.1s-.3-1.6-.9-2.2a3 3 0 0 0-2.1-.8zm14.6 9.3h-4.3V23.8h4.3v20.4zm7.2 0H129V31.6h4.3v12.6zm16.4 6.3h-4.3V43a4.8 4.8 0 0 1-3.9 1.6c-1.6.1-3.2-.5-4.4-1.7a7 7 0 0 1-.1-9.9 6.3 6.3 0 0 1 4.5-1.8c1.5-.1 2.9.6 3.9 1.6v-1.3h4.3v19zm-7.1-15.6c-.8 0-1.5.3-2.1.8-.6.6-.9 1.3-.9 2.1s.3 1.7.9 2.2c.6.5 1.3.8 2.1.8s1.6-.3 2.2-.9c.5-.6.9-1.3.9-2.1s-.3-1.6-.9-2.2c-.6-.4-1.4-.7-2.2-.7zM69.2 74.2h-5.7l-4.9-7v7H54V55.4h6.8c1.8-.1 3.5.5 4.9 1.6a5.9 5.9 0 0 1 1.7 4.2c.1 1.4-.5 2.8-1.5 3.9-.7.7-1.6 1.1-2.5 1.4l5.8 7.7zM58.7 63.8h.9c.9.1 1.8-.2 2.5-.8.4-.5.7-1.1.7-1.7 0-.7-.3-1.4-.8-1.8-.7-.4-1.5-.6-2.3-.6h-.9v4.9zm17.1 10.8c-1.8.1-3.6-.6-4.8-1.9a7 7 0 0 1-1.9-4.7c0-1.9.7-3.7 2-5.1a6.2 6.2 0 0 1 4.5-1.7 5 5 0 0 1 3.8 1.5v-1.1h4.3v12.6h-4.4V73a4 4 0 0 1-3.5 1.6zm.8-9.8a3 3 0 0 0-2.1.8c-.6.6-.9 1.3-.9 2.1s.3 1.6.8 2.2c.6.6 1.4.9 2.3.9a3 3 0 0 0 3-3c0-.8-.3-1.6-.9-2.2-.6-.4-1.4-.7-2.2-.8zM92 74.6c-1.7.1-3.3-.6-4.4-1.7a7 7 0 0 1-2-5c-.1-1.9.7-3.7 2-5a6.6 6.6 0 0 1 4.5-1.7 5 5 0 0 1 3.8 1.5v-9h4.3v20.5h-4.3V73a4.8 4.8 0 0 1-3.9 1.6zm1-9.8c-.8 0-1.5.3-2.1.8-.6.6-1 1.4-.9 2.3 0 .8.4 1.6 1 2.2a3 3 0 0 0 2 .8c.8 0 1.6-.3 2.2-.9.6-.5.9-1.3.9-2.1s-.3-1.6-.9-2.2c-.5-.6-1.3-.9-2.2-.9zm14.6 9.4h-4.3V61.5h4.3v12.7zm-2.2-15.3a2.5 2.5 0 0 1-2.4-2.6 2.5 2.5 0 0 1 2.6-2.4c1.3.1 2.4 1.1 2.4 2.5s-1.1 2.5-2.5 2.5h-.1zm11.9 15.7a8 8 0 0 1-5.7-2 6.6 6.6 0 0 1 0-9.4c3.3-2.7 8-2.7 11.3 0a6.6 6.6 0 0 1 0 9.4 8 8 0 0 1-5.6 2zm0-9.8c-.8 0-1.6.3-2.2.8a3.3 3.3 0 0 0 0 4.5c.6.6 1.4.9 2.2.8.8 0 1.6-.3 2.2-.8a3.3 3.3 0 0 0 0-4.5c-.6-.5-1.3-.8-2.2-.8zm14 9.8a8 8 0 0 1-5.3-1.8v-.1l1.9-2.9.1.1c.4.4.9.6 1.4.9.5.3 1.1.4 1.6.4a5 5 0 0 0 1.2-.2c.2-.2.4-.4.4-.7 0-.3-.2-.5-.4-.6l-1.2-.4-1-.3c-.8-.2-1.5-.6-2.1-1.2a3 3 0 0 1-.9-2.3 4 4 0 0 1 1.3-3 5.6 5.6 0 0 1 3.9-1.3c1.5 0 3 .3 4.2 1.1l.1.1-1.8 2.8-.1-.1c-.7-.4-1.4-.6-2.2-.7a2 2 0 0 0-1.1.3l-.2.4c0 .2.1.3.3.4l.7.3.5.1 1.1.3c.8.2 1.5.6 2.1 1.1.7.6 1.1 1.5 1 2.5a5 5 0 0 1-1.3 3.3 5.7 5.7 0 0 1-4.2 1.5zm13.8 0c-2.4 0-4.1-.5-5.3-1.7-1-1-1.6-2.4-1.4-3.8v-7.6h4.4v7c-.1.7.2 1.4.7 1.9.5.4 1 .6 1.6.6.6 0 1.2-.2 1.7-.6.5-.5.7-1.2.6-1.9v-7h4.4v7.3a5 5 0 0 1-1.5 4c-1 1.2-2.7 1.8-5.2 1.8z" class="svg-logo__type"/>
</svg>
