
<svg class="svg-logo" viewBox="0 0 182.8 80">
<g>
	<g>
		<path class="svg-logo__avatar" d="M51.8,24c-6.8,0.8-8.8,7.9-13.9,14c-6.9,8.2-17.1,4-17.1,4c6.9-0.9,8.9-8,14.1-14.1C41.9,19.8,51.8,24,51.8,24
			z M27,36c0,0,8.6-6.8,4.9-16.8C29.1,11.7,23.7,6.3,26.6,0c0,0-8.5,6.9-4.9,16.8C24.3,24.4,29.8,29.7,27,36z M26.5,34.6
			c0,0,0.8-11-8.7-15.2C10.5,16.1,2.7,16.4,0,10C0,10-1,21,9,25.2C16.5,28.4,23.8,28.2,26.5,34.6z M15.2,53.1h19.2l4.5-9.1H15.2
			V53.1z M18.3,79.7h1.6l11-25.3H18.3V79.7z"/>
	</g>
	<g class="svg-logo__type">
		<g>
			<path d="M57,28.3c1.8-1.9,4.5-3,7.1-3c1.6,0,3,0.3,4.4,0.9V32c-1-1.3-2.6-2.1-4.3-2.1c-3,0-5,2.3-5,5.2c0,2.9,2,5.1,5,5.1
				c1.6,0,3.2-0.8,4.2-2v5.8c-1.6,0.5-2.8,0.9-4.3,0.9c-2.6,0-5.1-1-7-2.7c-2.1-1.9-3-4.3-3-7C54.3,32.6,55.2,30.1,57,28.3z"/>
			<path d="M70.9,29.9c0-4.2,3.3-6.3,6.8-6.3c4.1,0,6.1,2.6,6.1,5.5c0,1.6-0.7,3.2-2.1,4.3v0.1c2.3,0.7,3.3,2.4,3.3,4.9
				c0,4-3.6,6.4-7.3,6.4c-4.2,0-6.8-2.3-6.8-6.5V29.9z M76.8,32.2c2,0,2.7-1.2,2.7-2.4c0-1.1-0.6-2.2-2-2.2c-1.2,0-2.1,0.8-2.1,2.4
				v2.3H76.8z M75.4,35.7v2.5c0,1.8,1.3,2.7,2.6,2.7c1.6,0,2.6-1.3,2.6-2.7c0-1.3-0.9-2.6-3.3-2.6H75.4z"/>
			<path d="M93.9,31.3c4.1,0,7.6,2.4,7.6,6.8c0,4.3-3.6,6.7-7.6,6.7c-4.1,0-7.6-2.4-7.6-6.7C86.3,33.7,89.8,31.3,93.9,31.3z
				 M93.9,40.9c1.8,0,2.9-1.2,2.9-2.8c0-1.6-1.1-2.9-2.9-2.9c-1.8,0-2.9,1.3-2.9,2.9C91,39.7,92.1,40.9,93.9,40.9z"/>
			<path d="M102.7,34.6c0-5.2,1.9-7.3,6-8.8c2.2-0.8,5.2-1.4,7.5-2.3v4.4c-2.9,1.7-9.2,1.1-9.2,5.3l0.1,0c1-1,2.3-1.6,4.6-1.6
				c3.2,0,5.8,2.5,5.8,6.3c0,4.5-3.7,7-7.6,7c-4.4,0-7.3-2.7-7.3-6.9V34.6z M110.1,40.9c1.7,0,2.9-1.3,2.9-2.9c0-1.6-1-2.9-2.9-2.9
				c-1.8,0-2.9,1.3-2.9,2.9C107.2,39.7,108.3,40.9,110.1,40.9z"/>
			<path d="M126.5,31.3c4.1,0,7.6,2.4,7.6,6.8c0,4.3-3.6,6.7-7.6,6.7c-4.1,0-7.6-2.4-7.6-6.7C118.8,33.7,122.4,31.3,126.5,31.3z
				 M126.5,40.9c1.8,0,2.9-1.2,2.9-2.8c0-1.6-1.1-2.9-2.9-2.9c-1.8,0-2.9,1.3-2.9,2.9C123.6,39.7,124.6,40.9,126.5,40.9z"/>
			<path d="M150.1,43.8c0,4.9-3.6,7.1-7.6,7.1c-3.4,0-6.5-1.9-6.8-5.1h4.8c0.1,0.9,1.1,1.5,2.3,1.5c1.6,0,2.8-1.1,2.8-2.8v-1.7
				c-0.9,1.1-2,1.8-4,1.8c-3.8,0-6.3-2.7-6.3-6.4c0-3.7,2.6-6.8,6.5-6.8c1.5,0,3,0.5,3.7,1.8h0.1v-1.3h4.5V43.8z M142.8,40.8
				c1.8,0,2.9-1.3,2.9-2.9c0-1.6-1-2.9-2.9-2.9c-1.8,0-2.9,1.3-2.9,2.9C139.9,39.6,141,40.8,142.8,40.8z"/>
			<path d="M152.6,31.7h4.5v4.5h4.5v-4.5h4.5v12.7h-4.5v-4.8h-4.5v4.8h-4.5V31.7z"/>
			<path d="M178.3,43L178.3,43c-0.8,1.3-2.4,1.8-3.9,1.8c-3.8,0-6.4-3.1-6.4-6.8c0-3.6,2.6-6.7,6.4-6.7c1.5,0,3,0.5,3.9,1.7v-1.2
				h4.5v12.7h-4.5V43z M175.6,40.9c1.8,0,2.9-1.2,2.9-2.8c0-1.6-1.1-2.9-2.9-2.9c-1.8,0-2.9,1.3-2.9,2.9
				C172.7,39.7,173.8,40.9,175.6,40.9z"/>
		</g>
		<path d="M56.3,55h10.6v4.1h-5.8v3.1h5.5v4.1h-5.5v3.2h5.8v4.1H56.3V55z"/>
		<path d="M69.2,59.1c0-4.2,3.3-6.3,6.8-6.3c4.1,0,6.1,2.6,6.1,5.5c0,1.6-0.7,3.2-2.1,4.3v0.1c2.3,0.7,3.3,2.4,3.3,4.9
			c0,4-3.6,6.4-7.3,6.4c-4.2,0-6.8-2.3-6.8-6.5V59.1z M75.1,61.4c2,0,2.7-1.2,2.7-2.4c0-1.1-0.6-2.2-2-2.2c-1.2,0-2.1,0.8-2.1,2.4
			v2.3H75.1z M73.7,64.9v2.5c0,1.8,1.3,2.7,2.6,2.7c1.6,0,2.6-1.3,2.6-2.7c0-1.3-0.9-2.6-3.3-2.6H73.7z"/>
		<path d="M89.4,62.4L89.4,62.4c0.9-1.3,2.4-1.9,3.9-1.9c3.8,0,6.4,3.2,6.4,6.8c0,3.7-2.6,6.7-6.4,6.7c-1.5,0-3-0.5-3.9-1.6V80h-4.5
			V60.9h4.5V62.4z M92.1,70.2c1.8,0,2.9-1.2,2.9-2.8c0-1.6-1.1-2.9-2.9-2.9c-1.8,0-2.9,1.3-2.9,2.9C89.2,68.9,90.3,70.2,92.1,70.2z"
			/>
		<path d="M108.6,60.5c4.1,0,7.6,2.4,7.6,6.8c0,4.3-3.6,6.7-7.6,6.7c-4.1,0-7.6-2.4-7.6-6.7C100.9,63,104.5,60.5,108.6,60.5z
			 M108.6,70.2c1.8,0,2.9-1.2,2.9-2.8c0-1.6-1.1-2.9-2.9-2.9c-1.8,0-2.9,1.3-2.9,2.9C105.7,68.9,106.7,70.2,108.6,70.2z"/>
		<path d="M122.4,62.6L122.4,62.6c1.1-1.5,2.3-2.1,4.1-2.1c3.4,0,4.8,2.2,4.8,5.3v7.9h-4.5v-6.2c0-1.2,0.2-3.3-2-3.3
			c-1.8,0-2.3,1.4-2.3,2.9v6.6h-4.5V60.9h4.5V62.6z"/>
		<path d="M143.3,72.2L143.3,72.2c-0.8,1.3-2.4,1.8-3.9,1.8c-3.8,0-6.4-3.1-6.4-6.8c0-3.6,2.6-6.7,6.4-6.7c1.5,0,3,0.5,3.9,1.7v-1.2
			h4.5v12.7h-4.5V72.2z M140.6,70.2c1.8,0,2.9-1.2,2.9-2.8c0-1.6-1.1-2.9-2.9-2.9c-1.8,0-2.9,1.3-2.9,2.9
			C137.7,68.9,138.8,70.2,140.6,70.2z"/>
	</g>
</g>
</svg>
