<svg class="svg-logo" viewBox="0 0 219.9 80">
  <path d="M52 24.1c-6.9.8-8.8 7.9-14 14.1-6.9 8.2-17.1 4-17.1 4 6.9-.9 8.9-8 14.2-14.2 7-8.1 16.9-3.9 16.9-3.9zM27.1 36.2s8.6-6.8 4.9-16.9c-2.8-7.6-8.2-13-5.3-19.3 0 0-8.5 6.9-5 16.9 2.7 7.6 8.3 13 5.4 19.3zm-.5-1.5s.8-11.1-8.7-15.3C10.5 16.1 2.7 16.4 0 10c0 0-1.1 11 9 15.3 7.5 3.2 14.9 3 17.6 9.4zM15.3 53.3h19.3l4.5-9.1H15.3v9.1zM18.4 80H20l11.1-25.5H18.4V80z" class="svg-logo__avatar"/>
  <path d="M70.1 52.9h-5.8L58 45.2v7.7h-4.5V34.8H58V42l6-7.2h5.5L62 43.4l8.1 9.5zm5.5 6.1h-4.2V40.7h4.2v1.2a5 5 0 0 1 3.7-1.6c1.6 0 3.2.6 4.4 1.7a7 7 0 0 1-.1 9.6 5.4 5.4 0 0 1-4.2 1.6c-1.4.1-2.8-.5-3.7-1.5l-.1 7.3zm2.7-15.1c-.8 0-1.5.3-2.1.8-.6.6-.9 1.3-.9 2.1s.3 1.5.8 2a2.9 2.9 0 0 0 4.1.1c.6-.6.9-1.4.9-2.2 0-.8-.3-1.5-.9-2.1-.4-.4-1.1-.7-1.9-.7zm25.3 9h-4.1V40.7h4.1v12.2zm-9.7 0h-6.6V40.7h4.2v4.1H94c1.2-.1 2.5.3 3.4 1.2.7.8 1.1 1.8 1 2.8.1 1.1-.3 2.2-1.1 3-1 .8-2.2 1.2-3.4 1.1zm-2.5-3h1.5c.4 0 .7 0 1.1-.2.2-.2.3-.5.3-.8 0-.3-.1-.6-.3-.8-.3-.2-.6-.3-1-.3h-1.5l-.1 2.1zm30.9 3h-4l-.9-6-2.8 6H113v-.1l-2.8-6-.9 6h-4l2.2-12.2h3.3l3.1 6.5 3.1-6.5h3.3v.1l2 12.2zm4.6.4c-1.4 0-2.6-1.2-2.5-2.6s1.2-2.6 2.6-2.5c1.4 0 2.5 1.2 2.5 2.6 0 1.4-1.1 2.5-2.6 2.5.1.1 0 .1 0 0zm9.1-.4h-4.5v-18h6.5c1.7-.1 3.5.4 4.9 1.5a5.4 5.4 0 0 1 1.8 4.4c.1 1.6-.5 3.1-1.6 4.3a6 6 0 0 1-4.7 1.6H136v6.2zm0-9.9h1.4c.8.1 1.5-.2 2.2-.6.4-.4.7-1.1.6-1.7 0-.6-.2-1.2-.6-1.6-.6-.5-1.4-.7-2.2-.6H136V43zm30.2 10.3c-1.7.1-3.4-.6-4.6-1.8a6.5 6.5 0 0 1-1.8-4.6c0-1.8.7-3.6 1.9-4.9a5.8 5.8 0 0 1 4.3-1.6c1.4-.1 2.7.5 3.7 1.5v-1.1h4.2V53h-4.2v-1.2c-.8 1-2.1 1.6-3.5 1.5zm.8-9.4c-.8 0-1.5.3-2.1.8a3 3 0 0 0-.1 4.1c.6.6 1.4.9 2.2.9.7 0 1.4-.3 1.9-.8a3 3 0 0 0 .1-4.2c-.5-.5-1.2-.8-2-.8zm9.9 9.1l-1.6-.2h-.1v-3.3h.2l.6.1c.4 0 .8-.1 1.1-.4.3-.5.5-1.2.4-1.8v-6.7h11.1v12.2h-4.2v-8.8h-2.9v3.5c.1 1.5-.3 3-1.2 4.2a4 4 0 0 1-3.4 1.2zm27.4-.1h-4.2v-6.6l-5 6.7h-3.9V40.7h4.2v6.6l5-6.6h3.9v12.2zm15.6 0h-4.2v-6.6l-5 6.7h-3.8V40.7h4.2v6.6l5-6.6h3.9l-.1 12.2zm-67.6.4c-1.8.1-3.7-.5-5-1.8a7 7 0 0 1-1.9-4.7 7 7 0 0 1 1.9-4.8 7 7 0 0 1 4.8-1.8c1.9-.1 3.7.5 5 1.8a6.8 6.8 0 0 1 1.8 5v.6h-9.1c0 .6.3 1.2.7 1.7.5.5 1.2.7 1.9.7l1.5-.3c.3-.2.6-.5.8-.9l.1-.1h4.2l-.2.7a5.7 5.7 0 0 1-2.4 3.1c-1.3.6-2.7 1-4.1.8zM150 45h4.8c-.1-.4-.4-.7-.7-1-.5-.4-1.1-.6-1.7-.6-.7 0-1.4.2-1.9.7a4 4 0 0 0-.5.9z" class="svg-logo__type"/>
</svg>
