<svg class="svg-logo" viewBox="0 0 208.8 80">
  <path d="M52 24.1c-6.9.8-8.8 7.9-14 14.1-6.9 8.2-17.1 4-17.1 4 6.9-.9 8.9-8 14.2-14.2 7-8.1 16.9-3.9 16.9-3.9zM27.1 36.2s8.6-6.8 4.9-16.9c-2.8-7.6-8.2-13-5.3-19.3 0 0-8.5 6.9-5 16.9 2.7 7.6 8.3 13 5.4 19.3zm-.5-1.5s.8-11.1-8.7-15.3C10.5 16.1 2.7 16.4 0 10c0 0-1.1 11 9 15.3 7.5 3.2 14.9 3 17.6 9.4zM15.3 53.3h19.3l4.5-9.1H15.3v9.1zM18.4 80H20l11.1-25.5H18.4V80z" class="svg-logo__avatar"/>
  <path d="M68.5 53.2L67.2 52a7.7 7.7 0 0 1-5.1 1.3c-2.5.1-4.9-.8-6.7-2.6a9.5 9.5 0 0 1-.2-13.5l.1-.1a10 10 0 0 1 7.2-2.7c2.6-.1 5.1.8 7.1 2.5a9.4 9.4 0 0 1 2.9 6.9 8.5 8.5 0 0 1-2.5 5.9l3.2 3.5h-4.7zm-6-14.7c-1.4 0-2.8.5-3.9 1.5a5.8 5.8 0 0 0-1.5 3.9c0 1.4.5 2.8 1.5 3.8a5 5 0 0 0 3.8 1.5 4 4 0 0 0 1.9-.4l-3.8-3.7h4.8l1.6 1.6c.6-.9 1-1.9.9-3 0-1.4-.5-2.8-1.5-3.8a5.6 5.6 0 0 0-3.8-1.4zM79 52.9h-4.2V40.7H79v12.2zm6.9 0h-4.2V40.7h4.2v1.5c.3-.5.8-.9 1.3-1.2.6-.4 1.4-.6 2.2-.5l1.3.2h.1v4l-.4-.2c-.5-.3-1.1-.4-1.7-.4-.7 0-1.4.3-1.9.8-.7.9-1 2-.9 3.1v4.9zm10.5 0h-4.2V40.7h4.2v12.2zm22.8 0H115v-6.2c.1-.8-.1-1.6-.5-2.2-.3-.4-.8-.6-1.3-.6s-1.1.2-1.4.7c-.4.7-.6 1.5-.6 2.3V53H107v-6.3c.1-.8-.1-1.6-.6-2.2-.3-.3-.8-.5-1.2-.4-.5 0-.9.1-1.3.5-.5.7-.8 1.5-.7 2.3v6.2H99V40.7h4.2v1.1c.8-1 2-1.5 3.3-1.4a5 5 0 0 1 2.4.6 4 4 0 0 1 1.4 1.5 5 5 0 0 1 4.1-2.1 5 5 0 0 1 3.5 1.1 5 5 0 0 1 1.3 3.7v7.7zm5 .4a2.6 2.6 0 0 1-2.5-2.6c0-1.4 1.2-2.5 2.6-2.5 1.4 0 2.5 1.2 2.5 2.6.1 1.4-1.1 2.5-2.6 2.5.1 0 .1 0 0 0zm22.8-.4h-4.6l-1.4-3.4h-6.7l-1.3 3.4h-4.6l.1-.2 7.3-17.9h4l7.2 18.1zm-11.3-6.8h4.1l-2-5.5-2.1 5.5zM161.3 59h-4.2v-7.2c-1 1-2.3 1.6-3.7 1.5-1.6.1-3.1-.5-4.2-1.6a7 7 0 0 1-.1-9.6 5.4 5.4 0 0 1 4.3-1.7c1.4 0 2.8.5 3.7 1.6v-1.2h4.2V59zm-6.9-15.1a3 3 0 0 0-2 .8c-.6.5-.9 1.3-.9 2.1s.3 1.6.9 2.2a3 3 0 0 0 2 .8c.8 0 1.6-.3 2.1-.9a2.9 2.9 0 0 0-.1-4.1c-.4-.6-1.2-.9-2-.9zm13.6 9h-4.2V40.7h4.2v12.2zm-2.1-13.3a2.3 2.3 0 0 1-2.3-2.4c0-1.3 1.1-2.4 2.4-2.3 1.3 0 2.3 1.1 2.3 2.4.1 1.2-1 2.3-2.4 2.3.1 0 .1 0 0 0zM183.8 59h-4.2v-7.2c-1 1-2.3 1.6-3.7 1.5-1.6.1-3.1-.5-4.2-1.6a7 7 0 0 1-.1-9.6 5.4 5.4 0 0 1 4.3-1.7c1.4 0 2.8.5 3.7 1.6v-1.2h4.2V59zm-6.9-15.1a3 3 0 0 0-2 .8c-.6.5-.9 1.3-.9 2.1s.3 1.6.9 2.2a3 3 0 0 0 2 .8c.8 0 1.6-.3 2.1-.9a2.9 2.9 0 0 0-.1-4.1c-.4-.6-1.2-.9-2-.9zm14.9 9.4c-1.7.1-3.4-.6-4.6-1.9a6.4 6.4 0 0 1-1.8-4.5c0-1.8.6-3.6 1.9-4.9a6.3 6.3 0 0 1 4.3-1.7c1.4-.1 2.7.5 3.7 1.5v-1.1h4.2v12.2h-4.2v-1.2a4.2 4.2 0 0 1-3.5 1.6zm.8-9.4c-.8 0-1.5.3-2.1.8-.6.5-.9 1.3-.9 2.1s.3 1.5.8 2c.6.6 1.4.9 2.2.9a3 3 0 0 0 2-.8 3 3 0 0 0 .9-2.2c0-.8-.3-1.5-.9-2.1-.5-.4-1.3-.7-2-.7zm13.8 9h-4.2v-8.8h-1.4v-3.4h1.4v-3.8h4.2v3.8h2.4v3.4h-2.4v8.8z" class="svg-logo__type"/>
</svg>
