<svg viewBox="0 0 268.4 79.9">
  <path d="M51.8 24.1c-6.8.8-8.8 7.9-13.9 14-6.9 8.2-17.1 4-17.1 4 6.9-.9 8.9-8 14.1-14.1 7.1-8.1 16.9-3.9 16.9-3.9zM27 36.1s8.6-6.8 4.9-16.8C29.1 11.7 23.8 6.4 26.6.1c0 0-8.5 6.9-4.9 16.8 2.7 7.6 8.2 12.9 5.3 19.2zm-.4-1.4s.8-11-8.7-15.2c-7.4-3.3-15.2-3-17.8-9.3 0 0-1.1 11 9 15.2 7.4 3.1 14.8 2.9 17.5 9.3zM15.3 53.2h19.2l4.5-9.1H15.3v9.1zm3.1 26.6H20l11-25.3H18.4v25.3zm53.1-35.7h-5.8l-4.8-6.8v6.8h-4.7V25.3H63c2.6 0 4.1.9 4.9 1.7.6.6 1.7 1.9 1.7 4.3 0 1.6-.5 2.9-1.5 3.9-.7.6-1.5 1.1-2.4 1.4l5.8 7.5zM60.9 33.6h.8c.8 0 1.8-.1 2.4-.7.2-.2.6-.8.6-1.6 0-.7-.3-1.3-.8-1.7-.5-.4-1.3-.5-2.3-.5h-.8v4.5zm17 10.9c-2.1 0-3.6-.6-4.8-1.9-1.3-1.3-1.9-2.9-1.9-4.7 0-2 .7-3.9 2-5.1 1.1-1.1 2.7-1.7 4.5-1.7 1.1 0 2.6.3 3.7 1.4v-1h4.5v12.7h-4.5V43c-.9 1-2.1 1.5-3.5 1.5zm.8-9.7c-.8 0-1.6.3-2.1.8-.4.4-.9 1.1-.9 2.1s.4 1.7.8 2.1c.5.6 1.4.9 2.2.9.7 0 1.5-.3 2-.8.4-.4.9-1.1.9-2.2 0-.8-.3-1.6-.9-2.1-.5-.5-1.3-.8-2-.8zm15.4 9.7c-1.9 0-3.3-.6-4.5-1.7-1.3-1.3-2-3.1-2-5.1 0-2 .7-3.8 2-5 1.2-1.1 2.8-1.7 4.5-1.7 1.5 0 2.8.5 3.7 1.4v-8.8h4.5v20.5h-4.5V43c-.9 1-2.2 1.5-3.7 1.5zm1-9.7c-.8 0-1.5.2-2 .8-.4.4-.9 1.1-.9 2.2 0 .8.3 1.6.9 2.1.5.5 1.3.8 2 .8.8 0 1.6-.3 2.2-.9.3-.3.9-1 .9-2.1 0-.8-.3-1.5-.8-2.1-.7-.6-1.4-.8-2.3-.8zm14.6 9.3h-4.5V31.4h4.5v12.7zm-2.2-15.3c-1.4 0-2.6-1.1-2.6-2.5s1.1-2.5 2.6-2.5c1.4 0 2.6 1.1 2.6 2.5-.1 1.4-1.2 2.5-2.6 2.5zm11.8 15.7c-2.3 0-4.3-.7-5.7-2-1.2-1.2-2-3-2-4.7 0-1.8.7-3.5 2-4.7 1.3-1.3 3.4-2 5.7-2 2.3 0 4.3.7 5.7 2 1.2 1.2 2 3 2 4.7 0 1.8-.7 3.5-2 4.7-1.4 1.2-3.4 2-5.7 2zm0-9.8c-.9 0-1.6.3-2.2.8-.6.6-.9 1.3-.9 2.2 0 .9.3 1.6.9 2.2.6.5 1.3.8 2.2.8.9 0 1.6-.3 2.1-.8.6-.6.9-1.3.9-2.2 0-.9-.3-1.6-.9-2.2-.5-.5-1.2-.8-2.1-.8zm14.4 9.4H129V25.3h10.8v4h-6.1v3.2h5.6v4h-5.6v7.6zm59.8 0h-10.7V25.3h10.7v4h-6.1v3.2h5.8v4h-5.8v3.7h6.1v3.9zm8.7.4c-2.4 0-4.1-.5-5.3-1.7-1.3-1.2-1.5-2.6-1.5-3.8v-7.6h4.5v7c0 .6.1 1.3.6 1.8.4.4.9.5 1.6.5.6 0 1.2-.2 1.6-.5.6-.5.6-1.3.6-1.8v-7h4.5v7.4c0 1.4-.1 2.8-1.5 4.1-1 1-2.8 1.6-5.1 1.6zm27.2 0c-2.3 0-4.3-.7-5.7-2-1.2-1.2-2-3-2-4.7 0-1.8.7-3.5 2-4.7 1.3-1.3 3.4-2 5.7-2 2.3 0 4.3.7 5.7 2 1.2 1.2 2 3 2 4.7 0 1.8-.7 3.5-2 4.7-1.4 1.2-3.4 2-5.7 2zm0-9.8c-.9 0-1.6.3-2.2.8-.6.6-.9 1.3-.9 2.2 0 .9.3 1.6.9 2.2.6.5 1.3.8 2.2.8.9 0 1.6-.3 2.1-.8.6-.6.9-1.3.9-2.2 0-.9-.3-1.6-.9-2.2-.5-.5-1.2-.8-2.1-.8zm13.8 15.7h-4.5v-19h4.5v1.1c1-1 2.2-1.5 3.7-1.5 1.8 0 3.4.6 4.6 1.8 1.3 1.2 1.9 3 1.9 4.9 0 2-.7 3.7-2.1 5.1-1.2 1.2-2.6 1.7-4.4 1.7-1.6 0-2.9-.5-3.8-1.5v7.4zm2.7-15.6c-1 0-1.7.5-2.1.9-.6.5-.9 1.4-.9 2.1 0 .7.3 1.5.8 2 .6.6 1.4.9 2.2.9.7 0 1.5-.3 2-.8.6-.5.9-1.4.9-2.2 0-.8-.3-1.6-.9-2.1-.5-.6-1.2-.8-2-.8zM71.5 73.1h-5.8l-4.8-6.8v6.8h-4.7V54.3H63c2.6 0 4.1.9 4.9 1.7.6.6 1.7 1.9 1.7 4.3 0 1.6-.5 2.9-1.5 3.9-.7.6-1.5 1.1-2.4 1.4l5.8 7.5zM60.9 62.7h.8c.8 0 1.8-.1 2.4-.7.2-.2.6-.8.6-1.6 0-.7-.3-1.3-.8-1.7-.5-.4-1.3-.5-2.3-.5h-.8v4.5zm17 10.8c-2.1 0-3.6-.6-4.8-1.9-1.3-1.3-1.9-2.9-1.9-4.7 0-2 .7-3.9 2-5.1 1.1-1.1 2.7-1.7 4.5-1.7 1.1 0 2.6.3 3.7 1.4v-1h4.5v12.7h-4.5V72c-.9 1-2.1 1.5-3.5 1.5zm.8-9.7c-.8 0-1.6.3-2.1.8-.4.4-.9 1.1-.9 2.1s.4 1.7.8 2.1c.5.6 1.4.9 2.2.9.7 0 1.5-.3 2-.8.4-.4.9-1.1.9-2.2 0-.8-.3-1.6-.9-2.1-.5-.5-1.3-.8-2-.8zm15.4 9.7c-1.9 0-3.3-.6-4.5-1.7-1.3-1.3-2-3.1-2-5.1 0-2 .7-3.8 2-5 1.2-1.1 2.8-1.7 4.5-1.7 1.5 0 2.8.5 3.7 1.4v-8.8h4.5v20.5h-4.5V72c-.9 1-2.2 1.5-3.7 1.5zm1-9.7c-.8 0-1.5.2-2 .8-.4.4-.9 1.1-.9 2.2 0 .8.3 1.6.9 2.1.5.5 1.3.8 2 .8.8 0 1.6-.3 2.2-.9.3-.3.9-1 .9-2.1 0-.8-.3-1.5-.8-2.1-.7-.5-1.4-.8-2.3-.8zm14.5 9.3h-4.5V60.4h4.5v12.7zm-2.2-15.2c-1.4 0-2.6-1.1-2.6-2.5s1.1-2.5 2.6-2.5 2.6 1.1 2.6 2.5-1.1 2.5-2.6 2.5zm11.8 15.6c-2.3 0-4.3-.7-5.7-2-1.2-1.2-2-3-2-4.7 0-1.8.7-3.5 2-4.7 1.3-1.3 3.4-2 5.7-2 2.3 0 4.3.7 5.7 2 1.2 1.2 2 3 2 4.7 0 1.8-.7 3.5-2 4.7-1.3 1.3-3.4 2-5.7 2zm0-9.7c-.9 0-1.6.3-2.2.8-.6.6-.9 1.3-.9 2.2 0 .9.3 1.6.9 2.2.6.5 1.3.8 2.2.8.9 0 1.6-.3 2.1-.8.6-.6.9-1.3.9-2.2 0-.9-.3-1.6-.9-2.2-.5-.5-1.2-.8-2.1-.8zm20.4 9.3h-10.7V54.3h4.8v14.8h5.9v4zm6.2 0h-4.5V60.4h4.5v12.7zm-2.3-15.2c-1.4 0-2.6-1.1-2.6-2.5s1.1-2.5 2.6-2.5c1.4 0 2.6 1.1 2.6 2.5s-1.1 2.5-2.6 2.5zm13.4 15.6c-1.6 0-2.9-.5-3.8-1.5v1.1h-4.5V52.6h4.5v8.8c.9-.9 2.2-1.4 3.7-1.4 1.7 0 3.3.6 4.5 1.7 1.3 1.2 2.1 3 2.1 5s-.7 3.8-2.1 5.1c-1.1 1.2-2.6 1.7-4.4 1.7zm-1.1-9.7c-.9 0-1.6.3-2.2.8-.6.6-.9 1.3-.9 2.1 0 1.1.5 1.8.9 2.1.6.5 1.4.9 2.2.9.7 0 1.4-.3 2-.8.6-.5.9-1.3.9-2.1 0-1.1-.5-1.8-.9-2.2-.5-.5-1.2-.8-2-.8zm41.4 9.3h-4.5V64h-1.4v-3.6h1.4v-4h4.5v4h2.5V64h-2.5v9.1zm10 6.3h-5.1l4.6-8.1-6.2-10.9h5.2l3.5 6.4 3.4-6.4h5.1l-10.5 19zm-48.5-35c-1.6 0-3.5-.2-5.2-1.8-1.3-1.2-1.9-3-1.9-4.9 0-1.9.7-3.7 2-5 1.2-1.2 2.9-1.8 5-1.8 2.2 0 3.9.6 5.1 1.9 1.2 1.3 1.8 3 1.8 5.1v.6h-9.4c0 .6.3 1.3.7 1.8.4.5 1.1.7 1.9.7.6 0 1.2-.1 1.5-.3 0 0 .5-.3.8-.9l.1-.1h4.3l-.2.7c-.6 1.7-1.7 2.7-2.5 3.2-1 .5-2.3.8-4 .8zm-2.3-8.6h5c-.1-.3-.3-.7-.7-1.1-.5-.4-1.1-.6-1.8-.6-.8 0-1.4.2-1.9.7-.3.3-.5.6-.6 1zm17.6 8.6c-1.6 0-3.5-.2-5.2-1.8-1.3-1.2-1.9-3-1.9-4.9 0-1.9.7-3.7 2-5 1.2-1.2 2.9-1.8 5-1.8 2.2 0 3.9.6 5.1 1.9 1.2 1.3 1.8 3 1.8 5.1v.6h-9.4c0 .6.3 1.3.7 1.8.4.5 1.1.7 1.9.7.6 0 1.2-.1 1.5-.3 0 0 .5-.3.8-.9l.1-.1h4.3l-.2.7c-.6 1.7-1.7 2.7-2.5 3.2-1 .5-2.3.8-4 .8zm-2.4-8.6h5c-.1-.3-.3-.7-.7-1.1-.5-.4-1.1-.6-1.8-.6-.8 0-1.4.2-1.9.7-.3.3-.5.6-.6 1zm90 8.6c-1.6 0-3.5-.2-5.2-1.8-1.3-1.2-1.9-3-1.9-4.9 0-1.9.7-3.7 2-5 1.2-1.2 2.9-1.8 5-1.8 2.2 0 3.9.6 5.1 1.9 1.2 1.3 1.8 3 1.8 5.1v.6H259c0 .6.3 1.3.7 1.8.4.5 1.1.7 1.9.7.6 0 1.2-.1 1.5-.3 0 0 .5-.3.8-.9l.1-.1h4.3l-.2.7c-.6 1.7-1.7 2.7-2.5 3.2-1 .5-2.3.8-4 .8zm-2.4-8.6h5c-.1-.3-.3-.7-.7-1.1-.5-.4-1.1-.6-1.8-.6-.8 0-1.4.2-1.9.7-.2.3-.4.6-.6 1zm-87.6 37.7c-1.6 0-3.5-.2-5.2-1.8-1.3-1.2-1.9-3-1.9-4.9 0-1.9.7-3.7 2-5 1.2-1.2 2.9-1.8 5-1.8 2.2 0 3.9.6 5.1 1.9 1.2 1.3 1.8 3 1.8 5.1v.6H169c0 .6.3 1.3.7 1.8.4.5 1.1.7 1.9.7.6 0 1.2-.1 1.5-.3 0 0 .5-.3.8-.9l.1-.1h4.3l-.2.7c-.6 1.7-1.7 2.7-2.5 3.2-1 .5-2.3.8-4 .8zm-2.4-8.6h5c-.1-.3-.3-.7-.7-1.1-.5-.4-1.1-.6-1.8-.6-.8 0-1.4.2-1.9.7-.3.3-.5.6-.6 1zm46.7-20.8h-4.5V31.4h4.5v1.4c.4-.5.8-.9 1.3-1.2.6-.4 1.3-.6 2.3-.6.5 0 1.3.2 1.3.2v4.2s-.4-.5-2.1-.6c-.8 0-1.4.3-1.9.8-.8.8-.9 2-.9 3.2v5.3zm-70.1 0h-4.5V31.4h4.5v1.4c.4-.5.8-.9 1.3-1.2.6-.4 1.3-.6 2.3-.6.5 0 1.3.2 1.3.2v4.2s-.4-.5-2.1-.6c-.8 0-1.4.3-1.9.8-.8.8-.9 2-.9 3.2v5.3zM184.7 73h-4.5V60.3h4.5v1.4c.4-.5.8-.9 1.3-1.2.6-.4 1.3-.6 2.3-.6.5 0 1.3.2 1.3.2v4.2s-.4-.5-2.1-.6c-.8 0-1.4.3-1.9.8-.8.8-.9 2-.9 3.2V73z"/>
</svg>
