<?xml version="1.0" encoding="utf-8"?>
<!-- Generator: Adobe Illustrator 22.1.0, SVG Export Plug-In . SVG Version: 6.00 Build 0)  -->
<svg version="1.1" id="Layer_1" xmlns="http://www.w3.org/2000/svg" xmlns:xlink="http://www.w3.org/1999/xlink" x="0px" y="0px"
	 viewBox="0 0 270 80" style="enable-background:new 0 0 270 80;" xml:space="preserve">
<g id="black_2_">
	<path class="svg-logo__avatar" d="M52.6,24.1c-6.9,0.8-8.8,7.9-14,14.1c-6.9,8.2-17.1,4-17.1,4c6.9-0.9,8.9-8,14.2-14.2
		C42.6,19.9,52.6,24.1,52.6,24.1z M27.7,36.2c0,0,8.6-6.8,4.9-16.9c-2.8-7.6-8.2-13-5.3-19.3c0,0-8.5,6.9-5,16.9
		C25,24.5,30.5,29.9,27.7,36.2z M27.2,34.7c0,0,0.8-11.1-8.7-15.3c-7.4-3.3-15.2-3-17.9-9.4c0,0-1.1,11,9,15.3
		C17.1,28.5,24.5,28.3,27.2,34.7z M15.9,53.3h19.3l4.5-9.1H15.9V53.3z M18.9,80h1.6l11.1-25.5H18.9V80z"/>
	<path class="svg-logo__type" d="M72.3,44.1h-5.8l-4.8-6.8v6.8h-4.8V25.3h6.8c2.6,0,4.1,0.9,4.9,1.7c0.6,0.6,1.7,2,1.7,4.3c0,1.6-0.5,2.9-1.5,3.9
		c-0.7,0.6-1.5,1.1-2.4,1.4L72.3,44.1z M61.7,33.7h0.8c0.8,0,1.8-0.1,2.5-0.7c0.2-0.2,0.6-0.8,0.6-1.7c0-0.7-0.3-1.3-0.8-1.7
		c-0.5-0.4-1.3-0.5-2.3-0.5h-0.8V33.7z M78.7,44.6c-2.1,0-3.6-0.6-4.9-1.9c-1.3-1.3-1.9-2.9-1.9-4.8c0-2,0.7-3.9,2-5.1
		c1.1-1.1,2.8-1.7,4.5-1.7c1.1,0,2.6,0.3,3.8,1.4v-1h4.5v12.8h-4.5v-1.1C81.4,44.1,80.2,44.6,78.7,44.6z M79.5,34.8
		c-0.8,0-1.6,0.3-2.1,0.8c-0.4,0.4-0.9,1.1-0.9,2.1c0,1,0.4,1.7,0.8,2.1c0.6,0.6,1.4,0.9,2.3,0.9c0.7,0,1.5-0.3,2-0.8
		c0.4-0.4,0.9-1.1,0.9-2.2c0-0.8-0.3-1.6-0.9-2.1C81.1,35.1,80.2,34.8,79.5,34.8z M94.9,44.6c-1.9,0-3.3-0.6-4.5-1.7
		c-1.3-1.3-2-3.1-2-5.1c0-2,0.7-3.8,2-5c1.2-1.1,2.8-1.7,4.5-1.7c1.5,0,2.8,0.5,3.7,1.5v-8.9h4.5v20.6h-4.5V43
		C97.8,44,96.5,44.6,94.9,44.6z M96,34.8c-0.8,0-1.5,0.2-2,0.8C93.5,36,93,36.7,93,37.8c0,0.8,0.3,1.6,0.9,2.1
		c0.5,0.5,1.3,0.8,2,0.8c0.8,0,1.6-0.3,2.2-0.9c0.3-0.3,0.9-1,0.9-2.1c0-0.8-0.3-1.5-0.8-2.1C97.6,35.1,96.9,34.8,96,34.8z
		 M110.6,44.1h-4.5V31.4h4.5V44.1z M108.4,28.9c-1.4,0-2.6-1.1-2.6-2.5c0-1.4,1.1-2.5,2.6-2.5c1.4,0,2.6,1.1,2.6,2.5
		C111,27.8,109.9,28.9,108.4,28.9z M120.3,44.6c-2.3,0-4.4-0.7-5.7-2.1c-1.2-1.2-2-3-2-4.7c0-1.8,0.7-3.5,2-4.7
		c1.3-1.3,3.4-2.1,5.7-2.1c2.3,0,4.4,0.7,5.7,2.1c1.2,1.2,2,3,2,4.7c0,1.8-0.7,3.5-2,4.7C124.6,43.8,122.6,44.6,120.3,44.6z
		 M120.3,34.8c-0.9,0-1.6,0.3-2.2,0.8c-0.6,0.6-0.9,1.3-0.9,2.2c0,0.9,0.3,1.6,0.9,2.2c0.6,0.5,1.3,0.8,2.2,0.8
		c0.9,0,1.6-0.3,2.1-0.8c0.6-0.6,0.9-1.3,0.9-2.2c0-0.9-0.3-1.6-0.9-2.2C121.9,35,121.1,34.8,120.3,34.8z M134.7,44.1H130V25.3h10.9
		v4h-6.1v3.2h5.7v4h-5.7V44.1z M194.7,44.1H184V25.3h10.7v4h-6.1v3.2h5.8v4h-5.8v3.7h6.1V44.1z M203.5,44.6c-2.4,0-4.1-0.5-5.3-1.7
		c-1.3-1.2-1.5-2.6-1.5-3.9v-7.7h4.6v7c0,0.6,0.1,1.3,0.7,1.8c0.4,0.4,0.9,0.5,1.6,0.5c0.7,0,1.2-0.2,1.6-0.5
		c0.6-0.5,0.6-1.3,0.6-1.8v-7h4.6v7.4c0,1.4-0.1,2.8-1.5,4.1C207.6,44,205.8,44.6,203.5,44.6z M230.8,44.6c-2.3,0-4.4-0.7-5.7-2.1
		c-1.2-1.2-2-3-2-4.7c0-1.8,0.7-3.5,2-4.7c1.3-1.3,3.4-2.1,5.7-2.1s4.4,0.7,5.7,2.1c1.2,1.2,2,3,2,4.7c0,1.8-0.7,3.5-2,4.7
		C235.2,43.8,233.1,44.6,230.8,44.6z M230.8,34.8c-0.9,0-1.6,0.3-2.2,0.8c-0.6,0.6-0.9,1.3-0.9,2.2c0,0.9,0.3,1.6,0.9,2.2
		c0.6,0.5,1.3,0.8,2.2,0.8c0.9,0,1.6-0.3,2.1-0.8c0.6-0.6,0.9-1.3,0.9-2.2c0-0.9-0.3-1.6-0.9-2.2C232.4,35,231.7,34.8,230.8,34.8z
		 M244.7,50.5h-4.5V31.4h4.5v1.1c1-1,2.2-1.5,3.7-1.5c1.8,0,3.4,0.6,4.6,1.8c1.3,1.2,2,3,2,5c0,2-0.7,3.8-2.1,5.1
		c-1.2,1.2-2.6,1.7-4.4,1.7c-1.6,0-2.9-0.5-3.8-1.5V50.5z M247.4,34.8c-1,0-1.7,0.5-2.1,0.9c-0.6,0.5-0.9,1.4-0.9,2.1
		c0,0.7,0.3,1.5,0.8,2c0.6,0.6,1.4,0.9,2.2,0.9c0.7,0,1.5-0.3,2-0.8c0.6-0.5,0.9-1.4,0.9-2.2c0-0.8-0.3-1.6-0.9-2.1
		C248.9,35.1,248.2,34.8,247.4,34.8z M72.3,73.3h-5.8l-4.8-6.8v6.8h-4.8V54.5h6.8c2.6,0,4.1,0.9,4.9,1.7c0.6,0.6,1.7,2,1.7,4.3
		c0,1.6-0.5,2.9-1.5,3.9c-0.7,0.6-1.5,1.1-2.4,1.4L72.3,73.3z M61.7,62.8h0.8c0.8,0,1.8-0.1,2.5-0.7c0.2-0.2,0.6-0.8,0.6-1.7
		c0-0.7-0.3-1.3-0.8-1.7c-0.5-0.4-1.3-0.5-2.3-0.5h-0.8V62.8z M78.7,73.7c-2.1,0-3.6-0.6-4.9-1.9c-1.3-1.3-1.9-2.9-1.9-4.8
		c0-2,0.7-3.9,2-5.1c1.1-1.1,2.8-1.7,4.5-1.7c1.1,0,2.6,0.3,3.8,1.4v-1h4.5v12.8h-4.5v-1.1C81.4,73.2,80.2,73.7,78.7,73.7z M79.5,64
		c-0.8,0-1.6,0.3-2.1,0.8c-0.4,0.4-0.9,1.1-0.9,2.1c0,1,0.4,1.7,0.8,2.1c0.6,0.6,1.4,0.9,2.3,0.9c0.7,0,1.5-0.3,2-0.8
		c0.4-0.4,0.9-1.1,0.9-2.2c0-0.8-0.3-1.6-0.9-2.1C81.1,64.3,80.2,64,79.5,64z M94.9,73.7c-1.9,0-3.3-0.6-4.5-1.7
		c-1.3-1.3-2-3.1-2-5.1c0-2,0.7-3.8,2-5c1.2-1.1,2.8-1.7,4.5-1.7c1.5,0,2.8,0.5,3.7,1.5v-8.9h4.5v20.6h-4.5v-1.1
		C97.8,73.2,96.5,73.7,94.9,73.7z M96,64c-0.8,0-1.5,0.2-2,0.8C93.5,65.2,93,65.9,93,67c0,0.8,0.3,1.6,0.9,2.1
		c0.5,0.5,1.3,0.8,2,0.8c0.8,0,1.6-0.3,2.2-0.9c0.3-0.3,0.9-1,0.9-2.1c0-0.8-0.3-1.5-0.8-2.1C97.6,64.3,96.9,64,96,64z M110.6,73.3
		h-4.5V60.6h4.5V73.3z M108.4,58c-1.4,0-2.6-1.1-2.6-2.5c0-1.4,1.1-2.5,2.6-2.5c1.4,0,2.6,1.1,2.6,2.5C110.9,56.9,109.8,58,108.4,58
		z M120.2,73.7c-2.3,0-4.4-0.7-5.7-2.1c-1.2-1.2-2-3-2-4.7c0-1.8,0.7-3.5,2-4.7c1.3-1.3,3.4-2.1,5.7-2.1c2.3,0,4.4,0.7,5.7,2.1
		c1.2,1.2,2,3,2,4.7c0,1.8-0.7,3.5-2,4.7C124.6,73,122.5,73.7,120.2,73.7z M120.2,63.9c-0.9,0-1.6,0.3-2.2,0.8
		c-0.6,0.6-0.9,1.3-0.9,2.2c0,0.9,0.3,1.6,0.9,2.2c0.6,0.5,1.3,0.8,2.2,0.8c0.9,0,1.6-0.3,2.1-0.8c0.6-0.6,0.9-1.3,0.9-2.2
		c0-0.9-0.3-1.6-0.9-2.2C121.8,64.2,121.1,63.9,120.2,63.9z M140.6,73.3h-10.7V54.5h4.8v14.9h5.9V73.3z M146.9,73.3h-4.5V60.6h4.5
		V73.3z M144.6,58c-1.4,0-2.6-1.1-2.6-2.5c0-1.4,1.1-2.5,2.6-2.5c1.4,0,2.6,1.1,2.6,2.5C147.2,56.9,146.1,58,144.6,58z M158,73.7
		c-1.6,0-2.9-0.5-3.8-1.5v1.1h-4.5V52.7h4.5v8.9c0.9-0.9,2.2-1.5,3.8-1.5c1.7,0,3.4,0.6,4.6,1.7c1.3,1.2,2.1,3,2.1,5
		c0,2-0.7,3.8-2.1,5.1C161.3,73.2,159.9,73.7,158,73.7z M156.9,64c-0.9,0-1.6,0.3-2.2,0.9c-0.6,0.6-0.9,1.3-0.9,2.1
		c0,1.1,0.5,1.8,0.9,2.1c0.6,0.5,1.4,0.9,2.2,0.9c0.7,0,1.5-0.3,2-0.8c0.6-0.5,0.9-1.3,0.9-2.1c0-1.1-0.5-1.8-0.9-2.2
		C158.4,64.2,157.8,64,156.9,64z M198.5,73.3H194v-9.1h-1.4v-3.6h1.4v-4h4.5v4h2.5v3.6h-2.5V73.3z M208.5,79.7h-5.1l4.6-8.1l-6.3-11
		h5.3l3.5,6.5l3.4-6.5h5.1L208.5,79.7z M159.9,44.5c-1.6,0-3.5-0.2-5.2-1.8c-1.3-1.2-2-3-2-4.9c0-1.9,0.7-3.8,2-5
		c1.2-1.2,2.9-1.8,5-1.8c2.2,0,3.9,0.6,5.1,1.9c1.2,1.3,1.8,3,1.8,5.2v0.6h-9.4c0,0.6,0.3,1.3,0.7,1.8c0.4,0.5,1.1,0.7,1.9,0.7
		c0.6,0,1.2-0.1,1.5-0.3c0,0,0.5-0.3,0.8-0.9l0.1-0.1l4.3,0l-0.2,0.7c-0.6,1.7-1.7,2.7-2.5,3.2C162.9,44.2,161.6,44.5,159.9,44.5z
		 M157.5,35.8h5c-0.1-0.3-0.3-0.7-0.7-1.1c-0.5-0.4-1.1-0.6-1.8-0.6c-0.8,0-1.4,0.2-1.9,0.7C157.8,35.1,157.6,35.5,157.5,35.8z
		 M175.2,44.5c-1.6,0-3.5-0.2-5.2-1.8c-1.3-1.2-2-3-2-4.9c0-1.9,0.7-3.8,2-5c1.2-1.2,2.9-1.8,5-1.8c2.2,0,3.9,0.6,5.1,1.9
		c1.2,1.3,1.8,3,1.8,5.2v0.6h-9.4c0,0.6,0.3,1.3,0.7,1.8c0.4,0.5,1.1,0.7,1.9,0.7c0.6,0,1.2-0.1,1.5-0.3c0,0,0.5-0.3,0.8-0.9
		l0.1-0.1l4.3,0l-0.2,0.7c-0.6,1.7-1.7,2.7-2.5,3.2C178.2,44.2,176.9,44.5,175.2,44.5z M172.8,35.8h5c-0.1-0.3-0.3-0.7-0.7-1.1
		c-0.5-0.4-1.1-0.6-1.8-0.6c-0.8,0-1.4,0.2-1.9,0.7C173.1,35.1,172.9,35.5,172.8,35.8z M263.2,44.5c-1.6,0-3.5-0.2-5.2-1.8
		c-1.3-1.2-2-3-2-4.9c0-1.9,0.7-3.8,2-5c1.2-1.2,2.9-1.8,5-1.8c2.2,0,3.9,0.6,5.1,1.9c1.2,1.3,1.8,3,1.8,5.2v0.6h-9.4
		c0,0.6,0.3,1.3,0.7,1.8c0.4,0.5,1.1,0.7,1.9,0.7c0.6,0,1.2-0.1,1.5-0.3c0,0,0.5-0.3,0.8-0.9l0.1-0.1l4.3,0l-0.2,0.7
		c-0.6,1.7-1.7,2.7-2.5,3.2C266.2,44.2,264.9,44.5,263.2,44.5z M260.8,35.8h5c-0.1-0.3-0.3-0.7-0.7-1.1c-0.5-0.4-1.1-0.6-1.8-0.6
		c-0.8,0-1.4,0.2-1.9,0.7C261.1,35.1,260.9,35.5,260.8,35.8z M172.8,73.7c-1.6,0-3.5-0.2-5.2-1.8c-1.3-1.2-2-3-2-4.9
		c0-1.9,0.7-3.8,2-5c1.2-1.2,2.9-1.8,5-1.8c2.2,0,3.9,0.6,5.1,1.9c1.2,1.3,1.8,3,1.8,5.2v0.6h-9.4c0,0.6,0.3,1.3,0.7,1.8
		c0.4,0.5,1.1,0.7,1.9,0.7c0.6,0,1.2-0.1,1.5-0.3c0,0,0.5-0.3,0.8-0.9l0.1-0.1l4.3,0l-0.2,0.7c-0.6,1.7-1.7,2.7-2.5,3.2
		C175.8,73.4,174.5,73.7,172.8,73.7z M170.4,65h5c-0.1-0.3-0.3-0.7-0.7-1.1c-0.5-0.4-1.1-0.6-1.8-0.6c-0.8,0-1.4,0.2-1.9,0.7
		C170.7,64.4,170.5,64.7,170.4,65z M217.3,44.1h-4.5V31.4h4.5v1.4c0.4-0.5,0.8-0.9,1.3-1.2c0.6-0.4,1.3-0.6,2.3-0.6
		c0.5,0,1.3,0.2,1.3,0.2v4.2c0,0-0.4-0.5-2.1-0.6c-0.8,0-1.4,0.3-1.9,0.8c-0.8,0.9-0.9,2-0.9,3.2V44.1z M146.9,44.1h-4.5V31.4h4.5
		v1.4c0.4-0.5,0.8-0.9,1.3-1.2c0.6-0.4,1.3-0.6,2.3-0.6c0.5,0,1.3,0.2,1.3,0.2v4.2c0,0-0.4-0.5-2.1-0.6c-0.8,0-1.4,0.3-1.9,0.8
		c-0.8,0.9-0.9,2-0.9,3.2V44.1z M186,73.2h-4.5V60.4h4.5v1.4c0.4-0.5,0.8-0.9,1.3-1.2c0.6-0.4,1.3-0.6,2.3-0.6
		c0.5,0,1.3,0.2,1.3,0.2v4.2c0,0-0.4-0.5-2.1-0.6c-0.8,0-1.4,0.3-1.9,0.8c-0.8,0.9-0.9,2-0.9,3.2V73.2z"/>
</g>
</svg>
