<svg class="svg-logo" viewBox="0 0 154.1 80">
  <path d="M154.1 24.1c-6.9.8-8.8 7.9-14 14.1-6.9 8.2-17.1 4-17.1 4 6.9-.9 8.9-8 14.2-14.2 7-8.1 16.9-3.9 16.9-3.9zm-24.9 12.1s8.6-6.8 4.9-16.9c-2.8-7.6-8.2-13-5.3-19.3 0 0-8.5 6.9-5 16.9 2.8 7.6 8.3 13 5.4 19.3zm-.4-1.5s.8-11.1-8.7-15.3c-7.4-3.3-15.2-3-17.9-9.4 0 0-1.1 11 9 15.3 7.5 3.2 14.9 3 17.6 9.4zm-11.4 18.6h19.3l4.5-9.1h-23.8v9.1zm3.1 26.7h1.6l11.1-25.5h-12.7V80z" class="svg-logo__avatar"/>
  <path d="M3.7 52.8l-2.7 1-1-20.6 3.7-1.5v21.1zm14-5.3c.1 1.7-.6 3.4-1.8 4.6-1.3 1-3 1.5-4.6 1.5-2.7 0-4.5-.7-5.6-2.2l1.6-3.2c.5.4 1 .7 1.6.9.5.2 1 .3 1.6.3h1.8l1.1-.1c.5-.1 1-.3 1.4-.6.3-.3.5-.7.5-1.1-.2-.9-.7-1.7-1.4-2.3a9.3 9.3 0 0 0-1.8-1.6c-.7-.5-1.4-1-2.2-1.3l1.7-4c4 2.6 6 5.7 6.1 9.1zm13.5 5.7h-.7c-.4 0-.8 0-1.2-.2l-.9-.4c-.1 1-.4 2-.9 2.9a14 14 0 0 1-7.7 6.2l-3-2a21.5 21.5 0 0 0 5.2-3.2c1-.7 1.9-1.5 2.7-2.4.5-.5.8-1.3.9-2 0-.7-.6-1.9-1.9-3.6l2.8-3.1 1.1 1.7.9 1 .4.3.5.2.5.2h1.2l.1 4.4zm9.2-6.3c0 4.2-2.5 6.3-7.4 6.3h-2.5V49h4.4a4 4 0 0 0 2.1-.5c.5-.3.8-.8.8-1.4-.3.3-.6.5-1 .5l-1.6.2c-2.2 0-3.4-1.1-3.4-3.3l.2-1.1.4-1.3.6-1.3.8-1 .9-.8c.3-.2.6-.3 1-.3.7 0 1.4.3 1.9.8a7 7 0 0 1 1.6 2.2l.8 2.5.4 2.7zm-3-12.8l-2.3 3.2-3.2-2.2 2.3-3.2 3.2 2.2zm-2 10.7c.8 0 1.3-.3 1.5-.8l-.3-.6-.4-.5-.4-.4-.5-.1-.4.1-.3.3-.3.4-.1.4c-.1.6.3 1.1.9 1.2h.3zm25.9 8.4h-2.4a8 8 0 0 1-1.1 2.7c-.6.9-1.3 1.8-2.1 2.5a14.5 14.5 0 0 1-5.2 3.5L48 59.4l2.5-1.2 2.4-1.5c.7-.5 1.4-1.1 2-1.8.5-.5.8-1 1.1-1.6l-2.6-.2c-.6-.1-1.2-.3-1.7-.7-.5-.3-.8-.7-1-1.2-.2-.6-.3-1.2-.3-1.9l.2-1.7.7-1.8c.3-.7.8-1.3 1.3-1.7.5-.4 1-.6 1.6-.6.6 0 1.1.1 1.7.4l1.4 1.1a7.8 7.8 0 0 1 1.7 4h2.4l-.1 4.2zm-6.8-3.9h.8l.8-.2-.2-.8-.4-.7-.6-.5-.7-.2-.5.1-.4.3-.3.5-.1.4c-.1.8.5 1.1 1.6 1.1zm12.2 8.2L65 60.1l-2.3-1.6-.6.9-.6.9-2.7-1.9 1.8-2.4 2.2 1.5.6-.9.6-.9 2.7 1.8zm.7-10c0 .8-.1 1.6-.4 2.4-.3.7-.7 1.3-1.2 1.8-.6.5-1.2.9-1.9 1.2-.8.3-1.7.4-2.6.4h-.7V49h.3l1.9-.1a5 5 0 0 0 1.2-.2l.6-.3.2-.4-.2-.7-.6-.8-1.1-1.5 2.2-3.4a9 9 0 0 1 2.3 5.9zm14 .1c.1 1.7-.6 3.4-1.8 4.6-1.3 1-3 1.5-4.6 1.5-2.7 0-4.5-.7-5.6-2.2l1.6-3.2c.5.4 1 .7 1.6.9.5.2 1.1.3 1.6.3H76l1.1-.1c.5-.1 1-.3 1.4-.6.3-.3.5-.7.5-1.1-.2-.9-.7-1.7-1.4-2.3a9.3 9.3 0 0 0-1.8-1.6c-.7-.5-1.4-1-2.2-1.3l1.7-4c4 2.6 6 5.6 6.1 9.1zm6.9 5.2l-2.6 1-1-20.5 3.7-1.5-.1 21zm12-1.5c0 2.3-1.1 4.5-3.3 6.7-.9.8-1.8 1.6-2.8 2.2-1 .7-2.1 1.2-3.2 1.7l-2.8-2.3c1.9-.9 3.7-2 5.3-3.3 2.4-1.8 3.6-3.3 3.7-4.6l-.2-.9-.5-1-.7-.9-.8-.9 2.7-3.3a15 15 0 0 1 1.8 3c.5 1.1.7 2.3.7 3.6h.1z" class="svg-logo__type"/>
</svg>
