<svg class="svg-logo" viewBox="0 0 127.8 80">
  <path d="M52 24.1c-6.9.8-8.8 7.9-14 14.1-6.9 8.2-17.1 4-17.1 4 6.9-.9 8.9-8 14.2-14.2 7-8.1 16.9-3.9 16.9-3.9zM27.1 36.2s8.6-6.8 4.9-16.9c-2.8-7.6-8.2-13-5.3-19.3 0 0-8.5 6.9-5 16.9 2.7 7.6 8.3 13 5.4 19.3zm-.5-1.5s.8-11.1-8.7-15.3C10.5 16.1 2.7 16.4 0 10c0 0-1.1 11 9 15.3 7.5 3.2 14.9 3 17.6 9.4zM15.3 53.3h19.3l4.5-9.1H15.3v9.1zM18.4 80H20l11.1-25.5H18.4V80z" class="svg-logo__avatar"/>
  <path d="M71.7 44.2h-5.9L61 37.3v6.9h-4.8v-19h6.9a7 7 0 0 1 5 1.7 5.4 5.4 0 0 1 1.7 4.3 5 5 0 0 1-1.5 3.9c-.7.6-1.5 1.1-2.4 1.4l5.8 7.7zM61 33.6h.8c.9.1 1.8-.2 2.5-.8.4-.4.7-1 .7-1.7s-.3-1.3-.8-1.7c-.7-.4-1.5-.6-2.3-.5H61v4.7zm17.2 11a6 6 0 0 1-4.9-2 7 7 0 0 1-1.9-4.8c0-1.9.7-3.8 2-5.2a6 6 0 0 1 4.6-1.7 5 5 0 0 1 3.8 1.5v-1h4.5v12.8h-4.5v-1.1c-.9 1-2.2 1.6-3.6 1.5zm.8-9.8c-.8 0-1.5.3-2.1.8-.6.6-.9 1.4-.9 2.2 0 .8.3 1.5.8 2.1a3.2 3.2 0 0 0 4.3.1c.6-.6 1-1.4.9-2.2 0-.8-.3-1.6-.9-2.1-.6-.6-1.3-.9-2.1-.9zm15.6 9.8c-1.7.1-3.3-.6-4.5-1.8a7.1 7.1 0 0 1-2.1-5.1c0-1.9.7-3.7 2.1-5.1a6.9 6.9 0 0 1 4.6-1.7c1.4 0 2.8.5 3.8 1.5v-8.9h4.5v20.8h-4.5v-1.1a5.7 5.7 0 0 1-3.9 1.4zm1.1-9.8c-.8 0-1.5.3-2.1.8a3 3 0 0 0-.1 4.2c.5.6 1.3.9 2.1.9s1.6-.3 2.2-.9c.6-.5.9-1.3.9-2.1s-.3-1.6-.9-2.2c-.5-.4-1.3-.7-2.1-.7zm14.7 9.4h-4.5V31.3h4.5v12.9zm-2.2-15.4c-1.4 0-2.5-1.2-2.5-2.6s1.2-2.5 2.6-2.5c1.4 0 2.5 1.2 2.5 2.5 0 1.5-1.2 2.6-2.6 2.6zm11.9 15.8a8 8 0 0 1-5.7-2.1 6.9 6.9 0 0 1 0-9.6 8.8 8.8 0 0 1 11.4 0 6.9 6.9 0 0 1 0 9.6 7.5 7.5 0 0 1-5.7 2.1zm-2.1-9a3.1 3.1 0 0 0 0 4.4c.6.6 1.4.9 2.2.8a3 3 0 0 0 3-3.1c0-.8-.3-1.5-.9-2.1a3.2 3.2 0 0 0-4.3 0zM61 73.1h-4.8V54h11v4H61v3.2h5.7v4H61v7.9zm14 .4a6 6 0 0 1-4.9-2 6.6 6.6 0 0 1-1.9-4.8c0-1.9.7-3.8 2-5.2a6.5 6.5 0 0 1 4.6-1.8 5 5 0 0 1 3.8 1.5v-1H83v12.9h-4.5V72c-.9 1-2.2 1.5-3.5 1.5zm.8-9.9c-.8 0-1.5.3-2.1.8-.6.6-.9 1.3-.9 2.1s.3 1.5.8 2.1a3.2 3.2 0 0 0 4.3.1 3.1 3.1 0 0 0 .1-4.3c-.7-.5-1.4-.8-2.2-.8zm26.3 9.9c-1.7.1-3.3-.6-4.5-1.8a7.2 7.2 0 0 1-2.1-5.2c0-1.9.7-3.7 2.1-5.1a6.4 6.4 0 0 1 4.6-1.7 5 5 0 0 1 3.8 1.5v-9h4.5V73H106v-1.1a4.8 4.8 0 0 1-3.9 1.6zm1-9.9a3 3 0 0 0-2 .8c-.6.6-1 1.4-.9 2.2 0 .8.3 1.6.9 2.1a3 3 0 0 0 2 .8c.8 0 1.6-.3 2.2-.9.6-.5.9-1.3.9-2.1s-.3-1.6-.9-2.2c-.5-.4-1.3-.7-2.2-.7zm16.2 9.9a6 6 0 0 1-4.9-2 7 7 0 0 1-1.9-4.8c0-1.9.7-3.8 2-5.2a6.5 6.5 0 0 1 4.6-1.8 5 5 0 0 1 3.8 1.5v-1h4.5v12.9h-4.5V72a5 5 0 0 1-3.6 1.5zm.8-9.9c-.8 0-1.5.3-2.1.8-.6.6-.9 1.3-.9 2.1s.3 1.5.8 2.1c.6.6 1.4.9 2.3.9a3 3 0 0 0 2.9-3c0-.8-.3-1.6-.9-2.1-.6-.5-1.3-.7-2.1-.8zm-30 9.5h-4.5V60.2h4.5v1.5c.3-.5.8-.9 1.3-1.2.7-.4 1.5-.6 2.3-.5l1.3.2-.4 3.9s0-.2-1.7-.2c-.7 0-1.4.2-1.9.8-.7.9-1.1 2.1-.9 3.2v5.2z" class="svg-logo__type"/>
</svg>
