<svg class="svg-logo" viewBox="0 0 233.7 80">
  <path d="M52 24.1c-6.9.8-8.8 7.9-14 14.1-6.9 8.2-17.1 4-17.1 4 6.9-.9 8.9-8 14.2-14.2 7-8.1 16.9-3.9 16.9-3.9zM27.1 36.2s8.6-6.8 4.9-16.9c-2.8-7.6-8.2-13-5.3-19.3 0 0-8.5 6.9-5 16.9 2.7 7.6 8.3 13 5.4 19.3zm-.5-1.5s.8-11.1-8.7-15.3C10.5 16.1 2.7 16.4 0 10c0 0-1.1 11 9 15.3 7.5 3.2 14.9 3 17.6 9.4zM15.3 53.3h19.3l4.5-9.1H15.3v9.1zM18.4 80H20l11.1-25.5H18.4V80z" class="svg-logo__avatar"/>
  <path d="M72.2 43.7H69l.2-.3c1.2-1.8 1.9-3.8 2.1-6 0-.8-.2-1.5-.6-2.2a2 2 0 0 0-1.7-.9c-.6 0-1.1.2-1.6.6-.4.4-.6 1-.6 1.6v3.3h-3v-3.3c0-.6-.2-1.2-.6-1.6-.4-.4-1-.6-1.5-.6a2 2 0 0 0-1.7.9c-.4.6-.6 1.4-.5 2.2.2 2.1.9 4.2 2.1 6l.2.3h-3.3v-.1a14.4 14.4 0 0 1-2.2-6.9c0-4.2 2.5-7.3 7.5-9.1l3.6-1.3c1.4-.6 2.1-1.5 2.1-2.4v-.2H73v.2c-.1 1.6-.9 3-2.1 4-1.3.8-2.7 1.4-4.1 1.8l-2.7 1c-.7.3-1.4.6-2.1 1.1 1.3 0 2.6.6 3.5 1.6 1-1.1 2.4-1.7 3.9-1.6 1.5-.1 3 .6 3.9 1.8a6.2 6.2 0 0 1 1.4 3.9c-.3 2.1-1.1 4.3-2.5 6.2zm9.7.5a7 7 0 0 1-3.8-1.1 4.2 4.2 0 0 1-1.9-3.5c0-.9.2-1.8.7-2.6v-.1h3.5l-.1.2c-.4.7-.7 1.6-.8 2.4 0 .6.2 1.1.7 1.4.5.4 1.1.5 1.7.5.7 0 1.4-.2 1.9-.7.5-.4.8-1 .8-1.7 0-1-.5-1.9-1.3-2.4l-2.6-1.5a3.3 3.3 0 0 1-1.5-2.8l.2-1.5v-.1h3.3v.2l-.1 1c0 .4.2.8.5 1.1l1.2.7c1 .5 1.9 1.1 2.6 1.9.7.9 1.1 2 1.1 3.2 0 1.5-.6 3-1.8 3.9a6.8 6.8 0 0 1-4.3 1.5zm25 7h-3.7V51c-.1-.9-.6-1.8-1.3-2.4a9.7 9.7 0 0 0-6.4-1.7c-1.8 0-3.6.2-5.3.6H90v-3.4h1.5a7.6 7.6 0 0 1-2.2-5.7c0-1.6.4-3.2 1.3-4.5a4.7 4.7 0 0 1 4.3-2.2c1.3 0 2.5.5 3.3 1.5 1.1-1 2.5-1.5 3.9-1.5 1.6-.1 3.2.6 4.3 1.8 1 1.2 1.6 2.7 1.5 4.3.1 1.6-.5 3.2-1.7 4.3a6 6 0 0 1-4.4 1.6c-1.5 0-2.9-.5-4-1.5a5 5 0 0 1-1.6-3.8l.2-2.6c-.1-.4-.3-.7-.6-.9-.3-.3-.6-.4-1-.4-1.5 0-2.2 1.3-2.2 4 0 2.3.8 3.9 2.4 4.8a46 46 0 0 0 5.3 1.5c2 .4 3.9 1.4 5.3 3a7 7 0 0 1 1.2 3.4h.1zm-4.7-16.8c-1.7 0-2.6 1.2-2.6 3.5 0 2.1.8 3.1 2.4 3.1.8 0 1.5-.3 2-.9.5-.7.7-1.5.7-2.3 0-2.3-.9-3.5-2.5-3.4zm17.2 9.3h-3.7l.2-.3a9 9 0 0 0 2.1-5.6 4 4 0 0 0-.7-2.4c-.4-.7-1.2-1-2-1s-1.5.4-2 1a4 4 0 0 0-.7 2.4c.1 2.1.8 4 2.1 5.6l.2.3h-3.7l-.1-.1a10 10 0 0 1-1.9-5.8c0-1.6.6-3.2 1.7-4.4a6.2 6.2 0 0 1 8.7 0 6.2 6.2 0 0 1 1.6 4.3c.1 2.2-.5 4.2-1.8 6zm19.3 0h-3.3l.2-.3c1.2-1.8 1.9-3.8 2.1-6 0-.8-.2-1.5-.6-2.2a2 2 0 0 0-1.6-.9 2 2 0 0 0-1.5.6c-.4.4-.6 1-.6 1.6v3.3h-3v-3.4c0-.6-.2-1.2-.6-1.6-.4-.4-1-.6-1.5-.6a2 2 0 0 0-1.7.9c-.4.6-.6 1.4-.5 2.2.2 2.1.9 4.2 2.1 6l.2.3H125l-.1-.1c-1.3-1.9-2-4-2.2-6.2 0-1.5.5-2.9 1.4-4 2-2.2 5.3-2.3 7.5-.3l.3.3a5.3 5.3 0 0 1 4.1-1.6c1.5 0 2.9.6 3.8 1.8a6.7 6.7 0 0 1 1.2 3.9c-.1 2.3-.9 4.4-2.2 6.2l-.1.1zM62.5 72c-3.5-.1-6.3-3-6.3-6.5 0-1.6.7-3.2 1.8-4.3a6.2 6.2 0 0 1 4.7-1.7c1.4 0 2.8.5 3.8 1.4a6 6 0 0 1 3.8-1.4 5 5 0 0 1 4.1 1.8c1 1.1 1.5 2.5 1.5 4 0 2.3-1 4.5-2.6 6.2v.1h-3.9l.3-.3c1.9-2 2.9-4.1 2.9-6.1 0-.7-.2-1.5-.7-2.1-.4-.6-1.1-.9-1.8-.8-.8 0-1.5.3-2 .8.3.9.4 1.8.4 2.7.1 1.7-.5 3.3-1.7 4.5a5.4 5.4 0 0 1-4.3 1.7zm.1-9.9c-2 0-3 1.2-3 3.6s1 3.5 3 3.5 2.9-1.3 2.9-4c0-.8-.2-1.6-.8-2.3-.6-.5-1.3-.8-2.1-.8zM83.2 72a7 7 0 0 1-3.8-1.1 4.2 4.2 0 0 1-1.9-3.5c0-.9.3-1.8.7-2.6v-.1h3.5l-.2.3c-.4.7-.7 1.6-.8 2.4 0 .5.2 1.1.7 1.4.5.4 1.1.5 1.8.5s1.4-.2 1.9-.7c.5-.4.8-1.1.8-1.7 0-1-.5-1.9-1.3-2.4L81.8 63a3.3 3.3 0 0 1-1.5-2.7l.2-1.5v-.1h3.3v.2l-.1 1c0 .5.2.9.5 1.2l1.2.7c1 .5 1.9 1.1 2.6 1.9.7.9 1.1 2 1.1 3.2 0 1.5-.6 3-1.8 3.9a7.3 7.3 0 0 1-4.1 1.2zm13 7.5A6 6 0 0 1 92 78a5.2 5.2 0 0 1-1.8-4c0-1.3.4-2.6 1-3.8v-.1h3.4l-.1.2a9.2 9.2 0 0 0-1 3.6c0 .7.2 1.5.8 2 .5.5 1.3.8 2 .7a2 2 0 0 0 2.1-1.2c.4-1 .5-2 .4-3V71c0-1.3-.6-2-1.8-2h-1.5v-2.7h1.6c.5 0 .9-.2 1.2-.7.3-.4.5-1 .5-1.5s-.2-1.1-.6-1.4c-.4-.4-1-.6-1.5-.5-1.7 0-2.5.8-2.5 2.3 0 .6.2 1.3.4 1.9l.1.2h-3.4v-.1c-.2-.6-.3-1.3-.3-1.9-.1-1.5.6-2.9 1.8-3.8a6.5 6.5 0 0 1 4-1.2 7 7 0 0 1 3.7 1.1 4.4 4.4 0 0 1 .9 6.1l-.9.9c1.2.9 1.8 2.6 1.8 5-.2 4.5-2.2 6.8-6.1 6.8zm17.7-8h-3.7l.2-.3a9 9 0 0 0 2.1-5.6 4 4 0 0 0-.7-2.4c-.4-.7-1.2-1-2-1s-1.5.4-2 1a4 4 0 0 0-.7 2.4c.1 2.1.8 4 2.1 5.6l.2.3h-3.7v-.1a10 10 0 0 1-1.9-5.8c0-1.6.6-3.2 1.7-4.4a6.2 6.2 0 0 1 8.7 0 6.2 6.2 0 0 1 1.6 4.3c0 2.1-.6 4.1-1.9 5.8v.2zm9.7.5c-3.9 0-5.9-2.2-5.9-6.4V53.5c-.1-.6-.2-1.2-.5-1.8l-.1-.2h3.6v14.1c-.1 1 .1 2 .6 2.8.6.7 1.5 1 2.4.9.8 0 1.5-.2 2.1-.8.5-.6.8-1.3.8-2.1 0-.7-.2-1.3-.6-1.8l-1.2-1.2c-.5-.4-.7-.9-.8-1.5 0-.9.3-1.7.8-2.4v-.1l3.2-.2-.1.3c-.3.4-.5.9-.6 1.4 0 .6.2 1.1.6 1.5l1.3 1.4c.5.7.7 1.5.7 2.4a5 5 0 0 1-2 4.2 6.6 6.6 0 0 1-4.3 1.6zm18.1 7.4c-1.7 0-3.5-.5-4.9-1.4a5 5 0 0 1-2.4-4.4c0-1.2.4-2.4 1-3.4v-.1h3.3l-.1.3c-.6 1-.9 2.1-.9 3.2 0 .9.4 1.8 1.1 2.3.8.6 1.7.9 2.7.8 1.1.1 2.2-.4 2.9-1.2.7-.9 1-2 1-3.1v-8.8c0-1-.4-1.5-1.3-1.5-.5 0-1.3.2-1.3 1.7v4.4h-3v-4.4c0-1.6-.3-1.7-.4-1.7s-.2 0-.8.9c-.4.7-.9 1.3-1.4 1.8a4 4 0 0 1-2.6 1c-1 0-1.9-.3-2.6-1a3.2 3.2 0 0 1-1-2.6c.1-1.1.6-2.1 1.4-2.8h3.7l-.2.3c-1.3 1.5-1.6 2.2-1.6 2.5 0 .8.3.8.4.8.4 0 .8-.3 1.2-.9l1.3-1.8c.6-.6 1.4-1 2.3-1 .9 0 1.7.4 2.2 1.1.8-.7 1.9-1.1 3-1.1 1.1-.1 2.2.4 2.9 1.3.6.8.9 1.8.9 2.9v8.6c0 .9-.1 1.8-.4 2.7-1 3.2-3.1 4.7-6.4 4.6zm20.4 0c-1.7.1-3.4-.4-4.9-1.3a5.2 5.2 0 0 1-2.1-4.5c0-.9.3-1.7.7-2.5V71h3.2l-.1.2-.6 2.4c0 2 1.2 3 3.6 3 1 .1 2-.3 2.8-1a4 4 0 0 0 .8-2.8c.1-.7-.2-1.5-.7-2-.7-.5-1.6-.7-2.4-.6h-.2v-3h.2c2.1 0 3.1-.9 3.1-2.6s-.6-2.5-1.9-2.5-1.9 1-1.9 3c0 1.5-.7 2.9-1.8 3.9a5.3 5.3 0 0 1-4 1.4c-1.5 0-3-.5-4.1-1.6a5.1 5.1 0 0 1-1.6-4c-.1-1.5.6-3 1.8-4 1.1-1 2.6-1.5 4.1-1.5 1.6-.1 3.1.5 4.2 1.6a5 5 0 0 1 4-1.6c1.4 0 2.7.6 3.5 1.7.8 1 1.2 2.3 1.1 3.6.1 1.6-.6 3.1-1.9 4 1.4 1 2.1 2.6 1.9 4.2.1 1.8-.6 3.5-1.8 4.8a6.4 6.4 0 0 1-5 1.8zM156 62.2c-1.3-.1-2.5.9-2.6 2.2v.3c0 2.1.9 3.1 2.7 3.1 1.6 0 2.3-1 2.3-3.1 0-.6-.1-1.2-.5-1.7a2 2 0 0 0-1.9-.8zm34.3 16.7h-3.6v-.2a3.5 3.5 0 0 0-2.2-3c-1.8-.6-3.7-.9-5.6-.8h-7.6V72h1.2a8.6 8.6 0 0 1-2-5.9c0-1.5.3-3.1 1.1-4.4a4.4 4.4 0 0 1 4.1-2.3 4 4 0 0 1 3 1.3c.9-.9 2.1-1.4 3.3-1.3 1.2 0 2.3.5 3.1 1.4.8-1 2.1-1.5 3.3-1.4 1.3 0 2.6.5 3.4 1.6.8.9 1.3 2.2 1.3 3.4-.1 1.7-.6 3.4-1.5 4.9l-.1.1h-3.6l.2-.3c1-1.4 1.6-3.1 1.6-4.8 0-.6-.1-1.1-.5-1.6-.2-.4-.7-.7-1.1-.7-1 0-1.6.7-1.6 2.2v3.2h-3.3v-3.2c0-1.5-.5-2.2-1.5-2.2-.5 0-.9.2-1.2.5-.3.4-.5.8-.4 1.3v3.6h-3.3V64c0-2-.9-2-1.2-2-1.3 0-1.9 1.3-1.9 4 0 3.4 1.3 5.3 3.9 5.7l5.3.6c1.7.2 3.4.7 4.9 1.6a6.3 6.3 0 0 1 2.6 4.7l-.1.3zm9.3.6a6 6 0 0 1-4.2-1.5 5.2 5.2 0 0 1-1.7-3.9 7 7 0 0 1 1.5-3.9l.1-.1h3.8l-.2.3c-1 1-1.6 2.2-1.8 3.6 0 .7.2 1.5.8 2a3 3 0 0 0 2 .8c1.9 0 2.8-1.2 2.8-3.8v-8.1c.1-.7-.1-1.5-.5-2.1-.5-.5-1.2-.7-1.9-.7a2 2 0 0 0-2.1 2.1c.1 1 .3 1.9.9 2.7l.1.2h-3.5V67c-.5-.9-.7-1.8-.7-2.8 0-1.4.6-2.7 1.6-3.5 1-.8 2.3-1.3 3.7-1.2 1.4 0 2.7.4 3.8 1.3 1.1.9 1.7 2.2 1.6 3.6v8.9c.1 1.7-.5 3.3-1.6 4.5a6 6 0 0 1-4.5 1.7zm14.5-7.5a7 7 0 0 1-4.6-1.6 5.3 5.3 0 0 1-1.9-4.4c0-1.6.6-3.1 1.6-4.2a7 7 0 0 1 3.8-2.2v-3.7h-2.4c-1.6 0-1.9-.9-1.9-1.6v-2.8h3.2V53h4.4l-.3 6.7c1.3.5 2.4 1.4 3.2 2.4a6.2 6.2 0 0 1 1.4 3.9c0 1.7-.7 3.3-2 4.4a6.5 6.5 0 0 1-4.5 1.6zm0-9.8c-.9.2-1.7.6-2.3 1.3-.6.7-.9 1.6-.9 2.5 0 .9.3 1.7.9 2.3a3.3 3.3 0 0 0 5.5-2.4c0-.9-.3-1.8-.9-2.5a4 4 0 0 0-2.3-1.2zm13.8 9.8c-1.4 0-2.7-.4-3.9-1.1a4.2 4.2 0 0 1-1.9-3.5c0-.9.3-1.8.7-2.6l.1-.1h3.5l-.1.3c-.4.7-.7 1.6-.8 2.4 0 .5.2 1.1.6 1.4.5.4 1.1.5 1.8.5s1.3-.2 1.9-.7c.5-.4.8-1.1.8-1.7 0-1-.5-1.9-1.3-2.4l-2.6-1.5a3.3 3.3 0 0 1-1.5-2.7l.2-1.5v-.1h3.3v.2l-.1 1c0 .4.2.8.5 1.1l1.2.7c1 .5 1.9 1.1 2.6 1.9.7.9 1.1 2 1.1 3.2 0 1.5-.6 3-1.8 3.9a9 9 0 0 1-4.3 1.3z" class="svg-logo__type"/>
</svg>
