<svg class="svg-logo" viewBox="0 0 161.3 80">
  <path d="M52 24.1c-6.9.8-8.8 7.9-14 14.1-6.9 8.2-17.1 4-17.1 4 6.9-.9 8.9-8 14.2-14.2 7-8.1 16.9-3.9 16.9-3.9zM27.1 36.2s8.6-6.8 4.9-16.9c-2.8-7.6-8.2-13-5.3-19.3 0 0-8.5 6.9-5 16.9 2.7 7.6 8.3 13 5.4 19.3zm-.5-1.5s.8-11.1-8.7-15.3C10.5 16.1 2.7 16.4 0 10c0 0-1.1 11 9 15.3 7.5 3.2 14.9 3 17.6 9.4zM15.3 53.3h19.3l4.5-9.1H15.3v9.1zM18.4 80H20l11.1-25.5H18.4V80z" class="svg-logo__avatar"/>
  <path d="M62.2 44.2c-2 .1-3.9-.4-5.7-1.3h-.1V38l.2.2 1.9 1.3c.9.4 2 .6 3 .6 1.3.1 2.6-.3 3.6-1.1.9-.7 1.5-1.7 1.7-2.8h-7.3v-3.7h7.2c-.2-1-.7-1.8-1.5-2.5-1-.8-2.3-1.3-3.7-1.2-1 0-2.1.2-3 .7l-1.9 1.3-.2.2v-5h.1c1.7-.9 3.5-1.4 5.4-1.4a9 9 0 0 1 9.7 8.3v1.4c.1 2.7-.9 5.4-2.7 7.3a8.7 8.7 0 0 1-6.7 2.6zm27.4-.4H84l-3.4-3.9-3.4 3.9h-5.7l6.3-6.9-5.1-5.8h5.6l2.3 2.8 2.3-2.8h5.6l-5.1 5.8 6.2 6.9zm7 .4c-2.1.1-4.1-.6-5.6-2a6.6 6.6 0 0 1 0-9.4c3.2-2.7 8-2.7 11.2 0a6.6 6.6 0 0 1 0 9.4 8 8 0 0 1-5.6 2zm0-9.8c-.8 0-1.6.3-2.2.8a3.3 3.3 0 0 0 0 4.5c.6.6 1.4.9 2.2.8.8 0 1.6-.3 2.2-.8a3.3 3.3 0 0 0 0-4.5c-.6-.5-1.4-.8-2.2-.8zm-23 37.3h-6l-6.5-7.9v8h-4.6V52.9h4.6v7.5l6.2-7.5H73l-7.8 8.9 8.4 9.9zm6.4.4c-1.8.1-3.6-.6-4.8-1.9a7 7 0 0 1-1.9-4.7c0-1.9.7-3.7 2-5.1a6.2 6.2 0 0 1 4.5-1.7 5 5 0 0 1 3.8 1.5V59H88v12.6h-4.3v-1.2a4.8 4.8 0 0 1-3.7 1.7zm.8-9.8a3 3 0 0 0-2.1.8 3 3 0 0 0-.9 2.2c0 .8.3 1.5.8 2.1a3.2 3.2 0 0 0 4.3.1c.6-.6 1-1.4.9-2.2 0-.8-.3-1.6-.9-2.2a3 3 0 0 0-2.1-.8zm17.7 9.4h-7.8V59h6.9c1.1-.1 2.3.2 3.2.8.7.6 1.1 1.6 1.1 2.5 0 .8-.2 1.5-.8 2.1l-.7.5c.6.2 1.1.4 1.5.8.6.6.9 1.4.9 2.2 0 .9-.3 1.8-1 2.5-1 .9-2.1 1.3-3.3 1.3zm-3.5-3h1.7a2 2 0 0 0 1.1-.3c.2-.2.4-.5.3-.9 0-.3-.1-.6-.3-.8-.4-.2-.8-.3-1.3-.3H95v2.3zm0-4.7h1.5l.9-.2c.3-.2.4-.5.4-.8 0-.3-.1-.6-.3-.8-.3-.2-.7-.2-1-.2H95v2zm23.6 7.7H113l-4-5.2v5.2h-4.3V59h4.3v4.7l3.9-4.7h5.4l-5.5 5.9 5.8 6.8zm6 .4c-1.8.1-3.6-.6-4.8-1.9a7 7 0 0 1-1.9-4.7c0-1.9.7-3.7 2-5.1a6.2 6.2 0 0 1 4.5-1.7 5 5 0 0 1 3.8 1.5V59h4.4v12.6h-4.3v-1.2a4.6 4.6 0 0 1-3.7 1.7zm.7-9.7a3 3 0 0 0-2.1.8 3 3 0 0 0-.9 2.2c0 .8.3 1.5.8 2.1a3.2 3.2 0 0 0 4.3.1 3.1 3.1 0 0 0 .1-4.4c-.6-.5-1.3-.8-2.2-.8zm14.3 9.7c-1.2 0-2.4-.2-3.5-.6-.8-.3-1.6-.8-2.3-1.3l-.1-.1 1.9-2.9.1.1 1.5 1c.6.2 1.2.4 1.9.4.5 0 1-.1 1.4-.3.3-.2.5-.5.5-.8 0-.3-.2-.6-.5-.7l-1.4-.2h-1.6v-3h1.3l1.5-.2c.3-.1.5-.4.5-.7 0-.3-.2-.6-.5-.7-.4-.2-.8-.2-1.2-.2-.6 0-1.1.1-1.6.3l-1.3.8-.1.1-1.7-2.9.1-.1 2.1-1c1-.3 2-.5 3-.5 1.1 0 3.2.2 4.4 1.3.7.6 1 1.5 1 2.4a3 3 0 0 1-.8 2.2l-.8.6c.5.2 1 .4 1.4.8.6.5.9 1.3.9 2.2 0 1-.4 2-1.1 2.7-1.2.9-2.6 1.3-5 1.3zm13.7 0c-1.8.1-3.6-.6-4.8-1.9a7 7 0 0 1-1.9-4.7c0-1.9.7-3.7 2-5.1a6.2 6.2 0 0 1 4.5-1.7c1.4-.1 2.9.5 3.9 1.5V59h4.4v12.6H157v-1.2a4.1 4.1 0 0 1-3.7 1.7zm.8-9.7a3 3 0 0 0-2.1.8 3 3 0 0 0-.9 2.2c0 .8.3 1.5.8 2.1a3.2 3.2 0 0 0 4.3.1 3.1 3.1 0 0 0 .1-4.4c-.6-.5-1.3-.8-2.2-.8z" class="svg-logo__type"/>
</svg>
