<svg class="svg-logo" viewBox="0 0 175.4 80">
  <path d="M52 24.1c-6.9.8-8.8 7.9-14 14.1-6.9 8.2-17.1 4-17.1 4 6.9-.9 8.9-8 14.2-14.2 7-8.1 16.9-3.9 16.9-3.9zM27.1 36.2s8.6-6.8 4.9-16.9c-2.8-7.6-8.2-13-5.3-19.3 0 0-8.5 6.9-5 16.9 2.7 7.6 8.3 13 5.4 19.3zm-.5-1.5s.8-11.1-8.7-15.3C10.5 16.1 2.7 16.4 0 10c0 0-1.1 11 9 15.3 7.5 3.2 14.9 3 17.6 9.4zM15.3 53.3h19.3l4.5-9.1H15.3v9.1zM18.4 80H20l11.1-25.5H18.4V80z" class="svg-logo__avatar"/>
  <path d="M71.5 44.1h-4.8l-1.4-3.5h-6.9L57 44.1h-4.8l.1-.2 7.6-18.5H64l7.5 18.7zm-11.8-7H64l-2.1-5.7-2.2 5.7zm18.4 7.4c-1.2 0-2.4-.2-3.5-.6-.8-.3-1.6-.8-2.3-1.3l-.1-.1 1.9-2.9.1.1 1.5 1c.6.2 1.2.4 1.9.4.5 0 1-.1 1.4-.3.3-.2.5-.5.5-.8 0-.3-.2-.6-.5-.7l-1.4-.2H76v-3h1.3l1.5-.2c.3-.1.5-.4.5-.7 0-.3-.2-.6-.5-.7-.4-.2-.8-.2-1.2-.2-.6 0-1.1.1-1.6.3l-1.3.8-.1.1-1.7-2.9.1-.1 2.1-1c1-.3 2-.5 3-.5 1.1 0 3.2.2 4.4 1.3.7.6 1 1.5 1 2.4.1.8-.2 1.6-.8 2.2l-.8.6 1.4.8c.6.5.9 1.3.8 2.1 0 1-.4 2-1.2 2.7-1.1 1-2.4 1.4-4.8 1.4zm14 0c-1.8.1-3.6-.6-4.8-1.9a7 7 0 0 1-1.9-4.7c0-1.9.7-3.7 2-5.1a6.2 6.2 0 0 1 4.5-1.7c1.4-.1 2.8.5 3.8 1.6v-1.2h4.3v12.6h-4.3v-1.2a4.1 4.1 0 0 1-3.6 1.6zm.8-9.7a3 3 0 0 0-2.1.8c-.6.6-.9 1.3-.9 2.1s.3 1.5.8 2.1a3.2 3.2 0 0 0 4.3.1c1.2-1.2 1.3-3.2.1-4.4-.6-.4-1.4-.7-2.2-.7zm16.2 9.3h-4.3V35h-3.4v-3.5h11.1V35h-3.4v9.1zm12.3 0H117V35h-3.4v-3.5h11.1V35h-3.4l.1 9.1zm21.5 0h-4.3V31.5h4.3v12.6zm-10.1 0H126V31.5h4.3v4.2h2.7c1.3-.1 2.6.3 3.5 1.2a4 4 0 0 1 1.1 2.9c.1 1.2-.4 2.3-1.2 3.2-1 .8-2.3 1.2-3.6 1.1zm-2.5-3.1h1.5l1.2-.3c.2-.2.4-.5.4-.8a1 1 0 0 0-.4-.8 2 2 0 0 0-1.1-.3h-1.6V41zm28.9 3.1h-5.6l-4.1-5.2v5.2h-4.3V31.5h4.3v4.7l3.9-4.7h5.4l-5.5 5.9 5.9 6.7zM63.5 69.3h-4.6v-8.7l-6.9-10h5.5l3.7 5.6 3.7-5.6h5.5l-6.9 10v8.7zm19.2 0h-4.3v-4.8h-4.3v4.8h-4.4V56.7H74V61h4.3v-4.3h4.3l.1 12.6zm8.3.4c-1.8.1-3.6-.6-4.8-1.9a7 7 0 0 1-1.9-4.7c0-1.9.7-3.7 2-5.1a6.2 6.2 0 0 1 4.5-1.7 5 5 0 0 1 3.8 1.5v-1.1h4.3v12.6h-4.3v-1.2c-.9 1-2.2 1.7-3.6 1.6zm.8-9.7a3 3 0 0 0-2.1.8c-.6.6-.9 1.3-.9 2.1s.3 1.5.8 2.1a3.2 3.2 0 0 0 4.3.1 3.1 3.1 0 0 0 .1-4.4c-.7-.4-1.5-.7-2.2-.7zm29.7 9.3h-4.3V56.7h8.8v3.5h-4.4v9.1zm22.8 0H140V56.7h4.3v12.6zm-10.1 0h-6.9V56.7h4.3v4.2h2.7c1.3-.1 2.6.3 3.5 1.2.7.8 1.1 1.8 1.1 2.9.1 1.2-.3 2.3-1.2 3.1-1 .9-2.2 1.3-3.5 1.2zm-2.6-3.1h1.5a2 2 0 0 0 1.1-.3c.2-.2.4-.5.4-.8 0-.3-.1-.6-.3-.8a2 2 0 0 0-1.1-.3h-1.6v2.2zm21.5 3.5c-1.9.1-3.7-.6-5-1.9-1.3-1.3-2-3-2-4.8 0-1.9.7-3.7 2.1-5a6.8 6.8 0 0 1 4.9-1.8c1.1 0 2.2.2 3.2.7h.1v4l-.2-.2a4 4 0 0 0-2.6-.9c-.8 0-1.6.3-2.2.8-.6.6-.9 1.4-.9 2.2 0 .8.3 1.5.8 2.1.6.6 1.5 1 2.4 1 .9 0 1.8-.3 2.5-.9l.2-.2v4h-.1c-1 .7-2.1.9-3.2.9zm22.3-.4h-4.3V56.7h4.3v12.6zm-10.2 0h-6.9V56.7h4.3v4.2h2.7c1.3-.1 2.5.3 3.5 1.2.8.8 1.2 1.8 1.1 2.9.1 1.2-.3 2.3-1.2 3.1-.9.9-2.2 1.3-3.5 1.2zm-2.5-3.1h1.5a2 2 0 0 0 1.1-.3c.2-.2.4-.5.4-.8 0-.3-.1-.6-.3-.8a2 2 0 0 0-1.1-.3h-1.6v2.2zm-47.1 3.2H111l-3-6.4-3 6.4h-4.7l6.4-12.6h2.7v.1l6.2 12.5z" class="svg-logo__type"/>
</svg>
