<svg class="svg-logo" viewBox="0 0 161.2 80">
  <path d="M52 24.1c-6.9.8-8.8 7.9-14 14.1-6.9 8.2-17.1 4-17.1 4 6.9-.9 8.9-8 14.2-14.2 7-8.1 16.9-3.9 16.9-3.9zM27.1 36.2s8.6-6.8 4.9-16.9c-2.8-7.6-8.2-13-5.3-19.3 0 0-8.5 6.9-5 16.9 2.7 7.6 8.3 13 5.4 19.3zm-.5-1.5s.8-11.1-8.7-15.3C10.5 16.1 2.7 16.4 0 10c0 0-1.1 11 9 15.3 7.5 3.2 14.9 3 17.6 9.4zM15.3 53.3h19.3l4.5-9.1H15.3v9.1zM18.4 80H20l11.1-25.5H18.4V80z" class="svg-logo__avatar"/>
  <path d="M61.1 44.1h-4.6V25.4h6.8a7 7 0 0 1 5 1.6c1.3 1.2 2 2.9 1.9 4.6.1 1.7-.5 3.3-1.6 4.5a6.7 6.7 0 0 1-4.9 1.7h-2.5v6.3zm0-10.2h1.4c.8.1 1.6-.2 2.3-.7.4-.5.7-1.1.7-1.7 0-.6-.2-1.2-.7-1.7-.7-.5-1.5-.7-2.3-.7h-1.3v4.8zm16.2 10.6c-1.8.1-3.6-.6-4.8-1.9a7 7 0 0 1-1.9-4.7c0-1.9.7-3.7 2-5.1a6.1 6.1 0 0 1 4.4-1.7c1.4-.1 2.8.5 3.8 1.6v-1.1h4.3v12.6h-4.3V43c-.8 1-2.1 1.6-3.5 1.5zm.8-9.7a3 3 0 0 0-2.1.8c-.7.6-1 1.4-1 2.2 0 .8.3 1.6.8 2.1a3.2 3.2 0 0 0 4.3.1c.6-.6 1-1.4 1-2.2 0-.8-.3-1.6-.9-2.2-.6-.5-1.3-.8-2.1-.8zm25 12.8h-3.9v-3.5h-8.4v3.5H87v-6.8h.1c.6-.1 1.2-.3 1.6-.8 1-.9 1.1-2.2 1.1-3.6v-4.9h11.4v9.3h1.9v6.8zm-10.5-6.8h4.3v-6h-3.1V37c0 .8-.1 1.6-.3 2.3-.1.6-.5 1.1-.9 1.5zm25.7 3.3H114v-6.9l-5.2 6.9h-4V31.5h4.3v6.8l5.2-6.8h4v12.6zm9.4.4a8 8 0 0 1-5.7-2 6.6 6.6 0 0 1 0-9.4c3.3-2.7 8-2.7 11.3 0a6.6 6.6 0 0 1 .1 9.3l-.1.1a7.6 7.6 0 0 1-5.6 2zm0-9.8c-.8 0-1.6.3-2.2.8a3.3 3.3 0 0 0 0 4.5c.6.6 1.4.9 2.2.8.8 0 1.6-.3 2.2-.8a3.3 3.3 0 0 0 0-4.5c-.6-.5-1.4-.8-2.2-.8zm-54 36.6h-4.8l-1.4-3.5h-6.9l-1.4 3.5h-4.8l.1-.2L62 52.6h4.2l7.5 18.7zm-11.7-7h4.3l-2.2-5.7-2.1 5.7zm18.4 7.5c-1.2 0-2.4-.2-3.5-.6-.8-.3-1.6-.8-2.3-1.3l-.1-.1 1.9-2.9.1.1 1.5 1c.6.2 1.2.4 1.9.4.5 0 1-.1 1.4-.3.3-.2.5-.5.5-.8 0-.3-.2-.6-.5-.7l-1.4-.2h-1.7v-3h1.3c.5 0 1 0 1.5-.2.3-.1.5-.4.5-.7 0-.3-.2-.6-.5-.7l-1.2-.2c-.6 0-1.1.1-1.6.3l-1.3.8-.1.1-1.8-2.9.1-.1 2.1-1c1-.3 2-.5 3-.5 1.1 0 3.2.2 4.4 1.3.7.6 1 1.5 1 2.4.1.8-.2 1.6-.8 2.2l-.8.6c.5.2 1 .4 1.4.8.6.5.9 1.3.9 2.2 0 1-.4 2-1.1 2.7-1.1.9-2.5 1.3-4.8 1.3zm14 0c-1.8.1-3.6-.6-4.8-1.9a7 7 0 0 1-1.9-4.7c0-1.9.7-3.7 2-5.1a6.2 6.2 0 0 1 4.5-1.7 5 5 0 0 1 3.8 1.5v-1.1h4.3v12.6H98v-1.2c-.9 1-2.2 1.6-3.6 1.6zm.8-9.8a3 3 0 0 0-2.1.8c-.6.6-.9 1.3-.9 2.1s.3 1.5.8 2.1a3.2 3.2 0 0 0 4.3.1 3.1 3.1 0 0 0 .1-4.4c-.7-.4-1.4-.7-2.2-.7zm16.1 9.3H107v-9.1h-3.4v-3.5h11.1v3.5h-3.4v9.1zm12.2 0h-4.3v-9.1h-3.4v-3.5h11.1v3.5h-3.4v9.1zm21.6 0h-4.3V58.7h4.3v12.6zm-10.1 0h-6.9V58.7h4.4V63h2.7c1.3-.1 2.5.3 3.5 1.2a4 4 0 0 1 1.1 2.9c.1 1.2-.4 2.3-1.2 3.2a4.8 4.8 0 0 1-3.6 1zm-2.5-3.1h1.5a2 2 0 0 0 1.1-.3c.2-.2.4-.5.4-.8 0-.3-.1-.6-.3-.8a2 2 0 0 0-1.1-.3h-1.6v2.2zm28.7 3.1h-5.6v-.1l-4-5.2v5.2h-4.3V58.7h4.3v4.7l3.9-4.7h5.4l-5.5 5.9 5.8 6.7z" class="svg-logo__type"/>
</svg>
