<svg class="svg-logo" viewBox="0 0 272.1 80">
  <path d="M52 24.1c-6.9.8-8.8 7.9-14 14.1-6.9 8.2-17.1 4-17.1 4 6.9-.9 8.9-8 14.2-14.2 7-8.1 16.9-3.9 16.9-3.9zM27.1 36.2s8.6-6.8 4.9-16.9c-2.8-7.6-8.2-13-5.3-19.3 0 0-8.5 6.9-5 16.9 2.7 7.6 8.3 13 5.4 19.3zm-.5-1.5s.8-11.1-8.7-15.3C10.5 16.1 2.7 16.4 0 10c0 0-1.1 11 9 15.3 7.5 3.2 14.9 3 17.6 9.4zM15.3 53.3h19.3l4.5-9.1H15.3v9.1zM18.4 80H20l11.1-25.5H18.4V80z" class="svg-logo__avatar"/>
  <path d="M61 44h-4.6V25.3h6.8c1.8-.1 3.6.4 5 1.5 1.3 1.2 2 2.9 1.9 4.6.1 1.6-.5 3.2-1.7 4.4a6.7 6.7 0 0 1-4.9 1.7H61V44zm0-10.2h1.4c.8.1 1.6-.2 2.3-.7.4-.5.7-1.1.7-1.7 0-.6-.2-1.2-.7-1.7-.7-.5-1.5-.7-2.3-.6H61v4.7zm16.1 10.7c-1.8.1-3.6-.6-4.8-1.9a7 7 0 0 1-1.9-4.7c0-1.9.7-3.7 2-5.1a6.2 6.2 0 0 1 4.5-1.7 5 5 0 0 1 3.8 1.5v-1.1H85V44h-4.3v-1.2a4.6 4.6 0 0 1-3.6 1.7zm.8-9.8a3 3 0 0 0-2.1.8 3 3 0 0 0-.9 2.2c0 .8.3 1.5.8 2.1a3.2 3.2 0 0 0 4.3.1 3.1 3.1 0 0 0 .1-4.4c-.7-.5-1.4-.8-2.2-.8zm24.9 12.8h-3.9V44h-8.4v3.5h-3.9v-6.8h.1c.6-.1 1.2-.3 1.7-.7 1-.9 1.1-2.2 1.1-3.6v-4.9h11.4v9.3h1.9v6.7zm-10.5-6.8h4.3v-6h-3.1V37c0 .8-.1 1.6-.3 2.3-.2.5-.5 1-.9 1.4zm25.8 3.3h-4.3v-6.9l-5.2 6.9h-4V31.4h4.3v6.8l5.2-6.8h4V44zm9.7.5a8 8 0 0 1-5.7-2 6.6 6.6 0 0 1 0-9.4c3.3-2.7 8-2.7 11.3 0a6.6 6.6 0 0 1 .1 9.3l-.1.1a8.7 8.7 0 0 1-5.6 2zm0-9.8c-.8 0-1.6.3-2.2.8-.6.6-.9 1.4-.9 2.2 0 .8.3 1.6.9 2.2.6.6 1.4.9 2.2.8.8 0 1.6-.3 2.2-.8a3.3 3.3 0 0 0 0-4.5c-.6-.4-1.4-.8-2.2-.7zm26.1 9.8c-2.8.1-5.5-.9-7.5-2.7a10 10 0 0 1-.2-14l.2-.2c1.9-1.8 4.5-2.7 7.1-2.7 1.6 0 3.1.4 4.6 1h.1v5.4l-.2-.3a6 6 0 0 0-4.3-1.9 6 6 0 0 0-3.8 1.4 5.9 5.9 0 0 0-1.7 4.2c-.1 1.5.5 2.9 1.6 4a6 6 0 0 0 8.2-.3l.2-.2v5.3h-.1c-1.2.6-2.7 1-4.2 1zm8-.3l-1.6-.2h-.1v-3.5h.2l.7.1c.4 0 .8-.1 1.1-.4.4-.6.5-1.2.5-1.9v-7h11.5V44h-4.3v-9.1h-3v3.7c.1 1.5-.3 3.1-1.3 4.3a5 5 0 0 1-3.7 1.3zm21.6.3c-2.1.1-4.1-.6-5.6-2a6.6 6.6 0 0 1 0-9.4c3.2-2.7 8-2.7 11.2 0a6.6 6.6 0 0 1 0 9.4 8.5 8.5 0 0 1-5.6 2zm0-9.8c-.8 0-1.6.3-2.2.8a3.3 3.3 0 0 0 0 4.5c.6.6 1.4.9 2.2.8a3 3 0 0 0 3-3.2c0-.8-.3-1.5-.9-2.1-.5-.6-1.3-.9-2.1-.8zm16.5 9.8c-1.9.1-3.8-.6-5.3-1.9-2.3-2.2-2.3-5.4-2.3-6.5 0-2.2.3-6.1 2.5-8.4 1.3-1.2 2.9-2 4.6-2.2l1-.2c.8-.1 1.7-.4 2.4-.9.2-.2.3-.4.3-.7v-.1h3.8v.1a5.4 5.4 0 0 1-1.6 3.3c-.9.8-2 1.3-3.1 1.5l-1.7.5c-1.1.2-2.2.7-3.1 1.3-.7.6-1.1 1.4-1.2 2.3a5.6 5.6 0 0 1 4.3-1.6c1.8-.1 3.6.6 5 1.8a6.7 6.7 0 0 1-.2 9.6 7.6 7.6 0 0 1-5.4 2.1zm0-9.8c-.8 0-1.6.3-2.2.8-.6.6-.9 1.4-.9 2.2 0 .8.3 1.6.9 2.2.6.6 1.4.9 2.2.8a3 3 0 0 0 2-.8c.6-.6 1-1.5 1-2.3 0-.8-.3-1.5-.9-2.1a3 3 0 0 0-2.1-.8zm16.6 9.8c-2.1.1-4.1-.6-5.6-2a6.6 6.6 0 0 1 0-9.4c3.2-2.7 8-2.7 11.2 0a6.6 6.6 0 0 1 0 9.4 8.4 8.4 0 0 1-5.6 2zm0-9.8c-.8 0-1.6.3-2.2.8a3.3 3.3 0 0 0 0 4.5c.6.6 1.4.9 2.2.8 1.7 0 3.1-1.5 3.1-3.2 0-.8-.3-1.6-.9-2.1-.6-.6-1.5-.9-2.2-.8zM241 47.5h-3.9V44h-8.3v3.5h-3.9v-6.8h.1a3 3 0 0 0 1.6-.7c1-.9 1.1-2.2 1.1-3.6v-4.9h11.4v9.3h1.9v6.7zm-10.5-6.8h4.3v-6h-3.1V37c0 .8-.1 1.6-.3 2.3-.2.5-.5 1-.9 1.4zm25.4 3.3h-4.3v-4.8h-4.3V44h-4.4V31.4h4.4v4.3h4.3v-4.3h4.3V44zm8.3.5c-1.8.1-3.6-.6-4.8-1.9a7 7 0 0 1-1.9-4.7c0-1.9.7-3.7 2-5.1a5.8 5.8 0 0 1 4.5-1.7 5 5 0 0 1 3.8 1.5v-1.1h4.3V44h-4.3v-1.2a4.6 4.6 0 0 1-3.6 1.7zm.8-9.8a3 3 0 0 0-2.1.8 3 3 0 0 0-.9 2.2c0 .8.3 1.5.8 2.1a3.2 3.2 0 0 0 4.3.1 3.1 3.1 0 0 0 .1-4.4c-.7-.5-1.4-.8-2.2-.8zM67.3 72H56.4V53.2h10.9v3.9H61v3.3h6v3.9h-6v3.8h6.3V72zm9.8 0h-7.8V59.3h6.9c1.1-.1 2.3.2 3.2.8.7.6 1.1 1.6 1.1 2.5 0 .8-.2 1.5-.8 2.1l-.7.5c.6.2 1.1.4 1.5.8.6.6.9 1.4.9 2.2 0 .9-.3 1.8-1 2.5-.9.9-2.1 1.4-3.3 1.3zm-3.4-3h1.7a2 2 0 0 0 1.1-.3c.2-.2.4-.5.3-.9 0-.3-.1-.6-.3-.8-.4-.2-.8-.3-1.3-.3h-1.5V69zm0-4.8h1.5l1-.2c.3-.2.4-.5.4-.8 0-.3-.1-.6-.3-.8-.3-.2-.7-.2-1-.2h-1.6v2zm13.8 14h-4.3v-19h4.3v1.2a5 5 0 0 1 3.8-1.7c1.7 0 3.3.6 4.6 1.8 1.3 1.3 2 3.1 1.9 4.9a7 7 0 0 1-2 5.1 5.6 5.6 0 0 1-4.4 1.7c-1.5.1-2.9-.5-3.9-1.6v7.6zm2.8-15.6c-.8 0-1.6.3-2.2.9-.6.6-.9 1.4-.9 2.2 0 .8.3 1.5.9 2.1.6.6 1.4.9 2.2.9.8 0 1.5-.3 2.1-.8.6-.6.9-1.4.9-2.2 0-.8-.3-1.6-.9-2.2-.6-.6-1.3-.9-2.1-.9zm16.5 9.7c-2.1.1-4.1-.6-5.6-2a6.6 6.6 0 0 1 0-9.4c3.2-2.7 8-2.7 11.2 0a6.6 6.6 0 0 1 0 9.4 8 8 0 0 1-5.6 2zm0-9.8c-.8 0-1.6.3-2.2.8a3.3 3.3 0 0 0 0 4.5c.6.6 1.4.9 2.2.8.8 0 1.6-.3 2.2-.8a3.3 3.3 0 0 0 0-4.5c-.6-.5-1.4-.8-2.2-.8zm22.4 9.5h-4.3v-9.2h-4.1V72h-4.3V59.3h12.8V72zm8.3.4c-1.8.1-3.6-.6-4.8-1.9a7 7 0 0 1-1.9-4.7c0-1.9.7-3.7 2-5.1a6.2 6.2 0 0 1 4.5-1.7c1.4-.1 2.8.5 3.8 1.6v-1.2h4.3V72h-4.3v-1.2c-.9 1-2.2 1.6-3.6 1.6zm.8-9.7a3 3 0 0 0-2.1.8c-.6.6-.9 1.3-.9 2.1s.3 1.5.8 2.1a3.2 3.2 0 0 0 4.3.1c.6-.6 1-1.4.9-2.2 0-.8-.3-1.6-.9-2.2-.6-.4-1.3-.7-2.1-.7z" class="svg-logo__type"/>
</svg>
