<svg class="svg-logo" viewBox="0 0 223.6 80">
  <path d="M52 24.1c-6.9.8-8.8 7.9-14 14.1-6.9 8.2-17.1 4-17.1 4 6.9-.9 8.9-8 14.2-14.2 7-8.1 16.9-3.9 16.9-3.9zM27.1 36.2s8.6-6.8 4.9-16.9c-2.8-7.6-8.2-13-5.3-19.3 0 0-8.5 6.9-5 16.9 2.7 7.6 8.3 13 5.4 19.3zm-.5-1.5s.8-11.1-8.7-15.3C10.5 16.1 2.7 16.4 0 10c0 0-1.1 11 9 15.3 7.5 3.2 14.9 3 17.6 9.4zM15.3 53.3h19.3l4.5-9.1H15.3v9.1zM18.4 80H20l11.1-25.5H18.4V80z" class="svg-logo__avatar"/>
  <path d="M60.9 37.2l4.8 7v.1h5.7l-5.8-7.6c.9-.3 1.8-.7 2.5-1.4a5 5 0 0 0 1.5-3.9c.1-1.6-.5-3.2-1.6-4.3a6.8 6.8 0 0 0-4.9-1.6h-6.7v18.8H61v-7.1zm0-8.2h.9c.8-.1 1.6.1 2.3.6.5.4.9 1.1.8 1.8 0 .6-.2 1.2-.7 1.7-.7.6-1.6.8-2.5.8h-.9V29zM78 44.6c1.4.1 2.7-.5 3.6-1.6v1.2H86V31.5h-4.4v1.1c-1-1-2.4-1.6-3.8-1.6-1.7 0-3.3.6-4.5 1.7a7.4 7.4 0 0 0-2 5.1c0 1.8.6 3.5 1.9 4.7 1.2 1.5 3 2.2 4.8 2.1zm-1.3-8.9c.6-.5 1.4-.9 2.2-.8.8 0 1.6.3 2.2.8a3.1 3.1 0 0 1 0 4.4l-.1.1a3.2 3.2 0 0 1-4.3-.1c-.5-.6-.8-1.3-.8-2.1-.1-1 .2-1.8.8-2.3zm17.6 8.9c1.5.1 2.9-.5 3.9-1.7v1.2h4.3V23.6h-4.3v9c-1-1-2.4-1.6-3.8-1.6-1.7 0-3.3.6-4.5 1.7a6.6 6.6 0 0 0-2 5c0 1.9.7 3.7 2 5.1a5.8 5.8 0 0 0 4.4 1.8zm-1-9c.6-.5 1.3-.8 2.1-.8s1.6.3 2.2.9c.6.6.9 1.4.9 2.2 0 .8-.3 1.6-.9 2.1-.6.6-1.4.9-2.2.9a3 3 0 0 1-2-.8 3 3 0 0 1-1-2.2c-.1-.9.3-1.7.9-2.3zm12.4-4.1h4.3v12.7h-4.4l.1-12.7zm-.4-5.2c0-1.4 1.1-2.5 2.5-2.6 1.4 0 2.5 1.1 2.6 2.5 0 1.4-1.1 2.5-2.5 2.6-1.4.1-2.5-1-2.6-2.5 0 .1 0 .1 0 0zm14.5 18.3a8 8 0 0 0 5.7-2 6.6 6.6 0 0 0 0-9.4 8.9 8.9 0 0 0-11.3 0 6.6 6.6 0 0 0 0 9.4 8 8 0 0 0 5.6 2zm-2.3-9a3.3 3.3 0 0 1 4.4 0 3.3 3.3 0 0 1 0 4.5c-.6.6-1.4.9-2.2.8-.8 0-1.6-.3-2.2-.8a3.5 3.5 0 0 1 0-4.5zm18.9-10.3h11v3.9H141v3.3h6v3.9h-6v3.8h6.3v3.9h-11l.1-18.8zm21.9 6.2h4.4v7.4c.1 1.5-.4 3-1.5 4.1-1.1 1.1-2.8 1.7-5.2 1.7s-4-.5-5.2-1.7c-1-1-1.5-2.4-1.4-3.8v-7.6h4.4v7c-.1.7.2 1.4.7 1.9.4.4 1 .6 1.6.5.6 0 1.2-.2 1.6-.5.5-.5.7-1.2.6-1.9v-7.1zm25-.4a8 8 0 0 0-5.7 2 6.6 6.6 0 0 0 0 9.4 9 9 0 0 0 11.4 0 6.6 6.6 0 0 0 0-9.4 8 8 0 0 0-5.7-2zm2.3 9c-.6.6-1.4.9-2.2.8-.8 0-1.6-.3-2.2-.8a3.3 3.3 0 0 1 0-4.5 3.3 3.3 0 0 1 4.4 0 3.3 3.3 0 0 1 0 4.5zm15.4-9c-1.4 0-2.8.6-3.8 1.7v-1.2h-4.4v19h4.4V43c1 1.1 2.4 1.7 3.8 1.6 1.6.1 3.2-.5 4.4-1.7a7.3 7.3 0 0 0 .1-10 6.4 6.4 0 0 0-4.5-1.8zm1.1 9c-.6.5-1.3.8-2.1.8s-1.6-.3-2.2-.9c-.5-.6-.9-1.3-.9-2.1s.3-1.6.9-2.2c.6-.6 1.4-.9 2.2-.9.8 0 1.5.3 2.1.8.6.6.9 1.3.9 2.2 0 .8-.4 1.6-.9 2.3zm17.2-8.6v1.1c-1-1-2.4-1.6-3.8-1.6-1.7 0-3.3.6-4.5 1.7a7.4 7.4 0 0 0-2 5.1c0 1.8.7 3.5 1.9 4.7 1.2 1.3 3 2 4.8 1.9 1.4.1 2.7-.5 3.6-1.6V44h4.4V31.5h-4.4zm-.7 8.6a3.2 3.2 0 0 1-4.3-.1c-.5-.6-.8-1.3-.8-2.1s.3-1.6.9-2.2c.6-.6 1.3-.9 2.1-.8.8 0 1.6.3 2.2.8.6.6.9 1.4.9 2.2-.1.8-.4 1.6-1 2.2zM61 70h5.9v3.9H56.3V55H61v15zm7.8-8.8h4.4v12.6h-4.4V61.2zm4.7-5.2c0 1.4-1 2.6-2.4 2.6s-2.6-1-2.6-2.4 1-2.6 2.4-2.6h.1c1.4 0 2.5 1 2.5 2.4zm10.7 4.7c-1.4-.1-2.8.5-3.8 1.6v-9H76v20.5h4.3v-1.2c1 1.1 2.4 1.7 3.9 1.7 1.7.1 3.3-.6 4.4-1.7 1.3-1.4 2-3.2 2-5.1.1-1.9-.7-3.7-2-5a5.9 5.9 0 0 0-4.4-1.8zm1.1 9a3 3 0 0 1-2 .8c-.8 0-1.6-.3-2.2-.9-.6-.5-.9-1.3-.9-2.1s.3-1.6.8-2.2c.6-.6 1.4-.9 2.2-.9.8 0 1.5.3 2.1.8.6.6 1 1.4 1 2.3 0 .9-.4 1.7-1 2.2zm43.5-7.4a5 5 0 0 0-3.8-1.5c-1.7 0-3.3.6-4.5 1.7a7.4 7.4 0 0 0-2 5.1c0 1.8.6 3.5 1.9 4.7 1.2 1.3 3 2 4.8 1.9 1.4.1 2.7-.5 3.6-1.6v1.2h4.4V61.2h-4.4v1.1zm-.7 7.4a3.2 3.2 0 0 1-4.3-.1c-.5-.6-.8-1.3-.8-2.1s.3-1.6.9-2.2c.6-.5 1.4-.9 2.2-.8.8 0 1.6.3 2.2.8.6.6.9 1.4.9 2.2-.1.8-.5 1.6-1.1 2.2zm-2-12.9c.5 0 1-.2 1.4-.5.3-.3.5-.7.6-1.1v-.1h2.9v.2a4.6 4.6 0 0 1-1.3 2.9 5.9 5.9 0 0 1-7.3 0 4.6 4.6 0 0 1-1.3-2.9v-.2h2.9v.1c.1.4.3.8.6 1.1.4.3 1 .5 1.5.5zm47.2-25.6l1.3.2v4.2s-.4-.5-2.1-.6c-.7 0-1.4.2-1.9.8a4 4 0 0 0-.9 3.2v5.2h-4.5V31.5h4.5V33c.3-.5.8-.9 1.3-1.2.7-.4 1.5-.6 2.3-.6zm-57.1 29.7l1.3.2v4.2s-.4-.5-2.1-.6c-.7 0-1.4.2-1.9.8-.7.9-1 2-.9 3.2V74h-4.5V61.2h4.5v1.4c.3-.5.8-.9 1.3-1.2.7-.4 1.5-.6 2.3-.5zm-17.1-.1c-1.8-.1-3.6.6-5 1.8a7 7 0 0 0-2 5 7 7 0 0 0 2 4.9c1.4 1.3 3.3 2 5.2 1.8 1.4.1 2.9-.3 4.1-1a5.7 5.7 0 0 0 2.5-3.2l.2-.7h-4.3l-.1.1c-.2.4-.4.7-.8.9-.5.2-1 .4-1.5.3-.7.1-1.4-.2-1.9-.7-.4-.5-.7-1.1-.7-1.8h9.4v-.6c.1-1.9-.6-3.8-1.8-5.2a7.8 7.8 0 0 0-5.3-1.6zm-2.2 4.9a2.5 2.5 0 0 1 2.5-1.7c.7 0 1.3.2 1.8.6l.7 1.1h-5z" class="svg-logo__type"/>
</svg>
