<svg class="svg-logo" viewBox="0 0 249.4 80">
<g>
	<path class="svg-logo__avatar" d="M52,24.1c-6.9,0.8-8.8,7.9-14,14.1c-6.9,8.2-17.1,4-17.1,4c6.9-0.9,8.9-8,14.2-14.2C42.1,19.9,52,24.1,52,24.1z
		 M27.1,36.2c0,0,8.6-6.8,4.9-16.9c-2.8-7.6-8.2-13-5.3-19.3c0,0-8.5,6.9-5,16.9C24.4,24.5,30,29.9,27.1,36.2z M26.6,34.7
		c0,0,0.8-11.1-8.7-15.3c-7.4-3.3-15.2-3-17.9-9.4c0,0-1.1,11,9,15.3C16.5,28.5,23.9,28.3,26.6,34.7z M15.3,53.3h19.3l4.5-9.1H15.3
		V53.3z M18.4,80H20l11.1-25.5H18.4V80z"/>
	<g class="svg-logo__type">
		<g>
			<g>
				<g>
					<polygon points="147.5,44 136.7,44 136.7,25.4 147.5,25.4 147.5,29.3 141.3,29.3 141.3,32.6 147.2,32.6 147.2,36.4 141.3,36.4
						141.3,40.2 147.5,40.2 					"/>
				</g>
			</g>
			<g>
				<g>
					<path d="M156.1,44.5c-2.3,0-4-0.5-5.1-1.6c-1.2-1.2-1.4-2.5-1.4-3.8v-7.5h4.3v6.9c0,0.6,0.1,1.4,0.7,1.9
						c0.4,0.4,0.9,0.5,1.6,0.5c0.6,0,1.2-0.2,1.6-0.5c0.6-0.5,0.6-1.3,0.6-1.9v-6.9h4.3v7.3c0,1.3-0.1,2.7-1.4,4
						C160.1,43.9,158.4,44.5,156.1,44.5z"/>
				</g>
			</g>
			<path d="M188.7,33.1c-1.3-1.3-3.4-2-5.6-2s-4.3,0.7-5.6,2c-1.2,1.2-1.9,2.9-1.9,4.7c0,1.7,0.7,3.5,1.9,4.7c1.3,1.3,3.4,2,5.6,2
				s4.3-0.7,5.6-2c1.2-1.2,1.9-2.9,1.9-4.7C190.6,36,189.9,34.3,188.7,33.1z M185.3,40c-0.6,0.6-1.3,0.8-2.2,0.8
				c-0.9,0-1.7-0.3-2.2-0.8c-0.6-0.6-0.9-1.3-0.9-2.2s0.3-1.6,0.9-2.2c0.6-0.6,1.3-0.8,2.2-0.8c0.9,0,1.6,0.3,2.2,0.8
				c0.6,0.6,0.9,1.3,0.9,2.2S185.9,39.4,185.3,40z"/>
			<path d="M205,32.9c-0.8-0.8-2.3-1.8-4.5-1.8c-1.5,0-2.8,0.5-3.8,1.6v-1.2h-4.3v18.8h4.3v-7.4c0.9,1,2.2,1.6,3.8,1.6
				c1.8,0,3.1-0.5,4.3-1.7c1.3-1.3,2-3,2-5C207,35.8,206.3,34.1,205,32.9z M201.6,40c-0.5,0.5-1.3,0.8-2.1,0.8
				c-0.8,0-1.6-0.3-2.2-0.9c-0.5-0.6-0.9-1.3-0.9-2.1c0-0.8,0.3-1.6,0.9-2.2c0.4-0.4,1.1-0.9,2.1-0.9c0.8,0,1.5,0.3,2.1,0.8
				c0.6,0.5,0.9,1.3,0.9,2.1C202.5,38.5,202.2,39.4,201.6,40z"/>
			<path d="M218.6,31.5v1.1c-1.1-1.3-2.7-1.5-3.8-1.5c-1.7,0-3.3,0.6-4.4,1.7c-1.3,1.2-2,3.1-2,5c0,1.8,0.6,3.4,1.9,4.7
				c1.3,1.3,2.7,1.9,4.8,1.9c1.5,0,2.7-0.5,3.6-1.6V44h4.3V31.5H218.6z M217.9,40c-0.5,0.5-1.3,0.8-2,0.8c-0.9,0-1.7-0.3-2.3-0.9
				c-0.4-0.4-0.8-1.1-0.8-2.1c0-1,0.5-1.7,0.9-2.1c0.5-0.5,1.3-0.8,2.1-0.8c0.6,0,1.5,0.2,2.2,0.8c0.6,0.5,0.9,1.3,0.9,2.2
				C218.9,38.9,218.3,39.6,217.9,40z"/>
			<g>
				<g>
					<path d="M169.7,44.2h-4.4V31.5h4.4V33c0.4-0.5,0.8-0.9,1.3-1.2c0.6-0.4,1.3-0.6,2.3-0.6c0.5,0,1.3,0.2,1.3,0.2v4.2
						c0,0-0.4-0.5-2-0.6c-0.8,0-1.4,0.2-1.9,0.8c-0.8,0.8-0.9,2-0.9,3.2V44.2z"/>
				</g>
			</g>
		</g>
		<g>
			<g>
				<g>
					<polygon points="66.8,73.8 56.3,73.8 56.3,55.2 60.9,55.2 60.9,69.9 66.8,69.9 					"/>
				</g>
			</g>
			<g>
				<g>
					<rect x="68.6" y="61.2" width="4.3" height="12.5"/>
					<path d="M70.8,58.6c-1.4,0-2.5-1.1-2.5-2.4c0-1.4,1.1-2.4,2.5-2.4s2.5,1.1,2.5,2.4C73.3,57.5,72.2,58.6,70.8,58.6z"/>
				</g>
			</g>
			<path d="M88.3,62.5c-1.2-1.1-2.7-1.7-4.4-1.7c-1.5,0-2.9,0.5-3.8,1.5v-8.9h-4.3v20.3h4.3v-1.2c0.9,1.1,2.2,1.6,3.8,1.6
				c1.8,0,3.2-0.5,4.4-1.7c1.3-1.3,2-3,2-5C90.3,65.5,89.6,63.7,88.3,62.5z M85,69.7c-0.6,0.5-1.3,0.8-2,0.8c-0.8,0-1.6-0.3-2.2-0.9
				c-0.3-0.3-0.9-1-0.9-2.1c0-0.8,0.3-1.6,0.9-2.2c0.6-0.6,1.3-0.9,2.2-0.9c0.8,0,1.5,0.2,2.1,0.8c0.4,0.4,0.9,1.1,0.9,2.2
				C85.9,68.3,85.6,69.1,85,69.7z"/>
			<path d="M128,61.2v1.1c-1.1-1.3-2.7-1.5-3.8-1.5c-1.7,0-3.3,0.6-4.4,1.7c-1.3,1.2-2,3.1-2,5c0,1.8,0.6,3.4,1.9,4.7
				c1.3,1.3,2.7,1.9,4.8,1.9c1.5,0,2.7-0.5,3.6-1.6v1.2h4.3V61.2H128z M127.3,69.7c-0.5,0.5-1.3,0.8-2,0.8c-0.9,0-1.7-0.3-2.3-0.9
				c-0.4-0.4-0.8-1.1-0.8-2.1c0-1,0.5-1.7,0.9-2.1c0.5-0.5,1.3-0.8,2.1-0.8c0.6,0,1.5,0.2,2.2,0.8c0.6,0.5,0.9,1.3,0.9,2.2
				C128.2,68.6,127.7,69.3,127.3,69.7z"/>
			<path d="M125.3,59.6c-1.6,0-2.7-0.4-3.6-1.3c-0.7-0.8-1.2-1.8-1.3-2.9l0-0.1h2.9l0,0.1c0.1,0.5,0.3,0.9,0.6,1.1
				c0.4,0.4,1,0.5,1.4,0.5c0.4,0,1-0.1,1.4-0.5c0.2-0.2,0.5-0.5,0.5-1.1l0-0.1h2.9l0,0.1c-0.1,1.1-0.5,2.1-1.3,2.9
				C128.1,59.1,126.9,59.6,125.3,59.6z"/>
			<g>
				<g>
					<path d="M112,73.9h-4.4V61.3h4.4v1.4c0.4-0.5,0.8-0.9,1.3-1.2c0.6-0.4,1.3-0.6,2.3-0.6c0.5,0,1.3,0.2,1.3,0.2v4.2
						c0,0-0.4-0.5-2-0.6c-0.8,0-1.4,0.2-1.9,0.8c-0.8,0.8-0.9,2-0.9,3.2V73.9z"/>
				</g>
			</g>
			<path d="M105.5,67.9c0-2.2-0.6-3.8-1.8-5.1c-1.2-1.3-2.9-1.9-5.1-1.9c-2,0-3.7,0.6-4.9,1.8c-1.2,1.3-2,3.1-2,5
				c0,1.9,0.7,3.6,1.9,4.9c1.6,1.6,3.5,1.8,5.1,1.8c1.7,0,3-0.3,4.1-0.9c0.8-0.5,1.9-1.5,2.5-3.2l0.2-0.7l-4.3,0l-0.1,0.1
				c-0.3,0.7-0.8,0.9-0.8,0.9c-0.4,0.2-0.9,0.3-1.5,0.3c-0.9,0-1.5-0.2-1.9-0.7c-0.4-0.5-0.7-1.2-0.7-1.7h9.3V67.9z M96.4,65.7
				c0.1-0.4,0.3-0.7,0.6-1c0.5-0.5,1.1-0.7,1.9-0.7c0.7,0,1.3,0.2,1.8,0.6c0.4,0.3,0.6,0.8,0.7,1.1H96.4z"/>
		</g>
		<g>
			<polygon points="157.5,55.2 153,65.7 148.5,55.2 144.7,55.2 141.6,73.8 146.3,73.8 147.7,63.4 152.1,73.6 152.1,73.8 153.9,73.8
				158.3,63.4 159.7,73.8 164.4,73.8 161.4,55.2 			"/>
			<path d="M173.2,60.8c-2.2,0-4.3,0.7-5.6,2c-1.2,1.2-1.9,2.9-1.9,4.7c0,1.7,0.7,3.5,1.9,4.7c1.3,1.3,3.3,2,5.6,2
				c2.2,0,4.3-0.7,5.6-2c1.2-1.2,1.9-2.9,1.9-4.7c0-1.7-0.7-3.5-1.9-4.7C177.5,61.5,175.5,60.8,173.2,60.8z M175.3,69.6
				c-0.6,0.5-1.3,0.8-2.1,0.8c-0.9,0-1.6-0.3-2.1-0.8c-0.6-0.6-0.9-1.3-0.9-2.1c0-0.9,0.3-1.6,0.9-2.1c0.6-0.5,1.3-0.8,2.1-0.8
				c0.9,0,1.6,0.3,2.1,0.8c0.6,0.6,0.9,1.3,0.9,2.1C176.2,68.4,175.9,69.1,175.3,69.6z"/>
			<rect x="182.6" y="53.5" width="4.4" height="20.3"/>
			<path d="M199,62.2c-0.9-0.9-2.2-1.4-3.7-1.4c-1.7,0-3.3,0.6-4.5,1.7c-1.3,1.2-2,3-2,4.9c0,2,0.7,3.8,2,5c1.2,1.2,2.6,1.7,4.4,1.7
				c1.6,0,2.8-0.5,3.7-1.5v1.1h4.4V53.5H199V62.2z M198.4,65.4c0.6,0.6,0.8,1.3,0.8,2.1c0,1.1-0.5,1.7-0.9,2
				c-0.6,0.5-1.4,0.8-2.1,0.8c-0.7,0-1.4-0.3-2-0.8c-0.6-0.5-0.9-1.3-0.9-2.1c0-1.1,0.5-1.8,0.9-2.2h0c0.6-0.5,1.2-0.8,2-0.8
				C197.1,64.6,197.8,64.8,198.4,65.4z"/>
			<path d="M212.7,60.8c-2.2,0-4.3,0.7-5.6,2c-1.2,1.2-1.9,2.9-1.9,4.7c0,1.7,0.7,3.5,1.9,4.7c1.3,1.3,3.3,2,5.6,2
				c2.2,0,4.3-0.7,5.6-2c1.2-1.2,1.9-2.9,1.9-4.7c0-1.7-0.7-3.5-1.9-4.7C216.9,61.5,214.9,60.8,212.7,60.8z M214.8,69.6
				c-0.6,0.5-1.3,0.8-2.1,0.8c-0.9,0-1.6-0.3-2.1-0.8c-0.6-0.6-0.9-1.3-0.9-2.1c0-0.9,0.3-1.6,0.9-2.1c0.6-0.5,1.3-0.8,2.1-0.8
				c0.9,0,1.6,0.3,2.1,0.8c0.6,0.6,0.9,1.3,0.9,2.1C215.6,68.4,215.4,69.1,214.8,69.6z"/>
			<polygon points="230.5,61.2 227.5,67.5 224.5,61.2 219.6,61.2 226.1,73.8 228.8,73.8 235.3,61.2 			"/>
			<path d="M245,61.2v1c-1.1-1.2-2.6-1.4-3.7-1.4c-1.7,0-3.3,0.6-4.5,1.7c-1.3,1.2-2,3.1-2,5.1c0,1.8,0.6,3.4,1.9,4.7
				c1.3,1.3,2.8,1.9,4.8,1.9c1.5,0,2.6-0.5,3.5-1.5v1.1h4.4V61.2H245z M245.2,67.5c0,1.1-0.5,1.8-0.9,2.1c-0.5,0.5-1.2,0.8-1.9,0.8
				c-0.8,0-1.7-0.3-2.2-0.9c-0.4-0.4-0.8-1-0.8-2c0-1,0.5-1.7,0.9-2.1c0.5-0.5,1.3-0.8,2.1-0.8c0.8,0,1.6,0.3,2.1,0.8
				C244.9,65.9,245.2,66.6,245.2,67.5z"/>
		</g>
		<g>
			<path d="M65.8,36.4c0.9-0.3,1.8-0.8,2.4-1.4c1-1,1.5-2.3,1.5-3.9c0-2.3-1.1-3.7-1.7-4.3c-0.8-0.8-2.4-1.7-4.9-1.7h-6.8V44H61
				v-6.8l4.8,6.8h5.8L65.8,36.4z M64.3,32.8c-0.7,0.7-1.7,0.7-2.5,0.7H61v-4.7h0.8c1,0,1.8,0.2,2.3,0.5c0.5,0.4,0.8,1,0.8,1.7
				C64.9,32,64.5,32.6,64.3,32.8z"/>
			<path d="M81.6,31.3v1c-1.1-1.2-2.6-1.4-3.8-1.4c-1.8,0-3.4,0.6-4.5,1.7c-1.3,1.3-2,3.1-2,5.1c0,1.9,0.6,3.5,1.9,4.8
				c1.3,1.3,2.8,1.9,4.9,1.9c1.5,0,2.7-0.5,3.5-1.5V44H86V31.3H81.6z M80.9,39.8c-0.5,0.5-1.2,0.8-2,0.8c-0.9,0-1.7-0.3-2.3-0.9
				c-0.4-0.4-0.8-1.1-0.8-2.1c0-1,0.5-1.7,0.9-2.1c0.5-0.5,1.3-0.8,2.1-0.8c0.8,0,1.6,0.3,2.1,0.8c0.6,0.5,0.9,1.3,0.9,2.1
				C81.8,38.7,81.3,39.4,80.9,39.8z"/>
			<path d="M98.1,23.4v8.9c-0.9-0.9-2.2-1.5-3.7-1.5c-1.7,0-3.3,0.6-4.5,1.7c-1.3,1.2-2,3-2,5c0,2,0.7,3.8,2,5.1
				c1.2,1.2,2.6,1.7,4.5,1.7c1.6,0,2.9-0.5,3.8-1.5V44h4.5V23.4H98.1z M97.4,39.8c-0.6,0.5-1.4,0.9-2.2,0.9c-0.7,0-1.4-0.3-2-0.8
				c-0.6-0.5-0.9-1.3-0.9-2.1c0-1.1,0.5-1.8,0.9-2.2c0.6-0.5,1.2-0.8,2-0.8c0.9,0,1.6,0.3,2.1,0.9c0.6,0.6,0.8,1.3,0.8,2.1
				C98.3,38.8,97.8,39.5,97.4,39.8z"/>
			<g>
				<g>
					<rect x="105.5" y="31.3" width="4.5" height="12.8"/>
					<path d="M107.8,28.8c-1.4,0-2.6-1.1-2.6-2.5c0-1.4,1.1-2.5,2.6-2.5c1.4,0,2.6,1.1,2.6,2.5C110.3,27.6,109.2,28.8,107.8,28.8z"
						/>
				</g>
			</g>
			<path d="M125.3,32.9c-1.3-1.3-3.4-2.1-5.7-2.1c-2.3,0-4.4,0.7-5.7,2.1c-1.2,1.2-2,3-2,4.7c0,1.8,0.7,3.5,2,4.7
				c1.3,1.3,3.4,2.1,5.7,2.1c2.3,0,4.4-0.7,5.7-2.1c1.2-1.2,2-3,2-4.7C127.3,35.9,126.6,34.1,125.3,32.9z M121.8,39.8
				c-0.6,0.5-1.3,0.8-2.1,0.8c-0.9,0-1.6-0.3-2.2-0.8c-0.6-0.6-0.9-1.3-0.9-2.2c0-0.9,0.3-1.6,0.9-2.2c0.6-0.5,1.3-0.8,2.2-0.8
				c0.9,0,1.6,0.3,2.2,0.8c0.6,0.6,0.9,1.3,0.9,2.2C122.7,38.6,122.4,39.3,121.8,39.8z"/>
		</g>
	</g>
</g>
</svg>
