<svg class="svg-logo" viewBox="0 0 148.5 80">
  <path d="M52 24.1c-6.9.8-8.8 7.9-14 14.1-6.9 8.2-17.1 4-17.1 4 6.9-.9 8.9-8 14.2-14.2 7-8.1 16.9-3.9 16.9-3.9zM27.1 36.2s8.6-6.8 4.9-16.9c-2.8-7.6-8.2-13-5.3-19.3 0 0-8.5 6.9-5 16.9 2.7 7.6 8.3 13 5.4 19.3zm-.5-1.5s.8-11.1-8.7-15.3C10.5 16.1 2.7 16.4 0 10c0 0-1.1 11 9 15.3 7.5 3.2 14.9 3 17.6 9.4zM15.3 53.3h19.3l4.5-9.1H15.3v9.1zM18.4 80H20l11.1-25.5H18.4V80z" class="svg-logo__avatar"/>
  <path d="M77.1 44.2h-4.6L71 33.5l-4.6 10.7h-1.7v-.1l-4.6-10.6-1.5 10.7H54l3.1-18.7H61l4.6 10.8 4.6-10.8H74v.1l3.1 18.6zm7.8.4c-1.8.1-3.6-.6-4.8-1.9a7 7 0 0 1-1.9-4.7c0-1.9.7-3.7 2-5.1a6.2 6.2 0 0 1 4.5-1.7c1.4-.1 2.8.5 3.8 1.6v-1.1h4.3v12.6h-4.3V43a4.5 4.5 0 0 1-3.6 1.6zm.8-9.8a3 3 0 0 0-2.1.8c-.6.6-.9 1.3-.9 2.1s.3 1.5.8 2.1a3.2 3.2 0 0 0 4.3.1c.6-.6 1-1.4 1-2.2 0-.8-.3-1.6-.9-2.2-.6-.4-1.4-.7-2.2-.7zm14 15.7h-4.3v-19h4.3v1.2c1-1.1 2.3-1.7 3.8-1.6 1.7 0 3.3.6 4.6 1.8 1.3 1.3 2 3.1 1.9 5a7 7 0 0 1-2 5 5.6 5.6 0 0 1-4.4 1.7 5 5 0 0 1-3.9-1.5v7.4zm2.8-15.7c-.8 0-1.6.3-2.2.9-.6.6-.9 1.4-.9 2.2 0 .8.3 1.5.9 2.1.6.6 1.4.9 2.2.9.8 0 1.5-.3 2.1-.8.6-.6.9-1.4.9-2.3 0-.8-.3-1.6-.9-2.1-.5-.6-1.3-.9-2.1-.9zm29.1 9.4h-19.8V31.5h4.3v9.1h3.4v-9.1h4.3v9.1h3.4v-9.1h4.3l.1 12.7zm9.3.4c-2.1.1-4.1-.6-5.6-2a6.6 6.6 0 0 1 0-9.4c3.2-2.7 8-2.7 11.2 0a6.6 6.6 0 0 1 0 9.4 8.5 8.5 0 0 1-5.6 2zm0-9.8c-.8 0-1.6.3-2.2.8a3.3 3.3 0 0 0 0 4.5c.6.6 1.4.9 2.2.8 1.7 0 3.1-1.5 3.1-3.2 0-.8-.3-1.6-.9-2.1-.5-.5-1.3-.8-2.2-.8zm-80 38.9h-4.6V55H63a7 7 0 0 1 5 1.6c1.3 1.1 2 2.8 1.9 4.6.1 1.6-.5 3.2-1.7 4.4a6.7 6.7 0 0 1-4.9 1.7h-2.5v6.4zm0-10.2h1.4a3 3 0 0 0 2.2-.7c.4-.5.7-1.1.7-1.7 0-.6-.2-1.3-.7-1.7-.7-.5-1.5-.7-2.3-.7h-1.3v4.8zM77 74.1c-1.8.1-3.6-.6-4.8-1.9a7 7 0 0 1-1.9-4.7c0-1.9.7-3.7 2-5.1a6.2 6.2 0 0 1 4.5-1.7 5 5 0 0 1 3.8 1.5v-1.1h4.3v12.6h-4.4v-1.2a4 4 0 0 1-3.5 1.6zm.8-9.7a3 3 0 0 0-2.1.8c-.6.6-.9 1.3-.9 2.1s.3 1.5.8 2.1a3.2 3.2 0 0 0 4.3.1c.6-.6 1-1.4 1-2.2 0-.8-.3-1.6-.9-2.2-.6-.4-1.4-.7-2.2-.7zm25 12.8h-3.9v-3.5h-8.4v3.5h-3.9v-6.8h.1a3 3 0 0 0 1.6-.7c1-.9 1.1-2.2 1.1-3.6v-5H101v9.3h1.9l-.1 6.8zm-10.5-6.8h4.3v-6h-3.1v2.2c0 .8-.1 1.6-.3 2.3-.1.6-.5 1.1-.9 1.5zm25.9 3.3h-4.3v-6.9l-5.2 6.9h-4V61.1h4.3v6.8l5.2-6.8h4v12.6zm9.4.4c-2.1.1-4.1-.6-5.6-2a6.6 6.6 0 0 1 0-9.4c3.2-2.7 8-2.7 11.2 0a6.6 6.6 0 0 1 0 9.4 8 8 0 0 1-5.6 2zm0-9.8c-.8 0-1.6.3-2.2.8a3.3 3.3 0 0 0 0 4.5c.6.6 1.4.9 2.2.8.8 0 1.6-.3 2.2-.8a3.3 3.3 0 0 0 0-4.5c-.6-.5-1.4-.8-2.2-.8z" class="svg-logo__type"/>
</svg>
