<svg class="svg-logo" viewBox="0 0 246.5 80">
  <path d="M52 24.1c-6.9.8-8.8 7.9-14 14.1-6.9 8.2-17.1 4-17.1 4 6.9-.9 8.9-8 14.2-14.2 7-8.1 16.9-3.9 16.9-3.9zM27.1 36.2s8.6-6.8 4.9-16.9c-2.8-7.6-8.2-13-5.3-19.3 0 0-8.5 6.9-5 16.9 2.7 7.6 8.3 13 5.4 19.3zm-.5-1.5s.8-11.1-8.7-15.3C10.5 16.1 2.7 16.4 0 10c0 0-1.1 11 9 15.3 7.5 3.2 14.9 3 17.6 9.4zM15.3 53.3h19.3l4.5-9.1H15.3v9.1zM18.4 80H20l11.1-25.5H18.4V80z" class="svg-logo__avatar"/>
  <path d="M73.2 53.3h-6l-6.4-7.7v7.7H56V34.6h4.7v7.2l6.1-7.2h5.8l-7.7 8.8 8.3 9.9zm6.1.4c-1.8.1-3.6-.6-4.8-1.9a6.8 6.8 0 0 1-1.9-4.7c0-1.9.7-3.7 2-5.1a6.2 6.2 0 0 1 4.5-1.7 5 5 0 0 1 3.7 1.4v-1h4.4v12.6h-4.4v-1.1c-.9 1-2.2 1.5-3.5 1.5zM78 44.9c-.6.6-.9 1.3-.8 2.1 0 .7.3 1.5.8 2 .6.6 1.4.9 2.2.9a3 3 0 0 0 2.8-3.2 3 3 0 0 0-.8-1.8c-.6-.5-1.3-.8-2.1-.8a3 3 0 0 0-2.1.8zm19.8 8.4H90V40.7h6.9c1.1-.1 2.3.2 3.2.8.7.6 1.1 1.6 1.1 2.5 0 .8-.2 1.6-.8 2.1l-.6.5c.5.2 1 .4 1.4.8.6.6.9 1.4.9 2.2 0 .9-.3 1.8-1 2.5-1 .8-2.2 1.2-3.3 1.2zm-3.4-3H96a2 2 0 0 0 1.1-.3c.2-.2.3-.5.3-.8a1 1 0 0 0-.3-.7l-1.2-.3h-1.5v2.1zm0-4.7h1.4l.9-.2c.2-.2.4-.5.3-.7a1 1 0 0 0-.3-.7c-.3-.2-.7-.2-1-.2h-1.4v1.8zm23.4 7.7H112l-3.9-5v5h-4.4V40.7h4.4v4.5l3.8-4.5h5.6l-5.5 5.9 5.8 6.7zm6.3.4c-1.8.1-3.6-.6-4.8-1.9a6.8 6.8 0 0 1-1.9-4.7c0-1.9.7-3.7 2-5.1a6.2 6.2 0 0 1 4.5-1.7 5 5 0 0 1 3.7 1.4v-1h4.4v12.6h-4.4v-1.1c-.9 1-2.2 1.6-3.5 1.5zm.8-9.6c-.8 0-1.5.3-2.1.8-.6.6-.9 1.3-.8 2.1 0 .7.3 1.5.8 2 .6.6 1.4.9 2.2.9a3 3 0 0 0 2-.8 3 3 0 0 0 .1-4.2c-.6-.6-1.4-.9-2.2-.8zm14.6 9.6c-1.2 0-2.4-.2-3.5-.6-.8-.3-1.6-.8-2.3-1.3l-.1-.1 1.9-2.9.2.2c.4.4.9.7 1.5 1 .6.2 1.2.4 1.9.4.5 0 .9-.1 1.4-.3.3-.1.5-.4.4-.8 0-.3-.2-.6-.5-.6l-1.4-.2h-1.7v-3.1h1.3l1.4-.2c.3-.1.5-.3.5-.6 0-.1-.1-.4-.5-.6l-1.2-.2c-.5 0-1.1.1-1.6.3-.5.2-.9.4-1.3.8l-.2.2-1.8-3 .2-.1 2.1-1c1-.3 2-.5 3-.5 1.1 0 3.2.2 4.4 1.3.7.6 1 1.5 1 2.4.1.8-.2 1.6-.8 2.2l-.6.5c.5.2.9.4 1.3.8.6.6.9 1.4.9 2.2 0 1-.4 2-1.1 2.7a8.5 8.5 0 0 1-4.8 1.1zm10.3 0a2.5 2.5 0 0 1-2.6-2.7c0-1.5 1.2-2.7 2.7-2.6 1.5 0 2.6 1.2 2.6 2.7 0 1.4-1.1 2.6-2.7 2.6.1 0 0 0 0 0zm9.5-.4h-4.7V34.6h6.8a7 7 0 0 1 5 1.6c1.3 1.2 2 2.8 1.9 4.6a6 6 0 0 1-1.6 4.4 6.7 6.7 0 0 1-4.9 1.7h-2.4v6.4zm0-10.3h1.3c.8.1 1.6-.2 2.2-.6.4-.4.6-1 .6-1.7 0-.6-.2-1.2-.6-1.6-.7-.5-1.5-.7-2.3-.6h-1.2V43zm17.2 10.7a6.5 6.5 0 0 1-7-5.9V47a7 7 0 0 1 2-5 6.8 6.8 0 0 1 4.9-1.8 7 7 0 0 1 5.1 1.9 6.8 6.8 0 0 1 1.8 5.1v.6h-9.4c.1.6.3 1.2.7 1.7.5.5 1.2.8 1.9.7l1.5-.3.8-.9.1-.1 4.2.4-.1.2a5.7 5.7 0 0 1-2.5 3.2 7.2 7.2 0 0 1-4 1zm-2.4-8.6h4.9c-.1-.4-.4-.8-.7-1.1-1.1-.9-2.6-.8-3.7.1l-.5 1zm16.9 8.6c-1.8.1-3.6-.6-4.8-1.9a6.8 6.8 0 0 1-1.9-4.7c0-1.9.7-3.7 2-5.1a6.2 6.2 0 0 1 4.5-1.7 5 5 0 0 1 3.7 1.4v-1h4.4v12.6h-4.4v-1.1c-.9 1-2.2 1.6-3.5 1.5zm.8-9.6c-.8 0-1.5.3-2.1.8-.6.5-.9 1.3-.9 2.1 0 .7.3 1.5.8 2 .6.6 1.4.9 2.2.9a3 3 0 0 0 2.8-3.2 3 3 0 0 0-.8-1.8c-.5-.5-1.2-.8-2-.8zm10.3 9.3l-1.6-.2h-.1v-3.6l.2.1c.6.2 1.2.1 1.7-.3.3-.5.5-1.2.4-1.8v-7h11.5v12.6h-4.4v-9H207v3.5c.1 1.5-.3 3.1-1.3 4.3a4 4 0 0 1-3.6 1.4zm28.4-.1h-4.4v-6.7l-5 6.7h-4V40.7h4.4v6.6l5-6.6h4v12.6zm16 0h-4.4v-6.7l-5 6.7h-4V40.7h4.4v6.6l5-6.6h4v12.6z" class="svg-logo__type"/>
</svg>
