<svg class="svg-logo" viewBox="0 0 223.8 80">
  <path d="M223.8 24.1c-6.9.8-8.8 7.9-14 14.1-6.9 8.2-17.1 4-17.1 4 6.9-.9 8.9-8 14.2-14.2 7-8.1 16.9-3.9 16.9-3.9zm-24.9 12.1s8.6-6.8 4.9-16.9c-2.8-7.6-8.2-13-5.3-19.3 0 0-8.5 6.9-5 16.9 2.7 7.6 8.2 13 5.4 19.3zm-.5-1.5s.8-11.1-8.7-15.3c-7.4-3.3-15.2-3-17.9-9.4 0 0-1.1 11 9 15.3 7.5 3.2 14.9 3 17.6 9.4zm-11.3 18.6h19.3l4.5-9.1h-23.8v9.1zm3 26.7h1.6l11.1-25.5h-12.7V80z" class="svg-logo__avatar"/>
  <path d="M25.8 52.8l-2 2.9-2.9-2.6-2.7 3.9 3.9 3.4 1.9-2.9 3 2.6 2.6-3.9-3.8-3.4zm4.3-10.4l-.6-2-.9-2-1.1-1.7-.6-.8-.5.9-1.1 2-1 2-.2.4.3.4.8 1.1.7 1.3.6 1.3.2.9c-2 1-4.3 1.5-6.5 1.5h-2.1c0-.8-.2-1.6-.4-2.4l-.1-.5c-.2-1.1-.6-2.1-1.1-3.1a10 10 0 0 0-1.6-2.4 4 4 0 0 0-2.5-1.1c-1 0-2 .4-2.7 1.2-.8.8-1.4 1.7-1.9 2.7-.5 1-1 2.1-1.2 3.3-.3 1-.5 2.1-.5 3.2 0 .7.1 1.3.5 1.9.3.5.8.9 1.3 1.1.5.2 1 .3 1.6.3h5.7l-.5 1.4c-.5 1.1-1.3 2.1-2.1 2.9a16.8 16.8 0 0 1-4 3 24.2 24.2 0 0 1-8.3 2.5v1.5l1.4.1 1.4.1 1 .1 1.6.2.6.3 2.2.2 1.7.1c1-.1 1.9-.4 2.7-1.1 1-.8 1.8-1.7 2.5-2.8a19.5 19.5 0 0 0 2.9-8.2h2.4l1.7-.1a8.8 8.8 0 0 0 4.7-1.5l.2-.2.9-1.2 1-1.5.7-1.6c.2-.5.3-1.1.3-1.7.1-.7 0-1.3-.1-2zM8.9 47.2c-.2-.3-.3-.6-.3-1l.2-.9.5-.9.8-.7.9-.3c.4 0 .7.2 1 .4 1 .7 1.9 3.7 2.1 4.8h-1.3c-1.3 0-2.6-.4-3.7-1.2l-.2-.2zm46.4 12.1l1.9-2.8-3.8-3.4-2.8 3.9 2.2 1.9-1.9 2.8 3.9 3.4 2.6-3.9-2.1-1.9zM61 42.4l-.6-2-.9-2-1.1-1.7-.6-.8-.5.9-1.1 2-1 2-.2.4.3.4.8 1.1.8 1.3.6 1.3.2.7-.8.3-1.5.3-1.9.1h-2.3a5 5 0 0 1-1.2-.2l-.9-.7-.8-1.2-.8-1.8-1-2.3-1.1-2.3-1.1-2.2-1.1-1.8-.7-1.1-.5 1.2-.9 2-.7 1.7-.1.4.3.3 1.1 1.4 1.1 2 1.1 2.2.7 1.6-.9.5-1.7.6a10.5 10.5 0 0 1-4.8.4c-2.9-.4-3.9-1.6-3.9-1.6l-.5.1-.1 1.4-.1 2.7c0 .6.1 1.2.4 1.8.6 1 2.5.7 3.8.4l-.1.4v.2l-.1 1.6.2 1.4c.1.4.3.7.6 1 .2.3.5.5.9.6l.9.2c.7 0 1.4-.1 2-.4a4 4 0 0 0 1.5-1l.1-.1c.2-.4.4-.9.4-1.4l.2-1.5-.2-1.3-.1-.3a11 11 0 0 0 2.9-2.3l.1-.2.4.7c.4.5.8 1 1.4 1.4a5 5 0 0 0 1.7.6c1.2.2 2.5.3 3.7.2l1.8-.2 1.6-.5c.7-.3 1.4-.7 2-1.2l.9-1 1-1.5.7-1.7c.2-.5.3-1.1.3-1.7-.3-.5-.4-1.1-.6-1.8zM41.3 55c-.8.4-1.6.6-2.5.5l-.5-.1a2 2 0 0 1-.3-1.1c0-.3 0-.7.2-1l.4-.6.5-.3.3-.1c.5 0 1 .2 1.3.6.4.7.6 1.4.6 2.1zm35.9-6.7l-.8-2.3-1.2-2.3-1.5-2.2-.7-.9-3 5.3 1.3 1.7 1.3 1.7 1.1 1.8c.2.4.4.8.4 1.3 0 .7-.3 1.4-.8 2-.7.9-1.6 1.7-2.5 2.4-1.3.9-2.7 1.7-4.1 2.3-1.6.6-3.2 1.2-4.9 1.6l-2.8.5v1.6h1.5l1.5.2 1 .1 1.7.2.9.1 2.3.2 1.7.1c.7 0 1.3-.2 1.8-.6a8 8 0 0 0 1.7-1.5c.6-.7 1.2-1.4 1.6-2.1l1.4-2.6 1-3c.2-1 .4-2.1.4-3.1a9 9 0 0 0-.3-2.5zm36-2.9l-.1-4.9-.1-5.4-.2-5.6-.1-4.7-.1-3-.1-2.1-4.6 6.9-.1.3.1.2.5 1.8.5 2.4.4 6.2.2 5.5.1 5.3v5.3L108 55a13.4 13.4 0 0 1-5.2 1.9c-1 .2-2 .3-3.1.2-1.1 0-2.3-.1-3.3-.5-.8-.3-1.5-.7-2.1-1.3-.5-.6-.9-1.3-1.2-2-.3-.9-.4-1.8-.4-2.7a26.4 26.4 0 0 1 .7-5.2l.2-.7-1.6-.5-.3.5-.4.8-.8 1.9-.8 2.7a19.5 19.5 0 0 0 .1 7 7.6 7.6 0 0 0 4.7 5.2c1.4.6 3 .8 4.5.8 2.6 0 5.1-.5 7.5-1.5.9-.4 1.8-.9 2.6-1.5l1.8-1.6.1-.1.8-1.7.7-2.3.6-2.5c.2-.8.2-1.6.2-2.3l-.1-4.2zm30.3-14.6l-3.1-2.7-2.1 3.1 3.1 2.8 2.1-3.2zm1.3 7.4l2-3.1-3.1-2.8-2.1 3.1 3.2 2.8zm-3.3-2.8l-3-2.7-2.1 3.1 3.1 2.8 2-3.2zm28.6 10.8l-.3-1.8-.4-1.9-.5-1.8a5.5 5.5 0 0 0-1.8-2.9 4 4 0 0 0-4.1-.4 7.6 7.6 0 0 0-2.5 2.5l-.9 1.5-.8 1.5-.6 1.2-.5.9-.5.8c-.2.3-.6.6-1 .7-.9.3-1.9.3-2.8-.1l-1.4-.8c-.4-.3-.8-.7-1.1-1.2-.5-1-.9-2-1.1-3.1h-.6c-.4 1.4-1 2.8-1.7 4.2-.3.5-.9.7-1.4.7-.8 0-1.6-.3-2.1-.9-.8-1.2-1.3-2.6-1.6-4l-.4-.1a20 20 0 0 1-1.9 4.2c-.3.5-.9.7-1.4.8-.8 0-1.5-.3-2.1-.9a11.3 11.3 0 0 1-1.8-4.1h-.4c-.4 1.4-1 2.7-1.8 3.9l-.1.2c-.6.8-2 2.5-5.8 2.5-1-.1-1.9-.6-2.6-1.3a5 5 0 0 1-1-3.1v-.8l-.1-1.8-.1-5.9-.2-5.5-.2-4.6-.2-3.3-.2-2.2-4.2 6.5-.1.3.1.2.7 2.9.5 3.6.3 4.6.1 5.9v1.8l.1 1.1.2 1c.1.8.4 1.7.8 2.4a5 5 0 0 0 1.3 1.6c1.1 1 4.2 1.1 4.6 1.1.8 0 1.5 0 2.3-.2l.4-.1c.7-.1 1.4-.2 2.1-.5 1-.6 1.8-1.3 2.6-2.2a4.4 4.4 0 0 0 4.1 3.1 4.3 4.3 0 0 0 3.7-2.6 4.2 4.2 0 0 0 3.9 2.6 4.3 4.3 0 0 0 3.8-2.8 7 7 0 0 0 5.4 2.5c2-.1 3.9-1.3 4.8-3.1l.9.5 2.1 1.1 2.4.8 2.4.3c.5 0 .9-.2 1.2-.5l.9-1 .7-1.3c.2-.4.3-.8.3-1.3-.2-.3-.3-.9-.4-1.4zm-4.1 1.3l-1-.2a7.7 7.7 0 0 1-2.9-1.6l-.7-.5a14 14 0 0 1 1.3-3.6c.2-.4.7-.7 1.2-.7l.4.3c1.1 1.8 1.7 4 1.7 6.3z" class="svg-logo__type"/>
</svg>
