<svg width="416.49" height="79.9" data-name="Layer 1">
  <path d="M308.27 25.83c4.88 0 7.43 2.05 7.43 5.77s-2.69 6.68-7.26 6.68a12.8 12.8 0 0 1-1.44-.08v6h-3.34V26.27a27.2 27.2 0 0 1 4.61-.44zm2.4 9.09a3.17 3.17 0 0 0 1.51-3c0-2.29-1.35-3.17-3.58-3.17a12.48 12.48 0 0 0-1.64.1v6.55c.48.05.94.08 1.29.08a4.74 4.74 0 0 0 2.42-.56zm9.8-3.92l.67 2.23c.75-1.43 1.7-2.32 3-2.32a3.32 3.32 0 0 1 1.73.52l-.57 3.1a5.08 5.08 0 0 0-1.3-.13 3.07 3.07 0 0 0-2.61 1.3v8.46h-3.33v-7.73c0-1-.06-2.19-.25-5zm12.24-.1c3.2 0 4.66 2.32 4.66 5.47a11.5 11.5 0 0 1-.22 2.24h-6.94c.21 2.18 1.18 3.12 2.77 3.12a10.09 10.09 0 0 0 3.31-.56l.71 2.23a10.67 10.67 0 0 1-4.6 1c-3.37 0-5.55-2.37-5.55-6.39s2.2-7.11 5.86-7.11zm-2.5 5.61h4a6.78 6.78 0 0 0 0-.79c0-1.32-.54-2.23-1.75-2.23-1.34 0-2.04 1.1-2.25 3.02zM344.58 31a6 6 0 0 1 3.77 1.33l-1.19 2a5.29 5.29 0 0 0-2.5-.75c-1.08 0-1.59.51-1.59 1.13 0 .86.84 1.27 2.26 1.86 1.86.78 3.31 1.64 3.31 3.75 0 2.45-2 4.12-5 4.12a7.32 7.32 0 0 1-4.39-1.44l1.16-2.13a5.58 5.58 0 0 0 2.93.94c1.19 0 1.94-.45 1.94-1.21 0-.94-1.13-1.4-2.53-2-1.61-.7-3-1.54-3-3.56-.07-2.52 2.14-4.04 4.83-4.04zm11.2 0a6 6 0 0 1 3.76 1.33l-1.18 2a5.33 5.33 0 0 0-2.5-.75c-1.08 0-1.59.51-1.59 1.13 0 .86.83 1.27 2.26 1.86 1.86.78 3.31 1.64 3.31 3.75 0 2.45-2 4.12-5 4.12a7.29 7.29 0 0 1-4.39-1.44l1.15-2.13a5.64 5.64 0 0 0 2.94.94c1.18 0 1.94-.45 1.94-1.21 0-.94-1.14-1.4-2.53-2-1.62-.7-3-1.54-3-3.56-.07-2.52 2.13-4.04 4.83-4.04zm9.22 0l.68 2.23c.75-1.43 1.69-2.32 3-2.32a3.29 3.29 0 0 1 1.72.52l-.56 3.1a5.13 5.13 0 0 0-1.32-.17 3.06 3.06 0 0 0-2.61 1.3v8.46h-3.34v-7.69c0-1 0-2.19-.24-5zm12.28-.13c3.55 0 5.51 3 5.51 6.63s-2.12 7-5.92 7c-3.55 0-5.51-2.86-5.51-6.52s2.12-7.11 5.92-7.11zm-.28 2.67a1.74 1.74 0 0 0-1.48.7 6 6 0 0 0-.81 3.37c0 2.45.78 4.23 2.42 4.23a1.77 1.77 0 0 0 1.48-.7 5.59 5.59 0 0 0 .78-3.23c.01-2.48-.74-4.37-2.39-4.37zm13.84-2.67c3.55 0 5.52 3 5.52 6.63s-2.13 7-5.92 7c-3.55 0-5.52-2.86-5.52-6.52s2.13-7.11 5.92-7.11zm-.27 2.67a1.76 1.76 0 0 0-1.48.7 6 6 0 0 0-.8 3.37c0 2.45.78 4.23 2.42 4.23a1.78 1.78 0 0 0 1.48-.7 5.67 5.67 0 0 0 .78-3.23c.03-2.48-.76-4.37-2.4-4.37zM401.58 31l.51 1.61a5 5 0 0 1 3.91-1.74 3.09 3.09 0 0 1 3.09 1.81 5.07 5.07 0 0 1 3.9-1.81c2.34 0 3.53 1.43 3.53 4.37v8.92h-3.34v-7.92c0-2-.32-2.67-1.34-2.67a3.85 3.85 0 0 0-2.34 1v9.59h-3.33v-7.92c0-2-.33-2.67-1.35-2.67a3.85 3.85 0 0 0-2.34 1v9.59h-3.34v-7.73c0-1 0-2.19-.21-5z"/>
  <path fill-rule="evenodd" d="M287.5 22.49h2.65l-5.29 26.63h-2.66l5.3-26.63z"/>
  <path d="M51.9 24.1c-6.8.8-8.7 7.9-13.9 14.1-6.9 8.2-17.1 4-17.1 4 6.9-.9 8.9-8 14.2-14.1 6.9-8.2 16.8-4 16.8-4zm-24.8 12s8.6-6.8 4.9-16.8c-2.8-7.6-8.2-13-5.4-19.3 0 0-8.5 6.9-5 16.9 2.8 7.6 8.3 12.9 5.5 19.2zm-.5-1.5s.8-11.1-8.7-15.3C10.5 16.1 2.7 16.4 0 10c0 0-1 11 9 15.3 7.5 3.2 14.9 3 17.6 9.3zM15.3 53.3h19.3l4.5-9.1H15.3zm3.1 26.6H20l11-25.4H18.4zm53.3-35.8h-5.8l-4.8-6.8v6.8h-4.8V25.2h6.8a6.7 6.7 0 0 1 4.9 1.7 5.68 5.68 0 0 1 1.7 4.3 5 5 0 0 1-1.5 3.9 7.22 7.22 0 0 1-2.4 1.4zM61.1 33.6h.8a3.29 3.29 0 0 0 2.5-.8 2.36 2.36 0 0 0 .7-1.6 2.14 2.14 0 0 0-.8-1.7A3.72 3.72 0 0 0 62 29h-.8zM78 44.5a6.21 6.21 0 0 1-4.9-2 7 7 0 0 1-1.9-4.8 7.44 7.44 0 0 1 2-5.1 6.2 6.2 0 0 1 4.5-1.7 5.28 5.28 0 0 1 3.8 1.4v-1H86V44h-4.4v-1a4.42 4.42 0 0 1-3.6 1.5zm.8-9.7a3.23 3.23 0 0 0-2.1.8 2.88 2.88 0 0 0-.9 2.1 3.23 3.23 0 0 0 .8 2.1 3.1 3.1 0 0 0 2.2.9 3 3 0 0 0 2-.8 3.1 3.1 0 0 0 .9-2.2 2.78 2.78 0 0 0-.8-2.1 3 3 0 0 0-2.1-.8zm15.4 9.7a5.88 5.88 0 0 1-4.5-1.8 7.43 7.43 0 0 1-2-5.1 6.33 6.33 0 0 1 6.5-6.7 5 5 0 0 1 3.7 1.4v-8.9h4.5V44H98v-1a4.84 4.84 0 0 1-3.8 1.5zm1-9.7a2.9 2.9 0 0 0-2 5 3.37 3.37 0 0 0 2 .9 3.1 3.1 0 0 0 2.2-.9 2.72 2.72 0 0 0 .9-2.1 3 3 0 0 0-.8-2.1 2.74 2.74 0 0 0-2.3-.8zm14.8 9.3h-4.5V31.3h4.5zm-2.2-15.3a2.59 2.59 0 0 1-2.5-2.6 2.56 2.56 0 0 1 2.6-2.5 2.48 2.48 0 0 1 2.5 2.5 2.65 2.65 0 0 1-2.6 2.6zm11.8 15.7a8 8 0 0 1-5.7-2 6.8 6.8 0 0 1 0-9.5 9 9 0 0 1 11.4 0 6.8 6.8 0 0 1 0 9.5 8 8 0 0 1-5.7 2zm0-9.8a3.49 3.49 0 0 0-2.2.8 3.1 3.1 0 0 0 0 4.38 2.65 2.65 0 0 0 2.2.8 3 3 0 0 0 2.1-.8 3.1 3.1 0 0 0 0-4.38 3 3 0 0 0-2.1-.8zm14.4 9.4h-4.8V25.2h10.9v4H134v3.2h5.6v4H134v7.7zm59.9 0h-10.7V25.2H194v4h-6.1v3.2h5.8v4h-5.8v3.7h6.1l-.1 4zm8.8.4a7 7 0 0 1-5.3-1.7 5 5 0 0 1-1.5-3.8v-7.6h4.6v7a2 2 0 0 0 1.66 2.29h.54a2.77 2.77 0 0 0 1.6-.5 2.11 2.11 0 0 0 .6-1.8v-7h4.6v7.4a5 5 0 0 1-1.5 4.1 7.31 7.31 0 0 1-5.3 1.6zm27.3 0a8 8 0 0 1-5.7-2 6.8 6.8 0 0 1 0-9.5 9 9 0 0 1 11.4 0 6.8 6.8 0 0 1 0 9.5 8 8 0 0 1-5.7 2zm0-9.8a3.49 3.49 0 0 0-2.2.8 3.11 3.11 0 0 0 0 4.38 2.65 2.65 0 0 0 2.2.8 3 3 0 0 0 2.1-.8 3.1 3.1 0 0 0 0-4.38 3 3 0 0 0-2.1-.8zm13.8 15.7h-4.5V31.3h4.5v1.1a4.76 4.76 0 0 1 3.7-1.5 6.5 6.5 0 0 1 4.6 1.8 7.3 7.3 0 0 1-.1 10 5.67 5.67 0 0 1-4.4 1.7 5 5 0 0 1-3.8-1.5zm2.8-15.6a2.72 2.72 0 0 0-2.1.9 2.88 2.88 0 0 0-.9 2.1 2.52 2.52 0 0 0 .9 2 3.1 3.1 0 0 0 2.2.9 3 3 0 0 0 2-.8 3.1 3.1 0 0 0 .9-2.2 2.88 2.88 0 0 0-.9-2.1 3 3 0 0 0-2.1-.8zM71.7 73.2h-5.8l-4.8-6.8v6.8h-4.8V54.4h6.8a6.7 6.7 0 0 1 4.9 1.7 5.68 5.68 0 0 1 1.7 4.3 5 5 0 0 1-1.5 3.9 7.22 7.22 0 0 1-2.4 1.4zM61.1 62.8h.8a3.29 3.29 0 0 0 2.5-.8 2.41 2.41 0 0 0 .7-1.7 2.14 2.14 0 0 0-.8-1.7 3.72 3.72 0 0 0-2.3-.5h-.8v4.7zM78 73.7a6.21 6.21 0 0 1-4.9-2 6.28 6.28 0 0 1-1.8-4.7 7.44 7.44 0 0 1 2-5.1 6.2 6.2 0 0 1 4.5-1.7 5.28 5.28 0 0 1 3.8 1.4v-1H86v12.7h-4.4v-1.1a4.75 4.75 0 0 1-3.6 1.5zm.8-9.8a3.23 3.23 0 0 0-2.1.8 2.88 2.88 0 0 0-.9 2.1 3.23 3.23 0 0 0 .8 2.1 3.1 3.1 0 0 0 2.2.9 3 3 0 0 0 2-.8 3.1 3.1 0 0 0 .9-2.2 2.78 2.78 0 0 0-.8-2.1 3 3 0 0 0-2.1-.8zm15.4 9.8a5.88 5.88 0 0 1-4.5-1.8 7.43 7.43 0 0 1-2-5.1 6.33 6.33 0 0 1 6.5-6.7 5 5 0 0 1 3.7 1.4v-8.9h4.5v20.6H98v-1.1a5 5 0 0 1-3.8 1.6zm1-9.8a2.9 2.9 0 0 0-2 5 3.37 3.37 0 0 0 2 .9 3.49 3.49 0 0 0 2.2-.8 2.72 2.72 0 0 0 .9-2.1 3 3 0 0 0-.8-2.1 3.17 3.17 0 0 0-2.3-.9zm14.6 9.3h-4.5V60.5h4.5zM107.7 58a2.59 2.59 0 0 1-2.5-2.6 2.56 2.56 0 0 1 2.6-2.5 2.48 2.48 0 0 1 2.5 2.5 2.65 2.65 0 0 1-2.6 2.6zm11.8 15.7a8 8 0 0 1-5.7-2 6.8 6.8 0 0 1 0-9.5 9 9 0 0 1 11.4 0 6.8 6.8 0 0 1 0 9.5 9 9 0 0 1-5.7 2zm0-9.8a3.49 3.49 0 0 0-2.2.8 3.1 3.1 0 0 0 0 4.38 2.65 2.65 0 0 0 2.2.8 3 3 0 0 0 2.1-.8 3.1 3.1 0 0 0 0-4.38 2.35 2.35 0 0 0-2.1-.8zm20.4 9.4h-10.7V54.4h4.8v14.8h5.9zm6.2 0h-4.5V60.5h4.5zM143.9 58a2.59 2.59 0 0 1-2.5-2.6 2.55 2.55 0 1 1 2.5 2.6zm13.3 15.7a5 5 0 0 1-3.8-1.5v1.1h-4.5V52.7h4.5v8.9a5.37 5.37 0 0 1 3.8-1.5 7 7 0 0 1 4.6 1.7 6.7 6.7 0 0 1 2.1 5 7.11 7.11 0 0 1-2.1 5.1 6.51 6.51 0 0 1-4.6 1.8zm-1-9.8a3.49 3.49 0 0 0-2.2.8 2.9 2.9 0 0 0-.1 4.1l.1.1a4.31 4.31 0 0 0 2.2.9 2.95 2.95 0 0 0 2.1-5l-.1-.1a2.79 2.79 0 0 0-2-.8zm41.5 9.4h-4.5v-9.1h-1.4v-3.6h1.4v-4h4.5v4h2.5v3.6h-2.5zm10 6.3h-5.1l4.6-8.1-6.2-11h5.2l3.5 6.5 3.4-6.5h5.1zm-48.6-35.2a6.7 6.7 0 0 1-5.1-1.8 6.53 6.53 0 0 1-1.9-4.9 7 7 0 0 1 2-5 7.69 7.69 0 0 1 10.1.1A7 7 0 0 1 166 38v.6h-9.4a3.12 3.12 0 0 0 .7 1.8 2.28 2.28 0 0 0 1.9.7 3.65 3.65 0 0 0 1.5-.3l.8-.9.1-.1h4.3l-.2.7a5.66 5.66 0 0 1-2.5 3.2 9 9 0 0 1-4.1.7zm-2.3-8.6h5a2.59 2.59 0 0 0-.7-1.1 2.33 2.33 0 0 0-1.8-.6 2.36 2.36 0 0 0-1.9.8 1.46 1.46 0 0 0-.6.9zm17.7 8.6a7 7 0 0 1-5.2-1.8 6.53 6.53 0 0 1-1.9-4.9 7 7 0 0 1 2-5 7.69 7.69 0 0 1 10.1.1 7 7 0 0 1 1.8 5.2v.6h-9.4a3.12 3.12 0 0 0 .7 1.8 2.28 2.28 0 0 0 1.9.7 3.65 3.65 0 0 0 1.5-.3l.8-.9.1-.1h4.3l-.2.7a5.66 5.66 0 0 1-2.5 3.2 8.9 8.9 0 0 1-4 .7zm-2.4-8.6h5a2.59 2.59 0 0 0-.7-1.1 2.33 2.33 0 0 0-1.8-.6 2.36 2.36 0 0 0-1.9.8 1.46 1.46 0 0 0-.6.9zm90.2 8.6a7 7 0 0 1-5.2-1.8 6.53 6.53 0 0 1-1.9-4.9 7 7 0 0 1 2-5 7.69 7.69 0 0 1 10.1.1 7 7 0 0 1 1.8 5.2v.6h-9.4a3.12 3.12 0 0 0 .7 1.8 2.28 2.28 0 0 0 1.9.7 3.65 3.65 0 0 0 1.5-.3l.8-.9.1-.1h4.3l-.2.7a5.66 5.66 0 0 1-2.5 3.2 8.66 8.66 0 0 1-4 .7zm-2.4-8.6h5a2.59 2.59 0 0 0-.7-1.1 2.33 2.33 0 0 0-1.8-.6 2.46 2.46 0 0 0-2.5 1.7zM172 73.6a6.49 6.49 0 0 1-7.09-5.84v-1a7 7 0 0 1 2-5 7.69 7.69 0 0 1 10.1.1 6.8 6.8 0 0 1 1.8 5.1v.6h-9.4a3.12 3.12 0 0 0 .7 1.8 2.28 2.28 0 0 0 1.9.7 3.65 3.65 0 0 0 1.5-.3 2.28 2.28 0 0 0 .8-.9l.1-.1h4.3l-.2.7a5.66 5.66 0 0 1-2.5 3.2 7 7 0 0 1-4 .9zm-2.4-8.6h5a2.59 2.59 0 0 0-.7-1.1 2.9 2.9 0 0 0-3.7.1zm46.9-20.9H212V31.3h4.5v1.4a3.93 3.93 0 0 1 3.6-1.7l1.3.2v4.2s-.4-.5-2.1-.6a2.36 2.36 0 0 0-1.9.8 4.49 4.49 0 0 0-.9 3.2v5.3zm-70.3 0h-4.5V31.3h4.5v1.4a3.93 3.93 0 0 1 3.6-1.7l1.3.2v4.2s-.4-.5-2.1-.6a2.36 2.36 0 0 0-1.9.8 4.49 4.49 0 0 0-.9 3.2v5.3zm39 29h-4.5V60.4h4.5v1.4a3.93 3.93 0 0 1 3.6-1.7l1.3.2v4.2s-.4-.5-2.1-.5a2.73 2.73 0 0 0-1.9.8 4 4 0 0 0-.9 3.2v5.1z"/>
</svg>
