<?xml version="1.0" encoding="utf-8"?>
<!-- Generator: Adobe Illustrator 22.1.0, SVG Export Plug-In . SVG Version: 6.00 Build 0)  -->
<svg version="1.1" data-name="Layer 1"  viewBox="0 0 416 80" style="enable-background:new 0 0 270 80;">
  <path class="svg-logo__type" d="M308.3,25.8c4.9,0,7.4,2,7.4,5.8s-2.7,6.7-7.3,6.7c-0.5,0-1,0-1.4-0.1v6h-3.3V26.3C305.2,26,306.7,25.8,308.3,25.8
  	L308.3,25.8z M310.7,34.9c1-0.6,1.6-1.8,1.5-3c0-2.3-1.4-3.2-3.6-3.2c-0.5,0-1.1,0-1.6,0.1v6.5c0.5,0,0.9,0.1,1.3,0.1
  	C309.1,35.5,309.9,35.3,310.7,34.9L310.7,34.9z M320.5,31l0.7,2.2c0.8-1.4,1.7-2.3,3-2.3c0.6,0,1.2,0.2,1.7,0.5l-0.6,3.1
  	c-0.4-0.1-0.9-0.1-1.3-0.1c-1,0-2,0.5-2.6,1.3v8.5h-3.3v-7.7c0-1-0.1-2.2-0.2-5L320.5,31z M332.7,30.9c3.2,0,4.7,2.3,4.7,5.5
  	c0,0.8-0.1,1.5-0.2,2.2h-6.9c0.2,2.2,1.2,3.1,2.8,3.1c1.1,0,2.2-0.2,3.3-0.6l0.7,2.2c-1.4,0.7-3,1-4.6,1c-3.4,0-5.5-2.4-5.5-6.4
  	S329,30.9,332.7,30.9L332.7,30.9z M330.2,36.5h4c0-0.3,0-0.5,0-0.8c0-1.3-0.5-2.2-1.8-2.2C331.1,33.5,330.4,34.6,330.2,36.5z
  	 M344.6,31c1.4,0,2.7,0.5,3.8,1.3l-1.2,2c-0.8-0.5-1.6-0.7-2.5-0.8c-1.1,0-1.6,0.5-1.6,1.1c0,0.9,0.8,1.3,2.3,1.9
  	c1.9,0.8,3.3,1.6,3.3,3.8c0,2.5-2,4.1-5,4.1c-1.6,0-3.1-0.5-4.4-1.4l1.2-2.1c0.9,0.6,1.9,0.9,2.9,0.9c1.2,0,1.9-0.5,1.9-1.2
  	c0-0.9-1.1-1.4-2.5-2c-1.6-0.7-3-1.5-3-3.6C339.7,32.5,341.9,31,344.6,31L344.6,31z M355.8,31c1.4,0,2.7,0.5,3.8,1.3l-1.2,2
  	c-0.8-0.5-1.6-0.7-2.5-0.8c-1.1,0-1.6,0.5-1.6,1.1c0,0.9,0.8,1.3,2.3,1.9c1.9,0.8,3.3,1.6,3.3,3.8c0,2.5-2,4.1-5,4.1
  	c-1.6,0-3.1-0.5-4.4-1.4l1.1-2.1c0.9,0.6,1.9,0.9,2.9,0.9c1.2,0,1.9-0.5,1.9-1.2c0-0.9-1.1-1.4-2.5-2c-1.6-0.7-3-1.5-3-3.6
  	C350.9,32.5,353.1,31,355.8,31z M365,31l0.7,2.2c0.8-1.4,1.7-2.3,3-2.3c0.6,0,1.2,0.2,1.7,0.5l-0.6,3.1c-0.4-0.1-0.9-0.2-1.3-0.2
  	c-1,0-2,0.5-2.6,1.3v8.5h-3.3v-7.7c0-1,0-2.2-0.2-5L365,31z M377.3,30.9c3.5,0,5.5,3,5.5,6.6s-2.1,7-5.9,7c-3.5,0-5.5-2.9-5.5-6.5
  	S373.5,30.9,377.3,30.9z M377,33.5c-0.6,0-1.1,0.2-1.5,0.7c-0.6,1-0.9,2.2-0.8,3.4c0,2.5,0.8,4.2,2.4,4.2c0.6,0,1.1-0.2,1.5-0.7
  	c0.6-1,0.9-2.1,0.8-3.2C379.4,35.4,378.7,33.5,377,33.5z M390.8,30.9c3.5,0,5.5,3,5.5,6.6s-2.1,7-5.9,7c-3.5,0-5.5-2.9-5.5-6.5
  	S387,30.9,390.8,30.9z M390.6,33.5c-0.6,0-1.1,0.2-1.5,0.7c-0.6,1-0.9,2.2-0.8,3.4c0,2.5,0.8,4.2,2.4,4.2c0.6,0,1.1-0.2,1.5-0.7
  	c0.6-1,0.8-2.1,0.8-3.2C393,35.4,392.2,33.5,390.6,33.5L390.6,33.5z M401.6,31l0.5,1.6c1-1.1,2.4-1.8,3.9-1.7
  	c1.3-0.1,2.6,0.6,3.1,1.8c1-1.2,2.4-1.8,3.9-1.8c2.3,0,3.5,1.4,3.5,4.4v8.9h-3.3v-7.9c0-2-0.3-2.7-1.3-2.7c-0.9,0.1-1.7,0.4-2.3,1
  	v9.6h-3.3v-7.9c0-2-0.3-2.7-1.4-2.7c-0.9,0.1-1.7,0.4-2.3,1v9.6h-3.3v-7.7c0-1,0-2.2-0.2-5L401.6,31z"/>
  <path class="svg-logo__type" d="M287.5,22.5h2.6l-5.3,26.6h-2.7L287.5,22.5L287.5,22.5z"/>
  <path class="svg-logo__type" d="M71.7,44.1h-5.8l-4.8-6.8v6.8h-4.8V25.2h6.8c1.8-0.1,3.6,0.5,4.9,1.7c1.2,1.1,1.8,2.7,1.7,4.3c0.1,1.5-0.5,2.9-1.5,3.9
  	c-0.7,0.6-1.5,1.1-2.4,1.4L71.7,44.1z M61.1,33.6h0.8c0.9,0.1,1.8-0.2,2.5-0.8c0.4-0.4,0.7-1,0.7-1.6c0-0.7-0.3-1.3-0.8-1.7
  	c-0.7-0.4-1.5-0.6-2.3-0.5h-0.8L61.1,33.6z M78,44.5c-1.8,0.1-3.6-0.6-4.9-2c-1.2-1.3-1.9-3-1.9-4.8c0-1.9,0.7-3.7,2-5.1
  	c1.2-1.1,2.8-1.8,4.5-1.7c1.4-0.1,2.8,0.4,3.8,1.4v-1H86V44h-4.4v-1C80.7,44,79.4,44.6,78,44.5z M78.8,34.8c-0.8,0-1.5,0.3-2.1,0.8
  	c-0.6,0.5-0.9,1.3-0.9,2.1c0,0.8,0.3,1.5,0.8,2.1c0.6,0.6,1.4,0.9,2.2,0.9c0.7,0,1.5-0.3,2-0.8c0.6-0.6,0.9-1.4,0.9-2.2
  	c0-0.8-0.2-1.5-0.8-2.1C80.3,35.1,79.6,34.8,78.8,34.8z M94.2,44.5c-1.7,0.1-3.3-0.6-4.5-1.8c-1.3-1.4-2-3.2-2-5.1
  	c-0.2-3.5,2.5-6.5,5.9-6.7c0.2,0,0.4,0,0.6,0c1.4-0.1,2.7,0.4,3.7,1.4v-8.9h4.5V44H98v-1C97,44,95.6,44.6,94.2,44.5z M95.2,34.8
  	c-1.6,0-2.9,1.3-2.9,2.9c0,0.8,0.3,1.6,0.9,2.1c0.5,0.5,1.3,0.8,2,0.9c0.8,0,1.6-0.3,2.2-0.9c0.6-0.5,0.9-1.3,0.9-2.1
  	c0-0.8-0.3-1.5-0.8-2.1C96.9,35,96,34.7,95.2,34.8z M110,44.1h-4.5V31.3h4.5V44.1z M107.8,28.8c-1.4,0-2.5-1.2-2.5-2.6
  	c0-1.4,1.2-2.5,2.6-2.5c1.4,0,2.5,1.1,2.5,2.5c0,0,0,0,0,0C110.4,27.6,109.2,28.8,107.8,28.8z M119.6,44.5c-2.1,0.1-4.1-0.6-5.7-2
  	c-2.6-2.6-2.6-6.9,0-9.5c3.3-2.7,8.1-2.7,11.4,0c2.6,2.6,2.6,6.9,0,9.5C123.7,43.9,121.7,44.6,119.6,44.5z M119.6,34.7
  	c-0.8,0-1.6,0.3-2.2,0.8c-1.2,1.2-1.2,3.2,0,4.4c0.6,0.6,1.4,0.9,2.2,0.8c0.8,0,1.5-0.3,2.1-0.8c1.2-1.2,1.2-3.2,0-4.4
  	C121.1,35,120.4,34.7,119.6,34.7z M134,44.1h-4.8V25.2h10.9v4H134v3.2h5.6v4H134L134,44.1L134,44.1z M193.9,44.1h-10.7V25.2H194v4
  	h-6.1v3.2h5.8v4h-5.8v3.7h6.1L193.9,44.1L193.9,44.1z M202.7,44.5c-1.9,0.2-3.8-0.4-5.3-1.7c-1-1-1.6-2.4-1.5-3.8v-7.6h4.6v7
  	c-0.2,1.1,0.6,2.1,1.7,2.3h0.5c0.6,0,1.1-0.2,1.6-0.5c0.5-0.5,0.7-1.1,0.6-1.8v-7h4.6v7.4c0.2,1.5-0.4,3-1.5,4.1
  	C206.5,44.1,204.6,44.7,202.7,44.5L202.7,44.5z M230,44.5c-2.1,0.1-4.1-0.6-5.7-2c-2.6-2.6-2.6-6.9,0-9.5c3.3-2.7,8.1-2.7,11.4,0
  	c2.6,2.6,2.6,6.9,0,9.5C234.1,43.9,232.1,44.6,230,44.5z M230,34.7c-0.8,0-1.6,0.3-2.2,0.8c-1.2,1.2-1.2,3.2,0,4.4
  	c0.6,0.6,1.4,0.9,2.2,0.8c0.8,0,1.5-0.3,2.1-0.8c1.2-1.2,1.2-3.2,0-4.4C231.5,35,230.8,34.7,230,34.7z M243.8,50.4h-4.5V31.3h4.5
  	v1.1c1-1,2.3-1.6,3.7-1.5c1.7,0,3.4,0.6,4.6,1.8c2.6,2.8,2.6,7.2-0.1,10c-1.2,1.2-2.8,1.8-4.4,1.7c-1.4,0.1-2.8-0.5-3.8-1.5V50.4z
  	 M246.6,34.8c-0.8,0-1.6,0.3-2.1,0.9c-0.6,0.5-0.9,1.3-0.9,2.1c0,0.8,0.3,1.5,0.9,2c0.6,0.6,1.4,0.9,2.2,0.9c0.7,0,1.5-0.3,2-0.8
  	c0.6-0.6,0.9-1.4,0.9-2.2c0-0.8-0.3-1.6-0.9-2.1C248.1,35.1,247.4,34.8,246.6,34.8L246.6,34.8z M71.7,73.2h-5.8l-4.8-6.8v6.8h-4.8
  	V54.4h6.8c1.8-0.1,3.6,0.5,4.9,1.7c1.2,1.1,1.8,2.7,1.7,4.3c0.1,1.5-0.5,2.9-1.5,3.9c-0.7,0.6-1.5,1.1-2.4,1.4L71.7,73.2z
  	 M61.1,62.8h0.8c0.9,0.1,1.8-0.2,2.5-0.8c0.4-0.5,0.7-1.1,0.7-1.7c0-0.7-0.3-1.3-0.8-1.7c-0.7-0.4-1.5-0.6-2.3-0.5h-0.8L61.1,62.8
  	L61.1,62.8z M78,73.7c-1.8,0.1-3.6-0.6-4.9-2c-1.2-1.2-1.9-3-1.8-4.7c0-1.9,0.7-3.7,2-5.1c1.2-1.1,2.8-1.8,4.5-1.7
  	c1.4-0.1,2.8,0.4,3.8,1.4v-1H86v12.7h-4.4v-1.1C80.7,73.2,79.4,73.7,78,73.7z M78.8,63.9c-0.8,0-1.5,0.3-2.1,0.8
  	c-0.6,0.5-0.9,1.3-0.9,2.1c0,0.8,0.3,1.5,0.8,2.1c0.6,0.6,1.4,0.9,2.2,0.9c0.7,0,1.5-0.3,2-0.8c0.6-0.6,0.9-1.4,0.9-2.2
  	c0-0.8-0.2-1.5-0.8-2.1C80.3,64.2,79.6,63.9,78.8,63.9z M94.2,73.7c-1.7,0.1-3.3-0.6-4.5-1.8c-1.3-1.4-2-3.2-2-5.1
  	c-0.2-3.5,2.5-6.5,5.9-6.7c0.2,0,0.4,0,0.6,0c1.4-0.1,2.7,0.4,3.7,1.4v-8.9h4.5v20.6H98v-1.1C97,73.2,95.6,73.7,94.2,73.7z
  	 M95.2,63.9c-1.6,0-2.9,1.3-2.9,2.9c0,0.8,0.3,1.6,0.9,2.1c0.5,0.5,1.3,0.8,2,0.9c0.8,0,1.6-0.3,2.2-0.8c0.6-0.5,0.9-1.3,0.9-2.1
  	c0-0.8-0.3-1.5-0.8-2.1C96.9,64.2,96.1,63.9,95.2,63.9z M109.8,73.2h-4.5V60.5h4.5V73.2z M107.7,58c-1.4,0-2.5-1.2-2.5-2.6
  	c0-1.4,1.2-2.5,2.6-2.5c1.4,0,2.5,1.1,2.5,2.5c0,0,0,0,0,0C110.3,56.8,109.1,58,107.7,58z M119.5,73.7c-2.1,0.1-4.1-0.6-5.7-2
  	c-2.6-2.6-2.6-6.9,0-9.5c3.3-2.7,8.1-2.7,11.4,0c2.6,2.6,2.6,6.9,0,9.5C123.6,73,121.6,73.7,119.5,73.7z M119.5,63.9
  	c-0.8,0-1.6,0.3-2.2,0.8c-1.2,1.2-1.2,3.2,0,4.4c0.6,0.6,1.4,0.9,2.2,0.8c0.8,0,1.5-0.3,2.1-0.8c1.2-1.2,1.2-3.2,0-4.4
  	C121.1,64.1,120.3,63.8,119.5,63.9z M139.9,73.3h-10.7V54.4h4.8v14.8h5.9V73.3z M146.1,73.3h-4.5V60.5h4.5V73.3z M143.9,58
  	c-1.4,0-2.5-1.2-2.5-2.6c0-1.4,1.2-2.5,2.6-2.5c1.4,0,2.5,1.2,2.5,2.6C146.5,56.9,145.3,58,143.9,58z M157.2,73.7
  	c-1.4,0.1-2.8-0.5-3.8-1.5v1.1h-4.5V52.7h4.5v8.9c1-1,2.4-1.5,3.8-1.5c1.7,0,3.3,0.6,4.6,1.7c1.4,1.3,2.1,3.1,2.1,5
  	c0,1.9-0.7,3.8-2.1,5.1C160.6,73.1,158.9,73.7,157.2,73.7z M156.2,63.9c-0.8,0-1.6,0.3-2.2,0.8c-1.2,1.1-1.2,2.9-0.1,4.1l0.1,0.1
  	c0.6,0.5,1.4,0.8,2.2,0.9c1.6,0,2.9-1.3,2.9-3c0-0.8-0.3-1.5-0.8-2l-0.1-0.1C157.7,64.2,156.9,63.9,156.2,63.9z M197.7,73.3h-4.5
  	v-9.1h-1.4v-3.6h1.4v-4h4.5v4h2.5v3.6h-2.5V73.3z M207.7,79.6h-5.1l4.6-8.1l-6.2-11h5.2l3.5,6.5l3.4-6.5h5.1L207.7,79.6z
  	 M159.1,44.4c-1.9,0.1-3.7-0.5-5.1-1.8c-1.3-1.3-2-3.1-1.9-4.9c0-1.9,0.7-3.7,2-5c2.9-2.5,7.2-2.4,10.1,0.1c1.3,1.4,1.9,3.3,1.8,5.2
  	v0.6h-9.4c0,0.7,0.3,1.3,0.7,1.8c0.5,0.5,1.2,0.8,1.9,0.7c0.5,0,1-0.1,1.5-0.3l0.8-0.9l0.1-0.1h4.3l-0.2,0.7
  	c-0.4,1.3-1.3,2.5-2.5,3.2C161.9,44.3,160.5,44.5,159.1,44.4z M156.8,35.8h5c-0.1-0.4-0.4-0.8-0.7-1.1c-0.5-0.4-1.1-0.7-1.8-0.6
  	c-0.7,0-1.4,0.3-1.9,0.8C157.1,35.1,156.9,35.4,156.8,35.8z M174.5,44.4c-1.9,0.1-3.8-0.5-5.2-1.8c-1.3-1.3-2-3.1-1.9-4.9
  	c0-1.9,0.7-3.7,2-5c2.9-2.5,7.2-2.4,10.1,0.1c1.3,1.4,1.9,3.3,1.8,5.2v0.6h-9.4c0,0.7,0.3,1.3,0.7,1.8c0.5,0.5,1.2,0.8,1.9,0.7
  	c0.5,0,1-0.1,1.5-0.3l0.8-0.9l0.1-0.1h4.3l-0.2,0.7c-0.4,1.3-1.3,2.5-2.5,3.2C177.2,44.2,175.9,44.5,174.5,44.4L174.5,44.4z
  	 M172.1,35.8h5c-0.1-0.4-0.4-0.8-0.7-1.1c-0.5-0.4-1.1-0.7-1.8-0.6c-0.7,0-1.4,0.3-1.9,0.8C172.4,35.1,172.2,35.4,172.1,35.8z
  	 M262.3,44.4c-1.9,0.1-3.8-0.5-5.2-1.8c-1.3-1.3-2-3.1-1.9-4.9c0-1.9,0.7-3.7,2-5c2.9-2.5,7.2-2.4,10.1,0.1c1.3,1.4,1.9,3.3,1.8,5.2
  	v0.6h-9.4c0,0.7,0.3,1.3,0.7,1.8c0.5,0.5,1.2,0.8,1.9,0.7c0.5,0,1-0.1,1.5-0.3l0.8-0.9l0.1-0.1h4.3l-0.2,0.7
  	c-0.4,1.3-1.3,2.5-2.5,3.2C265,44.2,263.7,44.5,262.3,44.4L262.3,44.4z M259.9,35.8h5c-0.1-0.4-0.4-0.8-0.7-1.1
  	c-0.5-0.4-1.1-0.7-1.8-0.6C261.3,34,260.2,34.7,259.9,35.8z M172,73.6c-3.6,0.3-6.7-2.3-7.1-5.8c0,0,0,0,0,0v-1c0-1.9,0.7-3.7,2-5
  	c2.9-2.5,7.2-2.4,10.1,0.1c1.3,1.4,1.9,3.2,1.8,5.1v0.6h-9.4c0,0.7,0.3,1.3,0.7,1.8c0.5,0.5,1.2,0.8,1.9,0.7c0.5,0,1-0.1,1.5-0.3
  	c0.3-0.2,0.6-0.5,0.8-0.9l0.1-0.1h4.3l-0.2,0.7c-0.4,1.3-1.3,2.5-2.5,3.2C174.8,73.4,173.4,73.7,172,73.6L172,73.6z M169.6,65h5
  	c-0.1-0.4-0.4-0.8-0.7-1.1c-1.1-0.9-2.7-0.8-3.7,0.1L169.6,65z M216.5,44.1H212V31.3h4.5v1.4c0.8-1.2,2.2-1.8,3.6-1.7l1.3,0.2v4.2
  	c0,0-0.4-0.5-2.1-0.6c-0.7,0-1.4,0.3-1.9,0.8c-0.7,0.9-1,2.1-0.9,3.2L216.5,44.1L216.5,44.1z M146.2,44.1h-4.5V31.3h4.5v1.4
  	c0.8-1.2,2.2-1.8,3.6-1.7l1.3,0.2v4.2c0,0-0.4-0.5-2.1-0.6c-0.7,0-1.4,0.3-1.9,0.8c-0.7,0.9-1,2.1-0.9,3.2L146.2,44.1L146.2,44.1z
  	 M185.2,73.1h-4.5V60.4h4.5v1.4c0.8-1.2,2.2-1.8,3.6-1.7l1.3,0.2v4.2c0,0-0.4-0.5-2.1-0.5c-0.7,0-1.4,0.3-1.9,0.8
  	c-0.8,0.9-1.1,2.1-0.9,3.2L185.2,73.1L185.2,73.1z"/>
  <g class="svg-logo__avatar">
  	<path d="M51.9,24.1C45.1,24.9,43.2,32,38,38.2c-6.9,8.2-17.1,4-17.1,4c6.9-0.9,8.9-8,14.2-14.1C42,19.9,51.9,24.1,51.9,24.1z M27.1,36.1c0,0,8.6-6.8,4.9-16.8c-2.8-7.6-8.2-13-5.4-19.3c0,0-8.5,6.9-5,16.9C24.4,24.5,29.9,29.8,27.1,36.1z M26.6,34.6c0,0,0.8-11.1-8.7-15.3C10.5,16.1,2.7,16.4,0,10c0,0-1,11,9,15.3C16.5,28.5,23.9,28.3,26.6,34.6z"/>
  	<polygon points="15.3,53.3 34.6,53.3 39.1,44.2 15.3,44.2 	"/>
  	<polygon points="18.4,79.9 20,79.9 31,54.5 18.4,54.5 	"/>
  </g>
</svg>
