
<svg class="svg-logo" viewBox="0 0 250.9 80">
<g>
	<g>
		<path d="M52,24.1c-6.9,0.8-8.8,7.9-14,14.1c-6.9,8.2-17.1,4-17.1,4c6.9-0.9,8.9-8,14.2-14.2C42.1,19.9,52,24.1,52,24.1z
			 M27.1,36.2c0,0,8.6-6.8,4.9-16.9c-2.8-7.6-8.2-13-5.3-19.3c0,0-8.5,6.9-5,16.9C24.4,24.5,30,29.9,27.1,36.2z M26.6,34.7
			c0,0,0.8-11.1-8.7-15.3c-7.4-3.3-15.2-3-17.9-9.4c0,0-1.1,11,9,15.3C16.5,28.5,23.9,28.3,26.6,34.7z M15.3,53.3h19.3l4.5-9.1H15.3
			V53.3z M18.4,80H20l11.1-25.5H18.4V80z" class="svg-logo__avatar"/>
	</g>
	<g class="svg-logo__type">
		<g>
			<g>
				<g>
					<polygon points="147.7,44.1 136.8,44.1 136.8,25.4 147.7,25.4 147.7,29.2 141.4,29.2 141.4,32.6 147.4,32.6 147.4,36.4
						141.4,36.4 141.4,40.3 147.7,40.3 					"/>
				</g>
			</g>
			<g>
				<g>
					<path d="M156.4,44.6c-2.3,0-4-0.5-5.2-1.6c-1.3-1.2-1.4-2.5-1.4-3.8v-7.6h4.3v7c0,0.6,0.1,1.4,0.7,1.9c0.4,0.4,0.9,0.5,1.6,0.5
						c0.7,0,1.3-0.2,1.6-0.5c0.6-0.5,0.6-1.3,0.6-1.9v-7h4.3v7.3c0,1.4-0.1,2.8-1.5,4.1C160.4,44,158.7,44.6,156.4,44.6z"/>
				</g>
			</g>
			<path d="M189.3,33.1c-1.3-1.3-3.4-2-5.7-2s-4.3,0.7-5.7,2c-1.2,1.2-2,2.9-2,4.7c0,1.8,0.7,3.5,2,4.7c1.3,1.3,3.4,2,5.7,2
				s4.3-0.7,5.7-2c1.2-1.2,2-2.9,2-4.7C191.2,36.1,190.5,34.3,189.3,33.1z M185.8,40.1c-0.6,0.6-1.3,0.8-2.2,0.8
				c-0.9,0-1.7-0.3-2.2-0.8c-0.6-0.6-0.9-1.3-0.9-2.2c0-0.9,0.3-1.6,0.9-2.2c0.6-0.6,1.3-0.8,2.2-0.8s1.6,0.3,2.2,0.8
				c0.6,0.6,0.9,1.3,0.9,2.2C186.7,38.7,186.5,39.5,185.8,40.1z"/>
			<path d="M205.8,32.9c-0.8-0.8-2.3-1.8-4.6-1.8c-1.5,0-2.8,0.6-3.8,1.6v-1.2h-4.3v19h4.3V43c0.9,1,2.2,1.6,3.9,1.6
				c1.8,0,3.2-0.5,4.4-1.7c1.4-1.3,2.1-3,2.1-5.1C207.7,35.8,207,34.1,205.8,32.9z M202.3,40c-0.6,0.5-1.3,0.8-2.1,0.8
				c-0.8,0-1.6-0.3-2.2-0.9c-0.6-0.6-0.9-1.3-0.9-2.1c0-0.8,0.4-1.6,0.9-2.2c0.4-0.4,1.1-0.9,2.2-0.9c0.8,0,1.5,0.3,2.1,0.8
				c0.6,0.5,0.9,1.3,0.9,2.1C203.3,38.6,202.9,39.5,202.3,40z"/>
			<path d="M219.5,31.5v1.1c-1.1-1.3-2.7-1.6-3.8-1.6c-1.8,0-3.3,0.6-4.5,1.7c-1.3,1.2-2,3.1-2,5.1c0,1.8,0.6,3.4,1.9,4.7
				c1.3,1.3,2.8,1.9,4.8,1.9c1.5,0,2.7-0.5,3.6-1.6v1.2h4.3V31.5H219.5z M218.8,40c-0.5,0.5-1.3,0.8-2,0.8c-0.9,0-1.7-0.3-2.3-0.9
				c-0.4-0.4-0.8-1.1-0.8-2.1c0-1.1,0.5-1.7,0.9-2.1c0.5-0.5,1.3-0.8,2.1-0.8c0.6,0,1.5,0.2,2.2,0.8c0.6,0.5,0.9,1.3,0.9,2.2
				C219.7,38.9,219.2,39.6,218.8,40z"/>
			<g>
				<g>
					<path d="M170.1,44.3h-4.5V31.5h4.5V33c0.4-0.5,0.8-0.9,1.3-1.2c0.6-0.4,1.3-0.6,2.3-0.6c0.5,0,1.3,0.3,1.3,0.3v4.2
						c0,0-0.4-0.5-2.1-0.6c-0.8,0-1.4,0.3-1.9,0.8c-0.8,0.9-0.9,2-0.9,3.2V44.3z"/>
				</g>
			</g>
		</g>
		<g>
			<g>
				<g>
					<polygon points="66.9,74.1 56.3,74.1 56.3,55.4 61,55.4 61,70.3 66.9,70.3 					"/>
				</g>
			</g>
			<g>
				<g>
					<rect x="68.7" y="61.5" width="4.3" height="12.6"/>
					<path d="M70.9,58.8c-1.4,0-2.5-1.1-2.5-2.5s1.1-2.5,2.5-2.5s2.5,1.1,2.5,2.5S72.3,58.8,70.9,58.8z"/>
				</g>
			</g>
			<path d="M88.7,62.8c-1.2-1.1-2.8-1.7-4.5-1.7c-1.6,0-2.9,0.6-3.8,1.6v-9H76v20.5h4.3v-1.2c0.9,1.1,2.2,1.6,3.9,1.6
				c1.8,0,3.3-0.6,4.4-1.7c1.3-1.3,2-3.1,2-5.1C90.7,65.8,90,64,88.7,62.8z M85.3,70c-0.6,0.5-1.3,0.8-2,0.8c-0.8,0-1.7-0.3-2.2-0.9
				c-0.3-0.3-0.9-1-0.9-2.1c0-0.8,0.3-1.6,0.9-2.2c0.6-0.6,1.3-0.9,2.2-0.9c0.9,0,1.5,0.2,2.1,0.8c0.4,0.4,0.9,1.1,0.9,2.3
				C86.2,68.7,85.9,69.5,85.3,70z"/>
			<path d="M128.7,61.5v1.1c-1.1-1.3-2.7-1.6-3.8-1.6c-1.8,0-3.3,0.6-4.5,1.7c-1.3,1.2-2,3.1-2,5.1c0,1.8,0.6,3.4,1.9,4.7
				c1.3,1.3,2.8,1.9,4.8,1.9c1.5,0,2.7-0.5,3.6-1.6v1.2h4.3V61.5H128.7z M128,70c-0.5,0.5-1.3,0.8-2,0.8c-0.9,0-1.7-0.3-2.3-0.9
				c-0.4-0.4-0.8-1.1-0.8-2.1c0-1.1,0.5-1.7,0.9-2.1c0.5-0.5,1.3-0.8,2.1-0.8c0.6,0,1.5,0.2,2.2,0.8c0.6,0.5,0.9,1.3,0.9,2.2
				C128.9,68.9,128.4,69.6,128,70z"/>
			<path d="M126,59.8c-1.6,0-2.8-0.4-3.6-1.3c-0.7-0.8-1.2-1.8-1.3-2.9l0-0.1h2.9l0,0.1c0.1,0.5,0.4,0.9,0.6,1.1
				c0.4,0.4,1,0.5,1.4,0.5c0.4,0,1-0.1,1.4-0.5c0.2-0.2,0.5-0.6,0.6-1.1l0-0.1h2.9l0,0.1c-0.1,1.1-0.5,2.2-1.3,2.9
				C128.8,59.4,127.6,59.8,126,59.8z"/>
			<g>
				<g>
					<path d="M112.5,74.3H108V61.5h4.5V63c0.4-0.5,0.8-0.9,1.3-1.2c0.6-0.4,1.3-0.6,2.3-0.6c0.5,0,1.3,0.3,1.3,0.3v4.2
						c0,0-0.4-0.5-2.1-0.6c-0.8,0-1.4,0.3-1.9,0.8c-0.8,0.9-0.9,2-0.9,3.2V74.3z"/>
				</g>
			</g>
			<path d="M106,68.2c0-2.2-0.6-3.9-1.8-5.2c-1.3-1.3-2.9-1.9-5.2-1.9c-2.1,0-3.7,0.6-5,1.8c-1.3,1.3-2,3.1-2,5c0,1.9,0.7,3.7,2,4.9
				c1.6,1.6,3.5,1.8,5.2,1.8c1.7,0,3-0.3,4.1-0.9c0.8-0.5,2-1.5,2.5-3.2l0.2-0.7l-4.3,0l-0.1,0.1c-0.3,0.7-0.8,0.9-0.8,0.9
				c-0.4,0.2-0.9,0.3-1.5,0.3c-0.9,0-1.5-0.2-1.9-0.7c-0.4-0.5-0.7-1.2-0.7-1.8h9.4V68.2z M96.8,66c0.1-0.4,0.3-0.7,0.6-1
				c0.5-0.5,1.1-0.7,1.9-0.7c0.7,0,1.3,0.2,1.8,0.6c0.4,0.3,0.6,0.8,0.7,1.1H96.8z"/>
		</g>
		<g>
			<path d="M154.3,65.2c1-1,1.5-2.3,1.5-3.9c0-2.3-1.1-3.6-1.7-4.2c-0.8-0.8-2.3-1.6-4.9-1.6h-6.8v18.8h4.7v-6.8l4.8,6.8h5.8
				l-5.8-7.6C152.8,66.3,153.7,65.8,154.3,65.2z M151.1,61.3c0,0.9-0.4,1.4-0.6,1.6c-0.7,0.7-1.7,0.7-2.4,0.7h-0.8v-4.6h0.8
				c1,0,1.8,0.2,2.3,0.5C150.8,60,151.1,60.6,151.1,61.3z"/>
			<path d="M165,61.1c-2.2,0-4.3,0.7-5.6,2c-1.2,1.2-1.9,3-1.9,4.7c0,1.8,0.7,3.5,1.9,4.7c1.3,1.3,3.4,2,5.6,2c2.2,0,4.3-0.7,5.6-2
				c1.2-1.2,1.9-3,1.9-4.7c0-1.8-0.7-3.5-1.9-4.7C169.3,61.8,167.3,61.1,165,61.1z M168,67.8c0,0.9-0.3,1.6-0.9,2.2
				c-0.6,0.5-1.3,0.8-2.1,0.8c-0.9,0-1.6-0.3-2.2-0.8c-0.6-0.6-0.9-1.3-0.9-2.2s0.3-1.6,0.9-2.2c0.6-0.5,1.3-0.8,2.1-0.8
				c0.9,0,1.6,0.3,2.1,0.8C167.8,66.2,168,66.9,168,67.8z"/>
			<path d="M190.3,61.2c-1.1,0-1.9,0.2-2.8,0.7c-0.6,0.4-1.1,0.8-1.5,1.3c-0.4-0.6-0.9-1.2-1.4-1.5c-0.7-0.4-1.5-0.6-2.5-0.6
				c-1.4,0-2.5,0.5-3.3,1.4v-1h-4.4v12.7h4.4v-6.5c0-1.1,0.3-1.9,0.7-2.4c0.3-0.3,0.7-0.4,1.3-0.4c0.5,0,0.9,0.1,1.2,0.4
				c0.5,0.5,0.6,1.4,0.6,2.3v6.6h4.4v-6.3c0-0.7,0.1-1.7,0.6-2.3c0.3-0.4,0.8-0.7,1.4-0.7c0.5,0,1,0.2,1.3,0.6
				c0.5,0.6,0.5,1.6,0.5,2.3v6.4h4.4v-8c0-0.6,0-2.5-1.4-3.8C193.1,61.6,191.8,61.2,190.3,61.2z"/>
			<path d="M207.3,62.5c-1.1-1.2-2.6-1.4-3.7-1.4c-1.8,0-3.4,0.6-4.5,1.7c-1.3,1.2-2,3.1-2,5.1c0,1.8,0.6,3.4,1.9,4.7
				c1.3,1.3,2.8,1.9,4.8,1.9c1.5,0,2.7-0.5,3.5-1.5v1.1h4.4V61.5h-4.4V62.5z M206.7,65.7c0.5,0.5,0.9,1.3,0.9,2.1
				c0,1.1-0.5,1.8-0.9,2.2c-0.5,0.5-1.2,0.8-2,0.8c-0.9,0-1.7-0.3-2.2-0.9c-0.4-0.4-0.8-1-0.8-2.1c0-1,0.5-1.7,0.9-2.1
				c0.5-0.5,1.3-0.8,2.1-0.8C205.4,64.9,206.2,65.2,206.7,65.7z"/>
			<polygon points="204.7,57.4 208.1,60 210.2,57.8 204.7,53.7 199.3,57.8 201.4,60 			"/>
			<path d="M222.3,61.1c-1,0-2.4,0.2-3.7,1.5v-1.1h-4.4v12.7h4.4v-6.5c0-0.7,0.1-1.6,0.7-2.2c0.3-0.3,0.7-0.6,1.5-0.6
				c0.7,0,1.2,0.3,1.4,0.5c0.6,0.6,0.6,1.4,0.6,2.3v6.5h4.4v-8c0-1.2-0.2-2.6-1.3-3.7C225.2,61.6,224,61.1,222.3,61.1z"/>
			<rect x="229.9" y="61.5" width="4.4" height="12.7"/>
			<path d="M232.1,53.9c-1.4,0-2.6,1.1-2.6,2.5c0,1.4,1.1,2.5,2.6,2.5c1.4,0,2.6-1.1,2.6-2.5C234.7,55,233.6,53.9,232.1,53.9z"/>
			<path d="M246.4,61.5v1c-1.1-1.2-2.6-1.4-3.7-1.4c-1.8,0-3.4,0.6-4.5,1.7c-1.3,1.2-2,3.1-2,5.1c0,1.8,0.6,3.4,1.9,4.7
				c1.3,1.3,2.8,1.9,4.8,1.9c1.5,0,2.7-0.5,3.5-1.5v1.1h4.4V61.5H246.4z M246.7,67.8c0,1.1-0.5,1.8-0.9,2.2c-0.5,0.5-1.2,0.8-2,0.8
				c-0.9,0-1.7-0.3-2.2-0.9c-0.4-0.4-0.8-1-0.8-2.1c0-1,0.5-1.7,0.9-2.1c0.5-0.5,1.3-0.8,2.1-0.8c0.8,0,1.6,0.3,2.1,0.8
				C246.4,66.2,246.7,66.9,246.7,67.8z"/>
		</g>
		<g>
			<path d="M65.8,36.5c0.9-0.3,1.8-0.8,2.4-1.4c1-1,1.5-2.3,1.5-3.9c0-2.3-1.1-3.7-1.7-4.3c-0.8-0.8-2.4-1.7-4.9-1.7h-6.8v18.9H61
				v-6.8l4.8,6.8h5.8L65.8,36.5z M64.3,32.9c-0.7,0.7-1.7,0.7-2.5,0.7H61V29h0.8c1,0,1.8,0.2,2.3,0.5c0.5,0.4,0.8,1,0.8,1.7
				C64.9,32.1,64.5,32.7,64.3,32.9z"/>
			<path d="M81.6,31.4v1c-1.1-1.2-2.6-1.4-3.8-1.4c-1.8,0-3.4,0.6-4.5,1.7c-1.3,1.3-2,3.1-2,5.1c0,1.9,0.6,3.5,1.9,4.8
				c1.3,1.3,2.8,1.9,4.9,1.9c1.5,0,2.7-0.5,3.5-1.5v1.1H86V31.4H81.6z M80.9,39.9c-0.5,0.5-1.2,0.8-2,0.8c-0.9,0-1.7-0.3-2.3-0.9
				c-0.4-0.4-0.8-1.1-0.8-2.1c0-1,0.5-1.7,0.9-2.1c0.5-0.5,1.3-0.8,2.1-0.8c0.8,0,1.6,0.3,2.1,0.8c0.6,0.5,0.9,1.3,0.9,2.1
				C81.8,38.8,81.3,39.5,80.9,39.9z"/>
			<path d="M98.1,23.5v8.9c-0.9-0.9-2.2-1.5-3.7-1.5c-1.7,0-3.3,0.6-4.5,1.7c-1.3,1.2-2,3-2,5c0,2,0.7,3.8,2,5.1
				c1.2,1.2,2.6,1.7,4.5,1.7c1.6,0,2.9-0.5,3.8-1.5v1.1h4.5V23.5H98.1z M97.4,39.9c-0.6,0.5-1.4,0.9-2.2,0.9c-0.7,0-1.4-0.3-2-0.8
				c-0.6-0.5-0.9-1.3-0.9-2.1c0-1.1,0.5-1.8,0.9-2.2c0.6-0.5,1.2-0.8,2-0.8c0.9,0,1.6,0.3,2.1,0.9c0.6,0.6,0.8,1.3,0.8,2.1
				C98.3,38.9,97.8,39.6,97.4,39.9z"/>
			<g>
				<g>
					<rect x="105.5" y="31.4" width="4.5" height="12.8"/>
					<path d="M107.8,28.9c-1.4,0-2.6-1.1-2.6-2.5c0-1.4,1.1-2.5,2.6-2.5c1.4,0,2.6,1.1,2.6,2.5C110.3,27.7,109.2,28.9,107.8,28.9z"
						/>
				</g>
			</g>
			<path d="M125.3,33c-1.3-1.3-3.4-2.1-5.7-2.1c-2.3,0-4.4,0.7-5.7,2.1c-1.2,1.2-2,3-2,4.7c0,1.8,0.7,3.5,2,4.7
				c1.3,1.3,3.4,2.1,5.7,2.1c2.3,0,4.4-0.7,5.7-2.1c1.2-1.2,2-3,2-4.7C127.3,36,126.6,34.2,125.3,33z M121.8,39.9
				c-0.6,0.5-1.3,0.8-2.1,0.8c-0.9,0-1.6-0.3-2.2-0.8c-0.6-0.6-0.9-1.3-0.9-2.2c0-0.9,0.3-1.6,0.9-2.2c0.6-0.5,1.3-0.8,2.2-0.8
				c0.9,0,1.6,0.3,2.2,0.8c0.6,0.6,0.9,1.3,0.9,2.2C122.7,38.7,122.4,39.4,121.8,39.9z"/>
		</g>
	</g>
</g>
</svg>
