<svg class="svg-logo" viewBox="0 0 251.3 80">
  <path d="M52 24.1c-6.9.8-8.8 7.9-14 14.1-6.9 8.2-17.1 4-17.1 4 6.9-.9 8.9-8 14.2-14.2 7-8.1 16.9-3.9 16.9-3.9zM27.1 36.2s8.6-6.8 4.9-16.9c-2.8-7.6-8.2-13-5.3-19.3 0 0-8.5 6.9-5 16.9 2.7 7.6 8.3 13 5.4 19.3zm-.5-1.5s.8-11.1-8.7-15.3C10.5 16.1 2.7 16.4 0 10c0 0-1.1 11 9 15.3 7.5 3.2 14.9 3 17.6 9.4zM15.3 53.3h19.3l4.5-9.1H15.3v9.1zM18.4 80H20l11.1-25.5H18.4V80z" class="svg-logo__avatar"/>
  <path d="M71.5 44.2h-5.7l-4.9-7v7h-4.6V25.4H63a7 7 0 0 1 4.9 1.6 5.9 5.9 0 0 1 1.7 4.2c.1 1.4-.5 2.9-1.5 3.9-.7.7-1.6 1.1-2.5 1.4l5.9 7.7zM60.9 33.8h.8c.9.1 1.8-.2 2.5-.8.5-.4.7-1.1.7-1.7 0-.7-.3-1.4-.8-1.8-.7-.4-1.5-.6-2.4-.6h-.9v4.9zM78 44.6c-1.8.1-3.6-.6-4.8-1.9a6.8 6.8 0 0 1-1.9-4.7c0-1.9.7-3.7 2-5.1a6.2 6.2 0 0 1 4.5-1.7 5 5 0 0 1 3.8 1.5v-1.1H86v12.6h-4.4V43a4.2 4.2 0 0 1-3.6 1.6zm.8-9.8a3 3 0 0 0-2.1.8c-.6.6-.9 1.3-.9 2.1s.3 1.6.8 2.2a3.2 3.2 0 0 0 4.3.1c.6-.6 1-1.4 1-2.2 0-.8-.3-1.6-.9-2.2-.6-.5-1.4-.8-2.2-.8zm15.5 9.8c-1.7.1-3.3-.6-4.4-1.7a7.3 7.3 0 0 1-2-5.1c-.1-1.9.7-3.7 2-5a6.6 6.6 0 0 1 4.5-1.7 5 5 0 0 1 3.8 1.6v-9h4.3v20.5h-4.3V43a5 5 0 0 1-3.9 1.6zm1-9.8c-.8 0-1.5.3-2.1.8-1.2 1.1-1.4 3-.3 4.2a3.3 3.3 0 0 0 4.6.1c.6-.5.9-1.3.9-2.1s-.3-1.6-.9-2.2c-.6-.5-1.4-.8-2.2-.8zm14.6 9.4h-4.3V31.6h4.3v12.6zm-2.2-15.3c-1.4 0-2.5-1.1-2.4-2.5s1.1-2.5 2.5-2.4c1.4 0 2.4 1.1 2.4 2.5 0 1.3-1.1 2.4-2.5 2.4.1 0 0 0 0 0zm11.8 15.7c-2.1.1-4.1-.6-5.6-2a6.6 6.6 0 0 1 0-9.4c3.2-2.7 8-2.7 11.2 0a6.6 6.6 0 0 1 0 9.4 7.6 7.6 0 0 1-5.6 2zm0-9.8c-.8 0-1.6.3-2.2.8a3.3 3.3 0 0 0 0 4.5c.6.6 1.4.9 2.2.8.8 0 1.6-.3 2.2-.8a3.3 3.3 0 0 0 0-4.5c-.6-.5-1.4-.8-2.2-.8zm21.2 9.8c-1.3 0-2.6-.2-3.8-.8-1-.5-2-1.2-2.8-2l-.1-.1 2.4-3.3.1.1 1.7 1.4c.7.4 1.5.7 2.3.7a3 3 0 0 0 1.9-.6c.4-.3.6-.9.6-1.4 0-.5-.2-.9-.6-1.2a10 10 0 0 0-2.1-1l-1.6-.5c-1-.3-1.9-.8-2.7-1.5a5 5 0 0 1-1.2-3.3c-.1-1.6.6-3.1 1.7-4.2 1.3-1.2 3-1.9 4.8-1.8 2 0 4 .7 5.6 1.9l.1.1-2.1 3.4-.1-.1a4.4 4.4 0 0 0-3.1-1.3c-.6-.1-1.3.2-1.7.6-.3.3-.5.7-.4 1.1 0 .3.1.7.4.9.5.4 1 .6 1.6.8l.7.3 1.4.5c1 .3 1.8.8 2.6 1.4 1 .9 1.5 2.2 1.5 3.5 0 1.7-.6 3.4-1.7 4.7a8.5 8.5 0 0 1-5.4 1.7zm13.2-.4h-4.3V23.7h4.3v20.5zm9.3.4c-2.1.1-4.1-.6-5.6-2a6.6 6.6 0 0 1 0-9.4c3.2-2.7 8-2.7 11.2 0a6.6 6.6 0 0 1 0 9.4 7.8 7.8 0 0 1-5.6 2zm0-9.8c-.8 0-1.6.3-2.2.8a3.3 3.3 0 0 0 0 4.5c.6.6 1.4.9 2.2.8.8 0 1.6-.3 2.2-.8a3.3 3.3 0 0 0 0-4.5c-.6-.5-1.4-.8-2.2-.8zm17.3 9.8c-1.5.1-2.9-.5-3.9-1.6v1.2h-4.3V23.7h4.3v9c1-1 2.4-1.6 3.8-1.6 1.7 0 3.2.6 4.5 1.7a6.6 6.6 0 0 1 2 5c0 1.9-.7 3.7-2 5.1a5.7 5.7 0 0 1-4.4 1.7zm-1.1-9.8c-.8 0-1.6.3-2.2.9-.6.6-.9 1.4-.9 2.2 0 .8.3 1.6.9 2.1.6.6 1.4.9 2.2.9a3 3 0 0 0 2-.8 3 3 0 0 0 .9-2.2c0-.9-.3-1.7-.9-2.3-.5-.5-1.2-.8-2-.8zm16.3 9.8c-2.1.1-4.1-.6-5.6-2a6.6 6.6 0 0 1 0-9.4c3.2-2.7 8-2.7 11.2 0a6.6 6.6 0 0 1 0 9.4 7.6 7.6 0 0 1-5.6 2zm0-9.8c-.8 0-1.6.3-2.2.8a3.3 3.3 0 0 0 0 4.5c.6.6 1.4.9 2.2.8.8 0 1.6-.3 2.2-.8a3.3 3.3 0 0 0 0-4.5c-.5-.5-1.3-.8-2.2-.8zm15.4 9.8c-1.7.1-3.3-.6-4.4-1.7a7.3 7.3 0 0 1-2-5.1c-.1-1.9.7-3.7 2-5a6.6 6.6 0 0 1 4.5-1.7c1.4-.1 2.8.5 3.8 1.6v-9h4.4v20.5H215V43a5 5 0 0 1-3.9 1.6zm1-9.8c-.8 0-1.5.3-2.1.8-.6.6-1 1.4-1 2.3 0 .8.4 1.6 1 2.2a3 3 0 0 0 2 .8c.8 0 1.6-.3 2.2-.9.6-.5.9-1.3.9-2.1s-.3-1.6-.9-2.2c-.5-.5-1.3-.9-2.1-.9zm23.1 9.4h-4.3v-6.5c.1-.8-.1-1.7-.6-2.4-.4-.4-.9-.5-1.5-.5s-1.2.2-1.6.6c-.6.6-.8 1.4-.8 2.3v6.5H222V31.6h4.3v1.2a5 5 0 0 1 3.8-1.6 5 5 0 0 1 3.7 1.3c.9 1 1.4 2.4 1.3 3.7v8zm8.1.4a6.3 6.3 0 0 1-6.6-6.6c0-1.9.7-3.7 2-5.1a6.2 6.2 0 0 1 4.5-1.7c1.4-.1 2.8.5 3.8 1.6v-1.2h4.3v12.6H247V43a4.4 4.4 0 0 1-3.7 1.6zm.8-9.8a3 3 0 0 0-2.1.8c-.6.6-.9 1.3-.9 2.1s.3 1.5.8 2.1c.6.6 1.4.9 2.3.9a3 3 0 0 0 3-3c0-.8-.3-1.6-.9-2.2-.6-.3-1.4-.6-2.2-.7zM67.2 71.4H56.3V52.7h10.9v3.9h-6.3v3.3h6v3.9h-6v3.8h6.3v3.8zm10.1 0h-2.7l-6.5-12.6h4.8l3.2 6.4 3.1-6.4H84l-6.7 12.6zm25.4.4c-2.1.1-4.1-.6-5.6-2a6.6 6.6 0 0 1 0-9.4c3.2-2.7 8-2.7 11.2 0a6.6 6.6 0 0 1 0 9.4 8 8 0 0 1-5.6 2zm0-9.8c-.8 0-1.6.3-2.2.8a3.3 3.3 0 0 0 0 4.5c.6.6 1.4.9 2.2.8.8 0 1.6-.3 2.2-.8a3.3 3.3 0 0 0 0-4.5c-.6-.5-1.4-.8-2.2-.8zm13.8 15.7h-4.3v-19h4.3V60c1-1.1 2.3-1.7 3.8-1.6 1.7 0 3.3.6 4.6 1.8a7.3 7.3 0 0 1-.1 10 5.5 5.5 0 0 1-4.4 1.7c-1.5.1-2.9-.5-3.9-1.6v7.4zm2.8-15.6c-.8 0-1.6.3-2.2.9-.6.6-.9 1.4-.9 2.2 0 .8.3 1.5.9 2.1.6.6 1.4.9 2.2.9.8 0 1.5-.3 2.1-.8.6-.6.9-1.4.9-2.2 0-.8-.3-1.6-.9-2.2-.6-.6-1.3-.9-2.1-.9zm15.4 9.7c-1.8.1-3.6-.6-4.8-1.9a7 7 0 0 1-1.9-4.7c0-1.9.7-3.7 2-5.1a6.2 6.2 0 0 1 4.5-1.7 5 5 0 0 1 3.8 1.5v-1.1h4.3v12.6h-4.3v-1.2a4.1 4.1 0 0 1-3.6 1.6zm.8-9.7a3 3 0 0 0-2.1.8 3 3 0 0 0-.9 2.2c0 .8.3 1.5.8 2.1.6.6 1.4.9 2.3.9a3 3 0 0 0 3-3c0-.8-.3-1.6-.9-2.2-.6-.5-1.4-.8-2.2-.8zm-46.2 9.2h-4.5V58.6h4.5V60c.3-.5.8-.9 1.3-1.2.7-.4 1.5-.6 2.3-.6l1.3.2v4.2s-.4-.5-2.1-.6c-.7 0-1.4.2-1.9.8a4 4 0 0 0-.9 3.2v5.3z" class="svg-logo__type"/>
</svg>
