<svg class="svg-logo" viewBox="0 0 241.6 80">
  <path d="M52 24.1c-6.9.8-8.8 7.9-14 14.1-6.9 8.2-17.1 4-17.1 4 6.9-.9 8.9-8 14.2-14.2 7-8.1 16.9-3.9 16.9-3.9zM27.1 36.2s8.6-6.8 4.9-16.9c-2.8-7.6-8.2-13-5.3-19.3 0 0-8.5 6.9-5 16.9 2.7 7.6 8.3 13 5.4 19.3zm-.5-1.5s.8-11.1-8.7-15.3C10.5 16.1 2.7 16.4 0 10c0 0-1.1 11 9 15.3 7.5 3.2 14.9 3 17.6 9.4zM15.3 53.3h19.3l4.5-9.1H15.3v9.1zM18.4 80H20l11.1-25.5H18.4V80z" class="svg-logo__avatar"/>
  <path d="M64.1 53.4c-2.6.1-5.2-.8-7.1-2.6a9.6 9.6 0 0 1-.2-13.4l.2-.2c1.9-1.7 4.3-2.6 6.8-2.6 1.5 0 3 .4 4.5 1h.2V41l-.5-.3a5.6 5.6 0 0 0-4.1-1.8 5 5 0 0 0-3.5 1.3 5.1 5.1 0 0 0-1.6 3.9c0 1.4.5 2.7 1.5 3.7s2.4 1.5 3.8 1.4c1.5 0 2.9-.7 4-1.8l.4-.3v5.2l-.2.1c-1.3.7-2.7 1-4.2 1zm19.2-.4h-3.9v-6.4L74.3 53h-4V40.7h4.5v6.6l4.6-6.6h3.8l.1 12.3zm9.5.4c-1.9.1-3.7-.5-5.1-1.8-2.2-2.1-2.2-5.2-2.2-6.2 0-2.1.3-5.8 2.4-8a7.9 7.9 0 0 1 4.4-2.1l1-.2c.9-.1 1.7-.4 2.4-.8l.5-.6v-.1h3.2v.2a5.6 5.6 0 0 1-1.5 3.2c-.9.7-1.9 1.2-3 1.5l-1.6.4c-1 .2-2 .6-2.9 1.2a3 3 0 0 0-1.1 2c1.1-1 2.5-1.5 4-1.4 1.8-.1 3.5.5 4.8 1.7a6.6 6.6 0 0 1-.2 9.2 6.7 6.7 0 0 1-5.1 1.8zm-2-8.5c-.6.5-.9 1.3-.9 2.1s.3 1.5.8 2c.6.5 1.3.8 2.1.8.7 0 1.4-.2 1.9-.7.6-.5 1-1.3 1-2.2 0-.7-.3-1.4-.9-1.9-.6-.5-1.3-.8-2.1-.8-.7 0-1.4.3-1.9.7zM115 53h-4.5v-6.4l-4.8 6.4H102V40.7h4.5v6.6l4.3-6.6h4.2V53zm6.4 5.8h-3.9V40.7h3.9V42c1-.9 2.2-1.4 3.6-1.5 1.6 0 3.2.6 4.4 1.7a7 7 0 0 1-.1 9.6 5.6 5.6 0 0 1-4.2 1.6c-1.3 0-2.6-.5-3.6-1.4v6.8zm.7-13.8a3 3 0 0 0-.8 2c0 .7.3 1.4.8 1.9.6.5 1.3.8 2.1.8.7 0 1.4-.3 1.9-.8.6-.6.9-1.3.9-2.1s-.3-1.5-.8-2a3 3 0 0 0-2-.8c-.9.2-1.6.4-2.1 1zm25.9 8.4a2.5 2.5 0 0 1-2.5-2.6c0-1.4 1.2-2.6 2.6-2.5 1.4 0 2.5 1.2 2.5 2.6 0 1.4-1.1 2.5-2.6 2.5 0 .1 0 .1 0 0zm9-.4h-4.5V34.9h6.5c1.8-.1 3.5.5 4.8 1.6a5.7 5.7 0 0 1 1.8 4.5 6 6 0 0 1-1.6 4.4 7 7 0 0 1-4.7 1.8H157V53zm0-9.7h1.3c.8 0 1.5-.2 2.1-.7.4-.4.6-1 .6-1.7 0-.6-.2-1.2-.6-1.6-.6-.5-1.4-.7-2.2-.7H157v4.7zm16.3 10.1c-1.8.1-3.6-.5-4.9-1.7a6.7 6.7 0 0 1-1.9-4.7 7 7 0 0 1 1.9-4.8c1.3-1.2 3-1.8 4.7-1.7a6.4 6.4 0 0 1 6.9 5.8v1.4h-9.2c0 .6.3 1.2.7 1.7.5.5 1.2.7 1.8.7l1.5-.3c.3-.2.6-.5.8-.9l.1-.1h4.1l-.2.6a5.2 5.2 0 0 1-2.4 3 6 6 0 0 1-3.9 1zm-2.2-8.2h4.7c-.1 0-.3-.7-.6-1-1-.9-2.5-.8-3.5.1-.3.2-.5.2-.6.9zm16.2 8.2c-1.7.1-3.4-.6-4.6-1.8a6.3 6.3 0 0 1-1.8-4.5c0-1.8.7-3.6 1.9-4.9a6.1 6.1 0 0 1 4.3-1.7c1.1 0 2.9.2 3.5 1.4v-1.2h4.5V53h-4.5v-1c-.8 1-2.1 1.5-3.3 1.4zm.8-9.2a3 3 0 0 0-2 .8c-.5.5-.8 1.2-.8 2 0 .7.2 1.5.8 2 .6.6 1.3.9 2.1.8.7 0 1.4-.3 1.9-.8.6-.5.9-1.2.9-2s-.3-1.5-.8-2c-.7-.5-1.4-.8-2.1-.8zm10.1 9l-1.5-.2h-.1v-3.4l.2.1a2 2 0 0 0 1.8-.3c.4-.5.6-1.1.6-1.7v-7h11V53h-4.5v-8.4H203v3.2a6 6 0 0 1-1.3 4.1c-1 .9-2.2 1.4-3.5 1.3zm27.6-.2h-4.5v-6.4l-4.9 6.4h-3.5V40.7h3.9v6.6l4.8-6.6h4.2V53zm15.8 0h-4.5v-6.4l-5 6.3h-3.4V40.7h3.9v6.6l4.7-6.6h4.3V53zm-98.2-7a4.6 4.6 0 0 0-3.4-1.2h-2.6v-4.1h-4.2V53h6.7a5 5 0 0 0 3.5-1.1c.8-.8 1.2-1.9 1.1-3.1 0-1-.4-2-1.1-2.8zm-3.4 3.7a2 2 0 0 1-1.1.3h-1.5v-2.1h1.5c.4 0 .8.1 1.1.3.2.2.3.5.3.8 0 .2-.1.5-.3.7z" class="svg-logo__type"/>
</svg>
