<svg class="svg-logo" viewBox="0 0 142.7 80">
  <path d="M52 24.1c-6.9.8-8.8 7.9-14 14.1-6.9 8.2-17.1 4-17.1 4 6.9-.9 8.9-8 14.2-14.2 7-8.1 16.9-3.9 16.9-3.9zM27.1 36.2s8.6-6.8 4.9-16.9c-2.8-7.6-8.2-13-5.3-19.3 0 0-8.5 6.9-5 16.9 2.7 7.6 8.3 13 5.4 19.3zm-.5-1.5s.8-11.1-8.7-15.3C10.5 16.1 2.7 16.4 0 10c0 0-1.1 11 9 15.3 7.5 3.2 14.9 3 17.6 9.4zM15.3 53.3h19.3l4.5-9.1H15.3v9.1zM18.4 80H20l11.1-25.5H18.4V80z" class="svg-logo__avatar"/>
  <path d="M71.5 44.3h-4.8l-1.4-3.5h-6.9L57 44.3h-4.8l.1-.2 7.6-18.6H64l7.5 18.8zm-11.8-7H64l-2.1-5.7-2.2 5.7zm26.2 7H72.6l6.6-9h-6.1v-3.6h13.5l-6.5 9h5.8v3.6zm8.1.4c-1.8.1-3.6-.6-4.8-1.9a7 7 0 0 1-1.9-4.7c0-1.9.7-3.7 2-5.1a6.2 6.2 0 0 1 4.5-1.7c1.4-.1 2.8.5 3.8 1.6v-1.1h4.3v12.6h-4.4v-1.2c-.8 1-2.1 1.6-3.5 1.5zm.8-9.7a3 3 0 0 0-2.1.8 3 3 0 0 0-.9 2.2c0 .8.3 1.5.8 2.1a3.2 3.2 0 0 0 4.3.1c.6-.6 1-1.4 1-2.2 0-.8-.3-1.6-.9-2.2-.6-.5-1.4-.8-2.2-.8zm14.8 9.3h-4.3v-9.2h-1.4v-3.5h1.4v-4h4.3v4h2.5v3.5h-2.5v9.2zm8.8 0h-4.3V23.8h4.3v20.5zm7.3 0h-4.3V31.7h4.3v12.6zm16.4 6.4h-4.3v-7.6a4.8 4.8 0 0 1-3.9 1.6c-1.6.1-3.2-.5-4.4-1.7a6.6 6.6 0 0 1-2-5c0-1.8.7-3.6 1.9-4.9a6.3 6.3 0 0 1 4.5-1.8c1.5-.1 2.9.6 3.9 1.7v-1.3h4.3v19zM135 35c-.8 0-1.5.3-2.1.8-.6.6-.9 1.3-.9 2.1s.3 1.7.9 2.3c.6.5 1.3.8 2.1.8s1.6-.3 2.2-.9c.5-.6.8-1.3.8-2.1s-.3-1.6-.9-2.2c-.6-.5-1.3-.8-2.1-.8zM69.3 74.2h-5.7l-4.8-6.9v7h-4.7V55.5h6.8c1.8-.1 3.5.5 4.9 1.6a5.9 5.9 0 0 1 1.7 4.2c.1 1.4-.5 2.9-1.5 3.9-.7.7-1.6 1.1-2.5 1.4l5.8 7.6zM58.7 63.9h.8c.9.1 1.8-.2 2.5-.8.4-.5.7-1.1.7-1.7 0-.7-.3-1.4-.8-1.8-.7-.4-1.5-.6-2.3-.6h-.9v4.9zm17.1 10.8c-1.8.1-3.6-.6-4.8-1.9a7 7 0 0 1-1.9-4.8c0-1.9.7-3.7 2-5.1a6.2 6.2 0 0 1 4.5-1.7 5 5 0 0 1 3.8 1.5v-1.1h4.3v12.6h-4.4V73a4.3 4.3 0 0 1-3.5 1.7zm.8-9.8a3 3 0 0 0-2.1.8 3 3 0 0 0-.9 2.2c0 .8.3 1.5.8 2.1a3.2 3.2 0 0 0 4.3.1c.6-.6 1-1.4.9-2.2 0-.8-.3-1.6-.9-2.2-.6-.5-1.3-.8-2.1-.8zM92 74.7c-1.7.1-3.3-.6-4.4-1.7a7 7 0 0 1-2-5c-.1-1.9.7-3.7 2-5a6.6 6.6 0 0 1 4.5-1.7c1.4-.1 2.8.5 3.8 1.6v-9h4.3v20.5h-4.3V73a4.9 4.9 0 0 1-3.9 1.7zm1-9.8c-.8 0-1.5.3-2.1.8a3 3 0 0 0-.3 4.2c.6.7 1.5 1.1 2.4 1.1.8 0 1.6-.3 2.2-.9.6-.5.9-1.3.9-2.1s-.3-1.6-.9-2.2c-.5-.6-1.3-.9-2.2-.9zm14.6 9.3h-4.3V61.6h4.3v12.6zM105.5 59a2.3 2.3 0 0 1-2.4-2.5c0-1.4 1.1-2.5 2.5-2.4 1.3 0 2.4 1.1 2.4 2.4 0 1.4-1.1 2.5-2.5 2.5.1 0 0 0 0 0zm11.8 15.7c-2.1.1-4.1-.6-5.6-2a6.6 6.6 0 0 1 0-9.4c3.2-2.7 8-2.7 11.2 0a6.6 6.6 0 0 1 0 9.4 7.6 7.6 0 0 1-5.6 2zm0-9.8c-.8 0-1.6.3-2.2.8a3.1 3.1 0 0 0 0 4.4c.6.6 1.4.9 2.2.8.8 0 1.6-.3 2.2-.8a3.1 3.1 0 0 0 0-4.4c-.6-.5-1.4-.8-2.2-.8zm13.5 9.8a8 8 0 0 1-5.3-1.8l-.1-.1 1.9-2.9.1.1c.4.4.9.7 1.4.9.5.2 1.1.4 1.6.4a5 5 0 0 0 1.2-.2c.2-.2.4-.4.4-.7 0-.3-.2-.5-.4-.6l-1.2-.4-1-.3c-.8-.2-1.5-.6-2.1-1.2a3 3 0 0 1-.9-2.3 4 4 0 0 1 1.3-3 5.6 5.6 0 0 1 3.9-1.3c1.5 0 3 .3 4.2 1.1l.1.1-1.8 2.8-.1-.3c-.7-.4-1.4-.6-2.2-.7a2 2 0 0 0-1.1.3l-.2.5c0 .2.1.3.3.4l.7.3.5.1 1.1.3c.8.2 1.5.6 2.1 1.1.7.6 1.1 1.5 1 2.4 0 1.3-.4 2.5-1.3 3.4a5 5 0 0 1-4.1 1.6zm11.9-.4h-4.4V61.6h4.4v12.7z" class="svg-logo__type"/>
</svg>
