<svg class="svg-logo" viewBox="0 0 201.7 80">
  <path d="M52 24.1c-6.9.8-8.8 7.9-14 14.1-6.9 8.2-17.1 4-17.1 4 6.9-.9 8.9-8 14.2-14.2 7-8.1 16.9-3.9 16.9-3.9zM27.1 36.2s8.6-6.8 4.9-16.9c-2.8-7.6-8.2-13-5.3-19.3 0 0-8.5 6.9-5 16.9 2.7 7.6 8.3 13 5.4 19.3zm-.5-1.5s.8-11.1-8.7-15.3C10.5 16.1 2.7 16.4 0 10c0 0-1.1 11 9 15.3 7.5 3.2 14.9 3 17.6 9.4zM15.3 53.3h19.3l4.5-9.1H15.3v9.1zM18.4 80H20l11.1-25.5H18.4V80z" class="svg-logo__avatar"/>
  <path d="M53.7 34.3v19h4.9v-19h-4.9zm17.2 0v7.1a5 5 0 0 0-3.7-1.3 7 7 0 0 0-4.6 1.7 7 7 0 0 0-2.1 5.1c0 1.9.7 3.8 2 5.2a6.3 6.3 0 0 0 4.5 1.8 5 5 0 0 0 3.7-1.4v1h4.6v-19l-4.4-.2zm-.6 14.6c-.6.5-1.3.8-2.1.8a2.8 2.8 0 0 1-2.8-3c0-.8.3-1.5.9-2a3 3 0 0 1 2-.8c.8 0 1.5.3 2.1.8.6.6.9 1.3.8 2.1-.1.8-.4 1.6-.9 2.1zm14.4 4.8a7 7 0 0 1-5.2-1.8 7.4 7.4 0 0 1 0-10.1 6.8 6.8 0 0 1 5-1.8c1.9-.1 3.8.6 5.2 1.9 1.3 1.4 2 3.3 1.9 5.2v.7h-9.3c.1.6.3 1.2.7 1.7.5.5 1.2.7 1.9.7l1.5-.3c.3-.2.6-.5.8-.9l.1-.2 4.4.4-.1.3a5.2 5.2 0 0 1-2.6 3.2 8.7 8.7 0 0 1-4.3 1zm-2.3-8.8h4.8c-.1-.4-.4-.7-.6-1-.5-.4-1.1-.6-1.7-.6-.7 0-1.4.2-1.9.7-.3.2-.5.5-.6.9zm11.1-10.6v19h4.6v-19h-4.6zm9.8 19.4a2.7 2.7 0 0 1-2.7-2.8c0-1.5 1.3-2.8 2.8-2.7 1.5 0 2.7 1.3 2.7 2.8.1 1.5-1.2 2.7-2.8 2.7zm17.4-17.8a8 8 0 0 0-5.1-1.6h-6.9v19h4.9v-6.5h2.4a7 7 0 0 0 5-1.7 6 6 0 0 0 1.7-4.5c.1-1.8-.6-3.6-2-4.7zm-3.7 6.3c-.6.5-1.4.7-2.2.6h-1.3v-4.5h1.2c.8-.1 1.6.1 2.2.6.4.4.7 1 .6 1.6.1.6-.1 1.2-.5 1.7zm13.5 11.5a7 7 0 0 1-5.2-1.8 7.4 7.4 0 0 1 0-10.1 6.8 6.8 0 0 1 5-1.8c1.9-.1 3.8.6 5.2 1.9 1.3 1.4 2 3.3 1.9 5.2v.7H128c.1.6.3 1.2.7 1.7.5.5 1.2.7 1.9.7l1.5-.3c.3-.2.6-.5.8-.9l.1-.2 4.4.4-.1.3a5.2 5.2 0 0 1-2.6 3.2 7.7 7.7 0 0 1-4.2 1zm-2.3-8.8h4.8a2 2 0 0 0-.6-1c-1-1-2.7-.9-3.6.2-.3.2-.5.5-.6.8zm17.1 8.8a6 6 0 0 1-4.9-2 6.6 6.6 0 0 1-1.9-4.8c0-1.9.7-3.8 2-5.2a6.4 6.4 0 0 1 4.6-1.7c1.4 0 2.7.4 3.7 1.3v-.9h4.6v12.9h-4.6v-1c-1 .9-2.2 1.4-3.5 1.4zm.8-9.7a3 3 0 0 0-2 .8c-.5.5-.9 1.2-.9 2 0 .7.3 1.5.8 2 .6.6 1.4.9 2.2.9.7 0 1.4-.3 1.9-.8a3 3 0 0 0 .1-4.2c-.6-.5-1.4-.7-2.1-.7zm10.4 9.5l-1.6-.2h-.2v-3.8l.4.1c.6.2 1.2.1 1.7-.3.3-.5.5-1.2.4-1.8v-7.1H169v12.9h-4.6v-9.1h-2.8v3.5c.1 1.6-.3 3.1-1.3 4.4-1 1-2.4 1.5-3.8 1.4zm28.8-.2h-4.6v-6.6l-5 6.6h-4.2V40.4h4.6v6.5l5-6.5h4.2v12.9zm16.4 0h-4.6v-6.6l-5 6.6h-4.2V40.4h4.6v6.5l5-6.5h4.2v12.9z" class="svg-logo__type"/>
</svg>
