<svg class="svg-logo" viewBox="0 0 150.4 80">
  <path d="M52 24.1c-6.9.8-8.8 7.9-14 14.1-6.9 8.2-17.1 4-17.1 4 6.9-.9 8.9-8 14.2-14.2 7-8.1 16.9-3.9 16.9-3.9zM27.1 36.2s8.6-6.8 4.9-16.9c-2.8-7.6-8.2-13-5.3-19.3 0 0-8.5 6.9-5 16.9 2.7 7.6 8.3 13 5.4 19.3zm-.5-1.5s.8-11.1-8.7-15.3C10.5 16.1 2.7 16.4 0 10c0 0-1.1 11 9 15.3 7.5 3.2 14.9 3 17.6 9.4zM15.3 53.3h19.3l4.5-9.1H15.3v9.1zM18.4 80H20l11.1-25.5H18.4V80z" class="svg-logo__avatar"/>
  <path d="M61.1 44.1h-4.6V25.4h6.8a7 7 0 0 1 5 1.6c1.3 1.2 2 2.9 1.9 4.6a6 6 0 0 1-1.6 4.4 6.7 6.7 0 0 1-4.9 1.7h-2.5v6.4zm0-10.2h1.4a3 3 0 0 0 2.2-.7c.4-.5.7-1.1.7-1.7 0-.6-.2-1.2-.7-1.7-.7-.5-1.5-.7-2.3-.7h-1.3v4.8zm16.1 10.7c-1.8.1-3.6-.6-4.8-1.9a7 7 0 0 1-1.9-4.7c0-1.9.7-3.7 2-5.1a6.6 6.6 0 0 1 4.4-1.7c1.4-.1 2.8.5 3.8 1.6v-1.1H85v12.6h-4.3v-1.2c-.7.9-2.1 1.5-3.5 1.5zm.8-9.8a3 3 0 0 0-2.1.8c-.6.6-.9 1.4-.9 2.2 0 .8.3 1.5.8 2.1a3.2 3.2 0 0 0 4.3.1c.6-.6 1-1.4.9-2.2 0-.8-.3-1.6-.9-2.2a3 3 0 0 0-2.1-.8zm25.1 12.8h-3.9v-3.5h-8.3v3.5H87v-6.8h.1a3 3 0 0 0 1.6-.7c1-.9 1.1-2.2 1.1-3.6v-4.9h11.4v9.3h1.9v6.7zm-10.5-6.8h4.3v-6h-3.1V37c0 .8-.1 1.6-.3 2.3-.2.6-.5 1.1-.9 1.5zm25.7 3.3H114v-6.9l-5.2 6.9h-4V31.5h4.3v6.8l5.2-6.8h4v12.6zm9.3.5c-2.1.1-4.1-.6-5.6-2a6.6 6.6 0 0 1 0-9.4c3.2-2.7 8-2.7 11.2 0a6.6 6.6 0 0 1 0 9.4 8.5 8.5 0 0 1-5.6 2zm0-9.8c-.8 0-1.6.3-2.2.8a3.3 3.3 0 0 0 0 4.5c.6.6 1.4.9 2.2.8 1.7.1 3.2-1.2 3.3-2.9s-1.2-3.2-2.9-3.3l-.4.1zm22.8 9.3h-4.3v-6.9l-5.2 6.9h-4V31.5h4.3v6.8l5.2-6.8h4v12.6zM64.7 71.8c-2.7.1-5.4-.9-7.4-2.8a9.6 9.6 0 0 1-3-7c.1-2.6 1.1-5.2 3-7.1 2-1.9 4.7-2.9 7.5-2.8 2.7-.1 5.4.9 7.4 2.8 3.9 3.8 4 10 .2 13.9l-.2.2a10.6 10.6 0 0 1-7.5 2.8zm0-15.4c-1.5 0-2.9.5-4 1.5a5.9 5.9 0 0 0-1.7 4.2 5.4 5.4 0 0 0 5.7 5.5c1.5 0 3-.5 4.1-1.5a5 5 0 0 0 1.6-4 6 6 0 0 0-1.6-4 6 6 0 0 0-4.1-1.7zm16.8 15.4c-1.2 0-2.4-.2-3.5-.6-.8-.3-1.6-.8-2.3-1.3l-.1-.1 1.9-2.8.1.1 1.5 1c.6.2 1.2.4 1.9.4.5 0 1-.1 1.4-.3.3-.2.5-.5.5-.8 0-.3-.2-.6-.5-.7-.5-.2-.9-.3-1.4-.3h-1.7v-3h1.3l1.5-.2c.4-.1.6-.5.5-.9l-.5-.5c-.4-.2-.8-.2-1.2-.2-.6 0-1.1.1-1.6.3l-1.3.8-.1.1-1.7-2.9.1-.1 2.1-1c1-.3 2-.5 3-.5 1.1 0 3.2.2 4.4 1.3.7.6 1 1.5 1 2.4.1.8-.2 1.6-.8 2.2l-.8.6c.5.2 1 .4 1.4.8.6.6.9 1.3.9 2.2 0 1-.4 2-1.2 2.7-1.1.9-2.4 1.3-4.8 1.3zm14.6 0c-2.1.1-4.1-.6-5.6-2a6.6 6.6 0 0 1 0-9.4c3.2-2.7 8-2.7 11.2 0a6.6 6.6 0 0 1 0 9.4 8 8 0 0 1-5.6 2zm0-9.8c-.8 0-1.6.3-2.2.8a3.3 3.3 0 0 0 0 4.5c.6.6 1.4.9 2.2.8.8 0 1.6-.3 2.2-.8a3.1 3.1 0 0 0 .1-4.4c-.6-.6-1.5-.9-2.3-.9zm24.3 12.9h-3.9v-3.5h-8.3v3.5h-3.9v-6.8h.1c.6-.1 1.2-.3 1.7-.7 1-.9 1.1-2.2 1.1-3.6v-4.9h11.4v9.3h1.9l-.1 6.7zm-10.5-6.8h4.3v-6h-3.1v2.2c0 .8-.1 1.6-.3 2.3-.1.6-.4 1.1-.9 1.5zm25.5 3.3h-4.3v-6.9l-5.2 6.9h-4V58.8h4.3v6.8l5.2-6.8h4v12.6zm-1.2-15h-11v-2.8h11v2.8z" class="svg-logo__type"/>
</svg>
