<svg class="svg-logo" viewBox="0 0 134.6 80">
  <path d="M52 24.1c-6.9.8-8.8 7.9-14 14.1-6.9 8.2-17.1 4-17.1 4 6.9-.9 8.9-8 14.2-14.2 7-8.1 16.9-3.9 16.9-3.9zM27.1 36.2s8.6-6.8 4.9-16.9c-2.8-7.6-8.2-13-5.3-19.3 0 0-8.5 6.9-5 16.9 2.7 7.6 8.3 13 5.4 19.3zm-.5-1.5s.8-11.1-8.7-15.3C10.5 16.1 2.7 16.4 0 10c0 0-1.1 11 9 15.3 7.5 3.2 14.9 3 17.6 9.4zM15.3 53.3h19.3l4.5-9.1H15.3v9.1zM18.4 80H20l11.1-25.5H18.4V80z" class="svg-logo__avatar"/>
  <path d="M61.2 44.2h-4.6V25.8h6.7c1.8-.1 3.6.4 5 1.5 1.3 1.1 2 2.8 1.8 4.5a6 6 0 0 1-1.6 4.4 6.6 6.6 0 0 1-4.8 1.7h-2.5v6.3zm0-10.1h1.4a3 3 0 0 0 2.2-.7c.4-.5.7-1.1.7-1.7 0-.6-.2-1.2-.7-1.7-.7-.5-1.5-.7-2.3-.6h-1.3v4.7zM77 44.6a6 6 0 0 1-4.7-1.9 6.2 6.2 0 0 1-1.8-4.7 7 7 0 0 1 2-5 6.6 6.6 0 0 1 4.4-1.7 5 5 0 0 1 3.8 1.5v-1.1H85v12.4h-4.3V43a4.5 4.5 0 0 1-3.7 1.6zm.8-9.6c-.8 0-1.5.3-2.1.8-.6.6-.9 1.3-.8 2.1 0 .8.3 1.5.8 2.1.6.6 1.4.9 2.3.9a3 3 0 0 0 2.9-3c0-.8-.3-1.6-.8-2.2-.7-.4-1.5-.7-2.3-.7zm24.7 12.7h-3.8v-3.4h-8.2v3.4h-3.8V41h.1a3 3 0 0 0 1.6-.7c1-.9 1.1-2.1 1.1-3.6v-4.9h11.3V41h1.8l-.1 6.7zM92.2 41h4.2v-5.9h-3v2.2a9 9 0 0 1-.3 2.3c-.2.5-.5 1-.9 1.4zm25.5 3.3h-4.3v-6.8l-5.1 6.8h-3.9V31.8h4.3v6.7l5.1-6.7h3.9v12.5zm9.2.4c-2 .1-4-.6-5.5-2a6.6 6.6 0 0 1 0-9.2 8.5 8.5 0 0 1 11 0 6.6 6.6 0 0 1 0 9.2 8.7 8.7 0 0 1-5.5 2zm0-9.7c-.8 0-1.6.3-2.2.8-.6.6-.9 1.4-.9 2.2 0 .8.3 1.6.9 2.2.6.6 1.4.9 2.2.8 1.6 0 3-1.2 3-2.8V38c0-.8-.3-1.6-.9-2.2-.6-.5-1.3-.8-2.1-.8zm-62 36.5c-2.7.1-5.3-.9-7.3-2.7a9 9 0 0 1-2.9-6.9c0-2.6 1.1-5.1 2.9-7a10 10 0 0 1 7.4-2.7c2.7-.1 5.3.9 7.3 2.7a9.7 9.7 0 0 1 .2 13.7l-.2.2a10.8 10.8 0 0 1-7.4 2.7zm0-15.2c-1.5 0-2.9.5-4 1.5a5.1 5.1 0 0 0-1.6 4 5.4 5.4 0 0 0 5.6 5.5c1.5 0 2.9-.5 4-1.5s1.6-2.5 1.6-4-.5-2.9-1.6-4a5.9 5.9 0 0 0-4-1.5zm16.6 15.2c-1.2 0-2.3-.2-3.4-.6-.8-.3-1.6-.7-2.3-1.3l-.1-.1 1.8-2.8.1.1c.4.4 1 .7 1.5 1 .6.2 1.2.4 1.9.4.5 0 .9-.1 1.4-.3.3-.2.5-.5.5-.8 0-.3-.2-.6-.5-.7l-1.4-.2h-1.6v-3h1.3l1.5-.2c.3-.1.5-.4.5-.7 0-.3-.2-.6-.5-.7l-1.2-.2c-.6 0-1.1.1-1.6.3-.5.2-.9.4-1.3.8l-.1.1-1.7-2.9.1-.1 2.1-1c1-.3 2-.5 3-.5 1.1 0 3.1.2 4.3 1.3.7.6 1 1.4 1 2.3 0 .8-.3 1.6-.9 2.1l-.8.6c.5.2 1 .4 1.4.8.6.5.9 1.3.9 2.1 0 1-.4 1.9-1.1 2.6-1.1 1.2-2.5 1.6-4.8 1.6zm14.3 0c-2 .1-4-.6-5.5-2a6.6 6.6 0 0 1 0-9.2 8.5 8.5 0 0 1 11 0 6.6 6.6 0 0 1 0 9.2 8.5 8.5 0 0 1-5.5 2zm0-9.7c-.8 0-1.6.3-2.2.8a3.1 3.1 0 0 0 0 4.4c.6.6 1.4.9 2.2.8a3 3 0 0 0 3-3.1c0-.8-.3-1.5-.9-2.1a3 3 0 0 0-2.1-.8zm24 12.7H116v-3.4h-8.2v3.4H104v-6.7h.1a3 3 0 0 0 1.6-.7c1-.9 1-2.1 1-3.6v-4.9H118v9.2h1.8v6.7zm-10.3-6.7h4.2v-5.9h-3v2.2a9 9 0 0 1-.3 2.3c-.2.5-.5 1-.9 1.4zm25.1 3.3h-4.3v-6.8l-5.1 6.8h-3.9V58.6h4.3v6.7l5.1-6.7h3.9v12.5z" class="svg-logo__type"/>
</svg>
