<svg class="svg-logo" viewBox="0 0 154.3 80">
  <path d="M52 24.1c-6.9.8-8.8 7.9-14 14.1-6.9 8.2-17.1 4-17.1 4 6.9-.9 8.9-8 14.2-14.2 7-8.1 16.9-3.9 16.9-3.9zM27.1 36.2s8.6-6.8 4.9-16.9c-2.8-7.6-8.2-13-5.3-19.3 0 0-8.5 6.9-5 16.9 2.7 7.6 8.3 13 5.4 19.3zm-.5-1.5s.8-11.1-8.7-15.3C10.5 16.1 2.7 16.4 0 10c0 0-1.1 11 9 15.3 7.5 3.2 14.9 3 17.6 9.4zM15.3 53.3h19.3l4.5-9.1H15.3v9.1zM18.4 80H20l11.1-25.5H18.4V80z" class="svg-logo__avatar"/>
  <path d="M154.3 61.4l-.1.2-10 18.4h-4.9l4.3-7.7-6.1-10.9h5L146 68l3.4-6.5 4.9-.1zM128.9 38l-3.5-6.5h-5l6.1 10.9-4.4 7.8-.1.2h4.9L137 31.6l.1-.2h-4.9l-3.3 6.6zm-71.8 6.1h-4.8l.1-.2L60 25.3h4.2L71.7 44h-4.8l-1.4-3.5h-6.9l-1.5 3.6zM60 37h4.3l-2.2-5.6L60 37zm58.8-13.4h-4.3v20.5h4.3V23.6zM142.6 39l4.7 5.1h5.9l-6.5-6.9 6.1-5.7H147l-4.4 4.3V23.6h-4.3v20.5h4.3V39zM63.7 66.4l5.8 7.6h-5.7v-.1L59 67v7h-4.6V55.3h6.8c1.8-.1 3.5.5 4.9 1.7a5.9 5.9 0 0 1 1.7 4.2 5 5 0 0 1-1.5 3.8c-.8.7-1.7 1.1-2.6 1.4zm-.7-5.2c0-.7-.3-1.4-.8-1.8-.7-.4-1.5-.6-2.3-.5H59v4.8h.8c.9.1 1.8-.2 2.5-.8.5-.4.7-1.1.7-1.7zm49.4-29.8H110v-4h-4.3v4h-1.4v3.5h1.4V44h4.3v-9.1h2.5l-.1-3.5zM86.1 44.1v-3.6h-5.8l6.5-9H74V35h5.4l-6.6 9 13.3.1zM103.7 74h4.3V61.4h-4.3V74zm-5.9-42.6h4.3V44h-4.3v-1.2a4.2 4.2 0 0 1-3.6 1.6c-1.8.1-3.6-.6-4.8-1.9a7 7 0 0 1-1.9-4.7c0-1.9.7-3.7 2-5.1a6.3 6.3 0 0 1 4.5-1.8 5 5 0 0 1 3.8 1.5v-1zm.3 6.3c0-.8-.3-1.6-.9-2.2-.6-.5-1.4-.8-2.2-.8a3 3 0 0 0-2.1.8c-.6.6-.9 1.3-.9 2.1s.3 1.5.8 2.1a3.2 3.2 0 0 0 4.3.1c.6-.4 1-1.2 1-2.1zm7.8 16.1a2.5 2.5 0 0 0-2.4 2.5c0 1.4 1.2 2.4 2.5 2.4s2.4-1.1 2.4-2.5c0-1.3-1.1-2.4-2.5-2.4zm17.4 9.2a6.6 6.6 0 0 1 0 9.4 8.8 8.8 0 0 1-11.2 0 6.6 6.6 0 0 1 0-9.4 8.8 8.8 0 0 1 11.2 0zm-2.5 4.7c0-.8-.3-1.6-.9-2.2a3.3 3.3 0 0 0-4.4 0 3.3 3.3 0 0 0 0 4.5c.6.6 1.4.9 2.2.8a3 3 0 0 0 3.1-2.9v-.2zm-41-6.3h4.3V74h-4.3v-1.2a4.2 4.2 0 0 1-3.6 1.6c-1.8.1-3.6-.6-4.8-1.9a7 7 0 0 1-1.9-4.7c0-1.9.7-3.7 2-5.1A5.8 5.8 0 0 1 76 61a5 5 0 0 1 3.8 1.5v-1.1zm.2 6.3c0-.8-.3-1.6-.9-2.2-.6-.5-1.3-.8-2.1-.8a3 3 0 0 0-2.1.8 3 3 0 0 0-.9 2.2c0 .8.3 1.5.8 2.1.6.6 1.4.9 2.3.9 1.6 0 3-1.3 2.9-3zm53.6-1.6l-1.1-.3-.5-.2c-.3-.1-.5-.1-.7-.3-.2-.1-.3-.3-.3-.4l.2-.5a2 2 0 0 1 1.1-.3c.8 0 1.5.3 2.2.7l.1.1 1.8-2.8-.1-.1a9 9 0 0 0-4.2-1.1c-1.4-.1-2.8.4-3.9 1.3-.8.8-1.3 1.8-1.3 3 0 .9.4 1.7 1 2.3.6.6 1.3 1 2.1 1.2l1 .3 1.2.4c.2.1.4.4.4.6 0 .3-.2.5-.4.7-.4.2-.8.3-1.2.2a3 3 0 0 1-1.6-.4c-.5-.2-.9-.5-1.4-.9l-.1-.1-1.9 2.9.1.1a7.8 7.8 0 0 0 5.3 1.8 6 6 0 0 0 4.2-1.4c.9-.9 1.4-2.1 1.4-3.3.1-.9-.3-1.8-1-2.4-.9-.5-1.6-.9-2.4-1.1zM96.3 53.6h4.3V74h-4.3v-1.2a5.2 5.2 0 0 1-3.8 1.7c-1.7.1-3.3-.6-4.4-1.7a7 7 0 0 1-2-5c-.1-1.9.7-3.7 2-5a6.6 6.6 0 0 1 4.5-1.7c1.4 0 2.8.5 3.8 1.5l-.1-9zm.2 14.1c0-.8-.3-1.6-.9-2.2a3.2 3.2 0 0 0-4.3-.1 3 3 0 0 0-.1 4.3l.1.1a3 3 0 0 0 2 .8c.8 0 1.6-.3 2.2-.9.7-.4 1-1.2 1-2z" class="svg-logo__type"/>
</svg>
