<svg class="svg-logo" viewBox="0 0 163.6 80">
  <path d="M52 24.1c-6.9.8-8.8 7.9-14 14.1-6.9 8.2-17.1 4-17.1 4 6.9-.9 8.9-8 14.2-14.2 7-8.1 16.9-3.9 16.9-3.9zM27.1 36.2s8.6-6.8 4.9-16.9c-2.8-7.6-8.2-13-5.3-19.3 0 0-8.5 6.9-5 16.9 2.7 7.6 8.3 13 5.4 19.3zm-.5-1.5s.8-11.1-8.7-15.3C10.5 16.1 2.7 16.4 0 10c0 0-1.1 11 9 15.3 7.5 3.2 14.9 3 17.6 9.4zM15.3 53.3h19.3l4.5-9.1H15.3v9.1zM18.4 80H20l11.1-25.5H18.4V80z" class="svg-logo__avatar"/>
  <path d="M60.7 44H56V25.4h6.8c1.8-.1 3.6.4 5 1.5 1.3 1.2 2 2.8 1.9 4.6.1 1.7-.5 3.3-1.6 4.5a6.7 6.7 0 0 1-4.9 1.7h-2.4V44zm0-10.2H62c.8.1 1.5-.2 2.2-.6.4-.4.7-1 .6-1.7 0-.6-.2-1.2-.6-1.6a3 3 0 0 0-2.2-.6h-1.3v4.5zM77 44.4c-1.8.1-3.6-.6-4.8-1.9a7 7 0 0 1-1.9-4.7c0-1.9.7-3.7 2-5.1a6.7 6.7 0 0 1 4.4-1.8 5 5 0 0 1 3.7 1.4v-1h4.4V44h-4.4v-1a4 4 0 0 1-3.4 1.4zm-1.3-8.8a3 3 0 0 0-.1 4.1c.6.6 1.4.9 2.2.9a3 3 0 0 0 2.8-3.2 3 3 0 0 0-.8-1.8c-.6-.5-1.3-.8-2.1-.8a3 3 0 0 0-2 .8zm26.7 11.9h-4V44h-8.1v3.5h-4v-6.8h.2a3 3 0 0 0 1.6-.7c.9-.8 1-2.1 1-3.5v-5h11.4v9.2h1.8l.1 6.8zm-10.3-6.9h4v-5.8h-2.9V37c0 .8-.1 1.6-.3 2.3-.1.5-.4.9-.8 1.3zm25.6 3.4h-4.4v-6.7l-5 6.7h-4V31.4h4.4V38l5-6.6h4V44zm8.9.4a8 8 0 0 1-5.6-2 6.6 6.6 0 0 1 0-9.4 8.8 8.8 0 0 1 11.2 0 6.6 6.6 0 0 1 0 9.4 8 8 0 0 1-5.6 2zm-2.2-8.8a3.2 3.2 0 0 0 0 4.3c.6.5 1.4.8 2.2.8a3 3 0 0 0 3-3c0-.8-.3-1.5-.9-2.1-.6-.5-1.3-.8-2.1-.8-.8-.1-1.6.2-2.2.8zM73.3 71.1h-4.9L67 67.6h-6.7L58.9 71H54l7.7-18.6h4.2v.1l7.4 18.6zM61.7 64h4l-2-5.3-2 5.3zm18.1 7.5c-1.2 0-2.4-.1-3.5-.5-.8-.3-1.6-.8-2.3-1.4l-.1-.1 1.9-2.9.2.1c.4.4.9.7 1.5 1 .6.2 1.2.4 1.8.4.5 0 .9-.1 1.3-.3.3-.1.5-.4.4-.8 0-.3-.2-.6-.5-.6l-1.4-.2h-1.7v-3.1h1.3l1.4-.2c.3-.1.5-.3.5-.6 0-.1 0-.4-.5-.6l-1.2-.2c-.5 0-1.1.1-1.6.3-.5.2-.9.4-1.3.8l-.2.2-1.8-3 .2-.1 2.1-1c1-.3 2-.5 3-.5 1.1 0 3.2.2 4.3 1.3.7.6 1 1.5 1 2.4 0 .8-.3 1.6-.8 2.2l-.7.5c.5.2.9.4 1.3.8.6.6.9 1.4.9 2.2 0 1-.4 2-1.2 2.7-.7.8-2 1.2-4.3 1.2zm13.6 0c-1.8.1-3.6-.6-4.8-1.9a6.8 6.8 0 0 1-1.9-4.7c0-1.9.7-3.7 2-5.1a6.2 6.2 0 0 1 4.5-1.7 5 5 0 0 1 3.7 1.4v-1h4.4v12.6h-4.4V70c-.9 1-2.2 1.6-3.5 1.5zm-1.3-8.8c-.6.5-.9 1.3-.9 2.1 0 .7.3 1.5.8 2 .6.6 1.4.9 2.2.9.7 0 1.4-.3 1.9-.8a3 3 0 0 0 .9-2.2c0-.8-.3-1.5-.8-2.1-.6-.5-1.3-.8-2.1-.8-.7 0-1.4.4-2 .9zm18.4 8.4h-4.4v-9h-3.3v-3.6h11.1v3.6h-3.3l-.1 9zm5 .2l-1.6-.2h-.2v-3.6l.2.1c.6.2 1.2.1 1.7-.3.3-.5.5-1.2.4-1.8v-7h11.5v12.7h-4.4v-9h-2.9v3.6c.1 1.5-.3 3.1-1.3 4.3-.8.8-2.1 1.3-3.4 1.2zm31.5-.2h-4.4V58.5h4.4v12.6zm-10 0h-6.8V58.5h4.4v4.2h2.6a5 5 0 0 1 3.5 1.2 4 4 0 0 1 1.1 2.9 4 4 0 0 1-1.2 3.2c-1 .8-2.3 1.2-3.6 1.1zm-2.4-3.2h1.4a2 2 0 0 0 1.1-.3c.2-.2.3-.5.3-.8a1 1 0 0 0-.3-.7 2 2 0 0 0-1.1-.3h-1.5l.1 2.1zm29 3.2h-5.7l-3.9-5v5h-4.4V58.5h4.4V63l3.8-4.5h5.5l-5.5 5.9 5.8 6.7z" class="svg-logo__type"/>
</svg>
