<svg class="svg-logo" viewBox="0 0 169.4 80">
  <path d="M52 24.1c-6.9.8-8.8 7.9-14 14.1-6.9 8.2-17.1 4-17.1 4 6.9-.9 8.9-8 14.2-14.2 7-8.1 16.9-3.9 16.9-3.9zM27.1 36.2s8.6-6.8 4.9-16.9c-2.8-7.6-8.2-13-5.3-19.3 0 0-8.5 6.9-5 16.9 2.7 7.6 8.3 13 5.4 19.3zm-.5-1.5s.8-11.1-8.7-15.3C10.5 16.1 2.7 16.4 0 10c0 0-1.1 11 9 15.3 7.5 3.2 14.9 3 17.6 9.4zM15.3 53.3h19.3l4.5-9.1H15.3v9.1zM18.4 80H20l11.1-25.5H18.4V80z" class="svg-logo__avatar"/>
  <path d="M65 44.3c-2.7.1-5.4-.9-7.4-2.8a9.6 9.6 0 0 1-3-7c.1-2.7 1.1-5.2 3-7.1 2-1.9 4.7-2.8 7.4-2.7 2.7-.1 5.4.9 7.4 2.7 3.9 3.8 4 10 .2 13.9l-.2.2c-2 1.9-4.7 2.9-7.4 2.8zm0-15.4c-1.5 0-2.9.5-4 1.5a5.3 5.3 0 0 0-1.6 4.1 5 5 0 0 0 1.6 4 6.1 6.1 0 0 0 8 0 5 5 0 0 0 1.6-4c0-1.5-.5-3-1.6-4.1a6.6 6.6 0 0 0-4-1.5zm17.6 15.4c-1.2 0-2.4-.2-3.5-.6-.8-.3-1.6-.8-2.3-1.3l-.1-.1 1.9-2.9.1.1 1.5 1c.6.2 1.2.4 1.9.4.5 0 1-.1 1.4-.3.3-.2.5-.5.5-.8 0-.3-.2-.6-.5-.7l-1.4-.2h-1.7v-3h1.3l1.5-.2c.3-.1.5-.4.5-.7a1 1 0 0 0-.5-.7c-.4-.2-.8-.2-1.2-.2-.6 0-1.1.1-1.6.3-.5.2-.9.4-1.3.8l-.1.1-1.7-2.9.1-.1 2.1-1c1-.3 2-.5 3-.5 1.1 0 3.2.2 4.4 1.3.7.6 1 1.5 1 2.4a3 3 0 0 1-.8 2.2l-.8.6 1.4.8c.6.5.9 1.3.9 2.1 0 1-.4 2-1.2 2.7-1.1 1-2.5 1.4-4.8 1.4zm14.8 0c-2.1.1-4.1-.6-5.6-2a6.6 6.6 0 0 1 0-9.4c3.2-2.7 8-2.7 11.2 0a6.6 6.6 0 0 1 0 9.4 7.6 7.6 0 0 1-5.6 2zm0-9.8c-.8 0-1.6.3-2.2.8a3.3 3.3 0 0 0 0 4.5c.6.6 1.4.9 2.2.8 1.7 0 3.1-1.5 3.1-3.2 0-.8-.3-1.6-.9-2.1-.6-.5-1.4-.8-2.2-.8zM122 47.4h-3.9v-3.5h-8.3v3.5h-3.9v-6.8h.1c.6-.1 1.2-.3 1.7-.7 1-.9 1.1-2.2 1.1-3.6v-4.9h11.4v9.3h1.9v6.7zm-10.5-6.8h4.3v-6h-3.1v2.2c0 .8-.1 1.6-.3 2.3a6 6 0 0 1-.9 1.5zm13.3 3.4l-1.6-.2h-.1v-3.4h.2l.7.1c.4 0 .8-.1 1.1-.4.4-.6.5-1.2.5-1.9v-7H137v12.7h-4.3v-9.1h-3v3.7c.1 1.5-.3 3.1-1.3 4.3a5 5 0 0 1-3.6 1.2zm28.2-.1h-4.3V37l-5.2 6.9h-4V31.3h4.3V38l5.2-6.8h4v12.7zm16.5 0h-5.6l-4.1-5.2v5.2h-4.3V31.3h4.3V36l3.9-4.7h5.4l-5.5 5.9 5.9 6.7zM61.1 71.8h-4.6V53h6.8a7 7 0 0 1 5 1.6c1.3 1.2 2 2.9 1.9 4.6.1 1.6-.5 3.2-1.7 4.4a6.7 6.7 0 0 1-4.9 1.7h-2.5v6.5zm0-10.3h1.4c.8.1 1.6-.2 2.3-.7.4-.5.7-1.1.7-1.7 0-.6-.2-1.2-.7-1.7-.7-.5-1.5-.7-2.3-.7h-1.3v4.8zm16.3 10.7c-1.8.1-3.6-.6-4.8-1.9a7 7 0 0 1-1.9-4.7c0-1.9.7-3.7 2-5.1a6.2 6.2 0 0 1 4.5-1.7c1.4-.1 2.8.5 3.8 1.6v-1.1h4.3v12.6H81v-1.2c-.9 1-2.2 1.6-3.6 1.5zm.8-9.7a3 3 0 0 0-2.1.8 3 3 0 0 0-.1 4.2c.6.6 1.4.9 2.3.9a3 3 0 0 0 3-3c0-.8-.3-1.6-.9-2.2-.6-.4-1.4-.7-2.2-.7zm24.9 12.8h-3.9v-3.5h-8.3v3.5H87v-6.8h.1a3 3 0 0 0 1.6-.7c1-.9 1.1-2.2 1.1-3.6v-5h11.4v9.3h1.9v6.8zm-10.5-6.8h4.3v-6h-3.1v2.2c0 .8-.1 1.6-.3 2.3-.2.6-.5 1.1-.9 1.5zm25.8 3.3h-4.3v-6.9l-5.2 6.9h-4V59.2h4.3V66l5.2-6.8h4v12.6zm9.6.4c-2.1.1-4.1-.6-5.6-2a6.6 6.6 0 0 1 0-9.4c3.2-2.7 8-2.7 11.2 0a6.6 6.6 0 0 1 0 9.4 7.6 7.6 0 0 1-5.6 2zm0-9.8c-.8 0-1.6.3-2.2.8a3.3 3.3 0 0 0 0 4.5c.6.6 1.4.9 2.2.8 1.7.1 3.2-1.2 3.3-2.9a3.1 3.1 0 0 0-2.9-3.3l-.4.1zm16 9.8c-1.9.1-3.7-.6-5-1.9-1.3-1.3-2-3-2-4.8 0-1.9.8-3.7 2.1-5a6.8 6.8 0 0 1 4.9-1.8c1.1 0 2.2.2 3.2.7h.1v4l-.2-.2a4 4 0 0 0-2.6-.9c-.8 0-1.6.3-2.2.8-.6.6-.9 1.4-.9 2.2 0 .8.3 1.5.8 2.1.6.6 1.5 1 2.4 1 .9 0 1.8-.3 2.5-.9l.2-.2v4h-.1a5 5 0 0 1-3.2.9zm19.1-.4h-4.3v-6.9l-5.2 6.9h-4V59.2h4.3V66l5.2-6.8h4v12.6z" class="svg-logo__type"/>
</svg>
