<?xml version="1.0" encoding="utf-8"?>
<!-- Generator: Adobe Illustrator 22.0.1, SVG Export Plug-In . SVG Version: 6.00 Build 0)  -->
<svg version="1.1" xmlns="http://www.w3.org/2000/svg" xmlns:xlink="http://www.w3.org/1999/xlink" x="0px" y="0px"
	 viewBox="0 0 24 24" style="enable-background:new 0 0 24 24;" xml:space="preserve">
<style type="text/css">
	.st0{clip-path:url(#SVGID_2_);}
</style>
<g id="svgAvatars">
</g>
<g id="svgIcons">
	<g id="cc_1_">
		<g id="closed-caption_1_">
			<path d="M21.3,1.3H2.7C1.2,1.3,0,2.5,0,4v16c0,1.5,1.2,2.7,2.7,2.7h18.7c1.5,0,2.7-1.2,2.7-2.7V4C24,2.5,22.8,1.3,21.3,1.3z
				 M10.7,10.7h-2V10H6v4h2.7v-0.7h2v1.3c0,0.8-0.5,1.3-1.3,1.3h-4C4.5,16,4,15.5,4,14.7V9.3C4,8.5,4.5,8,5.3,8h4
				c0.8,0,1.3,0.5,1.3,1.3V10.7z M20,10.7h-2V10h-2.7v4H18v-0.7h2v1.3c0,0.8-0.5,1.3-1.3,1.3h-4c-0.8,0-1.3-0.5-1.3-1.3V9.3
				c0-0.8,0.5-1.3,1.3-1.3h4C19.5,8,20,8.5,20,9.3V10.7z"/>
		</g>
	</g>
</g>
</svg>
