<?xml version="1.0" encoding="utf-8"?>
<!-- Generator: Adobe Illustrator 22.0.1, SVG Export Plug-In . SVG Version: 6.00 Build 0)  -->
<svg version="1.1" xmlns="http://www.w3.org/2000/svg" xmlns:xlink="http://www.w3.org/1999/xlink" x="0px" y="0px"
	 viewBox="0 0 24 24" style="enable-background:new 0 0 24 24;" xml:space="preserve">
<style type="text/css">
	.st0{clip-path:url(#SVGID_2_);}
</style>
<g id="svgAvatars">
	<g id="ct">
		<path id="XMLID_3_" d="M3.8,12.7l-3,1.8c-0.2,0.1-0.3,0.4-0.3,0.6l0.1,0.3c0,0.1,0.1,0.2,0.1,0.3c0.6,1.8,1.6,3.4,2.9,4.7
			c2.1,2.1,4.7,3.3,7.6,3.5c0.3,0,0.6,0,0.9,0h0c0,0,0.1,0,0.1,0c3.2,0,6.1-1.3,8.4-3.5c1.3-1.3,2.3-2.9,2.9-4.7
			c0-0.1,0.1-0.2,0.1-0.3l0.1-0.3c0.1-0.3-0.1-0.5-0.3-0.6l-3.1-1.8c-0.2-0.1-0.4-0.1-0.5,0c-0.1,0-0.2,0.1-0.2,0.2c0,0,0,0.1,0,0.1
			c0,0.2,0,0.3-0.1,0.6c-0.1,0.5-0.3,1.1-0.5,1.6l0,0c-1.2,2.6-3.8,4.5-6.9,4.5c-3.6,0-6.7-2.6-7.4-6c0-0.2-0.1-0.3-0.1-0.6
			c0,0,0-0.1,0-0.1c0-0.1-0.1-0.1-0.2-0.2C4.1,12.6,3.9,12.6,3.8,12.7z"/>
		<path id="XMLID_2_" d="M3.8,11.3l-3-1.8C0.5,9.4,0.4,9.1,0.4,8.9l0.1-0.3c0-0.1,0.1-0.2,0.1-0.3c0.6-1.8,1.6-3.4,2.9-4.7
			C5.6,1.5,8.2,0.2,11.1,0c0.3,0,0.6,0,0.9,0h0c0,0,0.1,0,0.1,0c3.2,0,6.1,1.3,8.4,3.5c1.3,1.3,2.3,2.9,2.9,4.7
			c0,0.1,0.1,0.2,0.1,0.3l0.1,0.3c0.1,0.3-0.1,0.5-0.3,0.6l-3,1.8c-0.2,0.1-0.4,0.1-0.5,0c-0.1,0-0.2-0.1-0.2-0.2c0,0,0-0.1,0-0.1
			c0-0.2,0-0.3-0.1-0.6c-0.1-0.5-0.3-1.1-0.5-1.6l0,0c-1.2-2.6-3.8-4.5-6.9-4.5c-3.6,0-6.7,2.6-7.4,6c0,0.2-0.1,0.3-0.1,0.6
			c0,0,0,0.1,0,0.1c0,0.1-0.1,0.1-0.2,0.2C4.1,11.4,3.9,11.4,3.8,11.3z"/>
		<path id="XMLID_1_" d="M8.2,6.8C8.1,6.9,8.2,7,8.3,7.2l3.4,4.4c0.1,0.1,0.2,0.3,0.2,0.4l0,0c0,0.1-0.1,0.2-0.2,0.4l-3.4,4.4
			c-0.1,0.2-0.2,0.3-0.1,0.4c0.1,0.1,0.3,0,0.5-0.1l8.2-4.8l0.3-0.2c0.1-0.1,0.2-0.2,0-0.3l-0.3-0.2L8.7,6.9
			C8.5,6.8,8.3,6.7,8.2,6.8z"/>
	</g>
</g>
<g id="svgIcons">
</g>
</svg>
