<?xml version="1.0" encoding="utf-8"?>
<!-- Generator: Adobe Illustrator 22.0.1, SVG Export Plug-In . SVG Version: 6.00 Build 0)  -->
<svg version="1.1" xmlns="http://www.w3.org/2000/svg" xmlns:xlink="http://www.w3.org/1999/xlink" x="0px" y="0px"
	 viewBox="0 0 24 24" style="enable-background:new 0 0 24 24;" xml:space="preserve">
<style type="text/css">
	.st0{clip-path:url(#SVGID_2_);}
</style>
<g id="svgAvatars">
</g>
<g id="svgIcons">
	<g id="left">
		<path d="M9.3,12l9.5-9.5C18.9,2.4,19,2.2,19,2c0-0.2-0.1-0.4-0.2-0.6l-1.2-1.2C17.4,0.1,17.2,0,17,0c-0.2,0-0.4,0.1-0.6,0.2
			L5.2,11.4C5.1,11.6,5,11.8,5,12c0,0.2,0.1,0.4,0.2,0.6l11.2,11.2c0.2,0.2,0.3,0.2,0.6,0.2c0.2,0,0.4-0.1,0.6-0.2l1.2-1.2
			c0.2-0.2,0.2-0.3,0.2-0.6c0-0.2-0.1-0.4-0.2-0.6L9.3,12z"/>
	</g>
</g>
</svg>
