<?xml version="1.0" encoding="utf-8"?>
<!-- Generator: Adobe Illustrator 22.0.1, SVG Export Plug-In . SVG Version: 6.00 Build 0)  -->
<svg version="1.1" xmlns="http://www.w3.org/2000/svg" xmlns:xlink="http://www.w3.org/1999/xlink" x="0px" y="0px"
	 viewBox="0 0 24 24" style="enable-background:new 0 0 24 24;" xml:space="preserve">
<style type="text/css">
	.st0{clip-path:url(#SVGID_2_);}
</style>
<g id="svgAvatars">
</g>
<g id="svgIcons">
	<g id="more_1_">
		<g>
			<path d="M24,12c0-6.6-5.4-12-12-12S0,5.4,0,12s5.4,12,12,12S24,18.6,24,12z M1.7,12C1.7,6.3,6.3,1.7,12,1.7S22.3,6.3,22.3,12
				S17.7,22.3,12,22.3S1.7,17.7,1.7,12z"/>
			<path d="M18,10.9c0.2-0.2,0.2-0.4,0.2-0.6c0-0.2-0.1-0.4-0.2-0.6c-0.3-0.3-0.9-0.3-1.2,0l-4.9,4.9L7.1,9.7
				c-0.3-0.3-0.9-0.3-1.2,0c-0.3,0.3-0.3,0.9,0,1.2l5.5,5.5c0.2,0.2,0.4,0.2,0.6,0.2s0.4-0.1,0.6-0.2L18,10.9z"/>
		</g>
	</g>
</g>
</svg>
