<?xml version="1.0" encoding="utf-8"?>
<!-- Generator: Adobe Illustrator 22.0.1, SVG Export Plug-In . SVG Version: 6.00 Build 0)  -->
<svg version="1.1" xmlns="http://www.w3.org/2000/svg" xmlns:xlink="http://www.w3.org/1999/xlink" x="0px" y="0px"
	 viewBox="0 0 24 24" style="enable-background:new 0 0 24 24;" xml:space="preserve">
<style type="text/css">
	.st0{clip-path:url(#SVGID_2_);}
</style>
<g id="svgAvatars">
</g>
<g id="svgIcons">
	<g id="mute">
		<path d="M1.2,17.8h4.4l4.9,3.7c0.8,0.6,1.8,0,1.8-0.9V3.4c0-0.9-1.1-1.5-1.8-0.9L5.6,6.2H1.2C0.5,6.2,0,6.7,0,7.4v9.3
			C0,17.3,0.5,17.8,1.2,17.8z"/>
		<path d="M23.6,7.8c-0.5-0.5-1.4-0.5-1.9,0l-2.3,2.3l-2.3-2.3c-0.5-0.5-1.4-0.5-1.9,0c-0.5,0.5-0.5,1.4,0,1.9l2.3,2.3l-2.3,2.3
			c-0.5,0.5-0.5,1.4,0,1.9c0.3,0.3,0.6,0.4,1,0.4c0.3,0,0.7-0.1,1-0.4l2.3-2.3l2.3,2.3c0.3,0.3,0.6,0.4,1,0.4c0.3,0,0.7-0.1,1-0.4
			c0.5-0.5,0.5-1.4,0-1.9L21.3,12l2.3-2.3C24.1,9.2,24.1,8.3,23.6,7.8z"/>
	</g>
</g>
</svg>
