<?xml version="1.0" encoding="utf-8"?>
<!-- Generator: Adobe Illustrator 22.0.1, SVG Export Plug-In . SVG Version: 6.00 Build 0)  -->
<svg version="1.1" xmlns="http://www.w3.org/2000/svg" xmlns:xlink="http://www.w3.org/1999/xlink" x="0px" y="0px"
	 viewBox="0 0 24 24" style="enable-background:new 0 0 24 24;" xml:space="preserve">
<style type="text/css">
	.st0{clip-path:url(#SVGID_2_);}
</style>
<g id="svgAvatars">
</g>
<g id="svgIcons">
	<g id="navigation">
		<path d="M1,3.4h22c0.6,0,1-0.4,1-1s-0.4-1-1-1H1c-0.6,0-1,0.4-1,1C0,3,0.4,3.4,1,3.4z"/>
		<path d="M23,7.8H1c-0.6,0-1,0.4-1,1c0,0.6,0.4,1,1,1h22c0.6,0,1-0.4,1-1C24,8.2,23.6,7.8,23,7.8z"/>
		<path d="M23,14.2H1c-0.6,0-1,0.5-1,1c0,0.5,0.4,1,1,1h22c0.6,0,1-0.5,1-1C24,14.6,23.6,14.2,23,14.2z"/>
		<path d="M23,20.6H1c-0.6,0-1,0.4-1,1s0.4,1,1,1h22c0.6,0,1-0.4,1-1S23.6,20.6,23,20.6z"/>
	</g>
</g>
</svg>
