<?xml version="1.0" encoding="utf-8"?>
<!-- Generator: Adobe Illustrator 22.0.1, SVG Export Plug-In . SVG Version: 6.00 Build 0)  -->
<svg version="1.1" xmlns="http://www.w3.org/2000/svg" xmlns:xlink="http://www.w3.org/1999/xlink" x="0px" y="0px"
	 viewBox="0 0 24 24" style="enable-background:new 0 0 24 24;" xml:space="preserve">
<style type="text/css">
	.st0{clip-path:url(#SVGID_2_);}
</style>
<g id="svgAvatars">
</g>
<g id="svgIcons">
	<g id="pause">
		<path d="M22.4,24c0.6,0,1.2-0.5,1.2-1.2V1.2C23.6,0.5,23,0,22.4,0h-6.9c-0.6,0-1.2,0.5-1.2,1.2v21.7c0,0.6,0.5,1.2,1.2,1.2H22.4z
			 M22.4,24"/>
		<path d="M8.5,24c0.6,0,1.2-0.5,1.2-1.2V1.2C9.7,0.5,9.2,0,8.5,0H1.6C1,0,0.4,0.5,0.4,1.2v21.7C0.4,23.5,1,24,1.6,24H8.5z M8.5,24"
			/>
	</g>
</g>
</svg>
