<?xml version="1.0" encoding="utf-8"?>
<!-- Generator: Adobe Illustrator 22.0.1, SVG Export Plug-In . SVG Version: 6.00 Build 0)  -->
<svg version="1.1" xmlns="http://www.w3.org/2000/svg" xmlns:xlink="http://www.w3.org/1999/xlink" x="0px" y="0px"
	 viewBox="0 0 24 24" style="enable-background:new 0 0 24 24;" xml:space="preserve">
<style type="text/css">
	.st0{clip-path:url(#SVGID_2_);}
</style>
<g id="svgAvatars">
	<path id="rfe_1_" d="M19.8,7.2c-2.1,0.2-2.6,2.4-4.2,4.2c-2.1,2.5-5.2,1.2-5.2,1.2c2.1-0.3,2.7-2.4,4.3-4.3
		C16.8,6,19.8,7.2,19.8,7.2z M12.3,10.9c0,0,2.6-2,1.5-5.1C13,3.5,11.3,1.9,12.2,0c0,0-2.6,2.1-1.5,5.1C11.5,7.4,13.2,9,12.3,10.9z
		 M12.2,10.4c0,0,0.2-3.3-2.6-4.6C7.3,4.9,5,4.9,4.2,3c0,0-0.3,3.3,2.7,4.6C9.2,8.5,11.4,8.5,12.2,10.4z M8.8,16h5.8l1.4-2.7H8.8V16
		z M9.7,24h0.5l3.3-7.6H9.7V24z"/>
</g>
<g id="svgIcons">
</g>
</svg>
