<?xml version="1.0" encoding="utf-8"?>
<!-- Generator: Adobe Illustrator 22.0.1, SVG Export Plug-In . SVG Version: 6.00 Build 0)  -->
<svg version="1.1" xmlns="http://www.w3.org/2000/svg" xmlns:xlink="http://www.w3.org/1999/xlink" x="0px" y="0px"
	 viewBox="0 0 24 24" style="enable-background:new 0 0 24 24;" xml:space="preserve">
<style type="text/css">
	.st0{clip-path:url(#SVGID_2_);}
</style>
<g id="svgAvatars">
</g>
<g id="svgIcons">
	<g id="right_1_">
		<path d="M14.7,12l-9.5,9.5C5.1,21.6,5,21.8,5,22c0,0.2,0.1,0.4,0.2,0.6l1.2,1.2C6.6,23.9,6.8,24,7,24c0.2,0,0.4-0.1,0.6-0.2
			l11.2-11.2c0.2-0.2,0.2-0.3,0.2-0.6c0-0.2-0.1-0.4-0.2-0.6L7.6,0.2C7.4,0.1,7.2,0,7,0C6.8,0,6.6,0.1,6.4,0.2L5.2,1.4
			C5.1,1.6,5,1.8,5,2c0,0.2,0.1,0.4,0.2,0.6L14.7,12z"/>
	</g>
</g>
</svg>
