<?xml version="1.0" encoding="utf-8"?>
<!-- Generator: Adobe Illustrator 22.0.1, SVG Export Plug-In . SVG Version: 6.00 Build 0)  -->
<svg version="1.1" xmlns="http://www.w3.org/2000/svg" xmlns:xlink="http://www.w3.org/1999/xlink" x="0px" y="0px"
	 viewBox="0 0 24 24" style="enable-background:new 0 0 24 24;" xml:space="preserve">
<style type="text/css">
	.st0{clip-path:url(#SVGID_2_);}
</style>
<g id="svgAvatars">
</g>
<g id="svgIcons">
	<g id="share_1_">
		<path d="M19.2,17c-0.9,0-1.7,0.4-2.4,0.9l-8.6-5c0.1-0.3,0.1-0.6,0.1-0.8c0-0.3,0-0.6-0.1-0.8l8.5-5c0.6,0.6,1.5,1,2.5,1
			c2,0,3.6-1.6,3.6-3.6c0-2-1.6-3.6-3.6-3.6c-2,0-3.6,1.6-3.6,3.6c0,0.3,0,0.6,0.1,0.8l-8.5,5c-0.6-0.6-1.5-1-2.5-1
			c-2,0-3.6,1.6-3.6,3.6s1.6,3.6,3.6,3.6c0.9,0,1.8-0.4,2.5-1l8.6,5c-0.1,0.3-0.1,0.5-0.1,0.8c0,1.9,1.6,3.5,3.5,3.5
			c1.9,0,3.5-1.6,3.5-3.5S21.2,17,19.2,17z"/>
	</g>
</g>
</svg>
