<?xml version="1.0" encoding="utf-8"?>
<!-- Generator: Adobe Illustrator 22.0.1, SVG Export Plug-In . SVG Version: 6.00 Build 0)  -->
<svg version="1.1" xmlns="http://www.w3.org/2000/svg" xmlns:xlink="http://www.w3.org/1999/xlink" x="0px" y="0px"
	 viewBox="0 0 24 24" style="enable-background:new 0 0 24 24;" xml:space="preserve">
<style type="text/css">
	.st0{clip-path:url(#SVGID_2_);}
</style>
<g id="svgAvatars">
</g>
<g id="svgIcons">
	<g id="swipeUp_1_">
		<path d="M3.9,0C3.8,0,3.6,0.1,3.5,0.2L1.2,2.5C1,2.7,1,3,1.2,3.2c0.2,0.2,0.6,0.2,0.8,0l1.4-1.4v6.3c0,0.3,0.2,0.5,0.5,0.5
			c0.3,0,0.5-0.2,0.5-0.5V1.9l1.3,1.3c0.2,0.2,0.5,0.2,0.8,0c0.2-0.2,0.2-0.5,0-0.8L4.3,0.2C4.2,0.1,4.1,0,3.9,0z"/>
		<path d="M22.8,12.4c-0.3-1.5-1-2.3-1.6-2.7c-0.6-0.4-1.3-0.5-1.8-0.6C19,8.6,18.3,8,17.3,7.9V2.6c0-1.4-1.1-2.6-2.5-2.6
			c-0.7,0-1.3,0.3-1.8,0.7c-0.3,0.3-0.5,0.6-0.6,0.9c-0.4-0.3-1-0.5-1.6-0.5c-1.4,0-2.5,1.1-2.5,2.5l0,7.2c0,0-0.1,0-0.2,0
			c0,0-0.1,0-0.1,0l-0.1-0.1C7.4,10,6.7,9.5,5.8,9.5C4.9,9.5,4,10,3.6,10.8c-0.4,0.8-0.4,1.6,0,2.4c0,0,0,0,0,0L9,23.1
			c0.3,0.6,0.9,0.9,1.5,0.9l7.4,0c0.8,0,1.4-0.5,1.6-1.3l0.7-2.2c0,0,0,0,0,0C22.4,17.2,23.2,14.7,22.8,12.4z M19.3,20
			c0,0.1-0.1,0.1-0.1,0.2l-0.7,2.2c-0.1,0.3-0.3,0.5-0.6,0.5h0l-7.4,0c-0.2,0-0.4-0.1-0.5-0.3l-5.4-9.8c0,0,0,0,0,0
			c-0.7-1.1,0.3-2.1,1.3-2.1c0.4,0,0.9,0.2,1.2,0.7l0.1,0.2c0.2,0.3,0.6,0.5,0.9,0.5c0.6,0,1.3-0.4,1.3-1l0-7.3
			c0-0.9,0.7-1.4,1.5-1.4c0.7,0,1.5,0.5,1.5,1.4l0,4.8c0,0.3,0.2,0.5,0.5,0.5c0,0,0,0,0,0c0.3,0,0.5-0.3,0.5-0.6V2.5
			c0-0.8,0.7-1.4,1.5-1.4c0.9,0,1.5,0.7,1.5,1.5v5.9c0,0.3,0.2,0.5,0.5,0.5c0,0,0,0,0,0c0,0,0.1,0,0.1,0c0.6,0,1.4,0.1,1.9,1.1
			c0.1,0.2,0.3,0.3,0.5,0.3c0,0,0,0,0,0c0,0,0,0,0.1,0c0.7,0,2.2,0.3,2.6,2.4C22.1,14.7,21.3,16.9,19.3,20z"/>
	</g>
</g>
</svg>
