<?xml version="1.0" encoding="utf-8"?>
<!-- Generator: Adobe Illustrator 22.0.1, SVG Export Plug-In . SVG Version: 6.00 Build 0)  -->
<svg version="1.1" xmlns="http://www.w3.org/2000/svg" xmlns:xlink="http://www.w3.org/1999/xlink" x="0px" y="0px"
	 viewBox="0 0 24 24" style="enable-background:new 0 0 24 24;" xml:space="preserve">
<style type="text/css">
	.st0{clip-path:url(#SVGID_2_);}
</style>
<g id="svgAvatars">
</g>
<g id="svgIcons">
	<g id="volume">
		<path d="M1.2,17.8h4.4l4.9,3.7c0.8,0.6,1.8,0,1.8-0.9V3.4c0-0.9-1.1-1.5-1.8-0.9L5.6,6.2H1.2C0.5,6.2,0,6.7,0,7.4v9.3
			C0,17.3,0.5,17.8,1.2,17.8z"/>
		<path d="M16.3,7.4c-0.4-0.4-1-0.4-1.4,0c-0.4,0.4-0.4,1,0,1.4c1.8,1.8,1.8,4.7,0,6.5c-0.4,0.4-0.4,1,0,1.4
			c0.2,0.2,0.4,0.3,0.7,0.3s0.5-0.1,0.7-0.3C18.9,14.1,18.9,9.9,16.3,7.4z"/>
		<path d="M17.4,5.2c-0.4,0.4-0.4,1,0,1.4c1.5,1.5,2.3,3.4,2.3,5.5s-0.8,4-2.3,5.5c-0.4,0.4-0.4,1,0,1.4c0.2,0.2,0.4,0.3,0.7,0.3
			c0.2,0,0.5-0.1,0.7-0.3c1.8-1.8,2.8-4.2,2.8-6.8s-1-5-2.8-6.8C18.4,4.8,17.8,4.8,17.4,5.2z"/>
	</g>
</g>
</svg>
