<?xml version="1.0" encoding="utf-8"?>
<!-- Generator: Adobe Illustrator 22.0.1, SVG Export Plug-In . SVG Version: 6.00 Build 0)  -->
<svg version="1.1" xmlns="http://www.w3.org/2000/svg" xmlns:xlink="http://www.w3.org/1999/xlink" x="0px" y="0px"
	 viewBox="0 0 24 24" style="enable-background:new 0 0 24 24;" xml:space="preserve">
<style type="text/css">
	.st0{clip-path:url(#SVGID_2_);}
</style>
<g id="svgAvatars">
</g>
<g id="svgIcons">
	<g id="zoomIn">
		<path d="M23.6,21L17,14.4c0.1-0.1,0.1-0.2,0.1-0.4c0.7-1.2,1.1-2.4,1.3-3.8c0-0.3,0-0.6,0-0.9c0-1-0.2-2-0.5-3
			c-0.5-1.3-1.2-2.5-2.2-3.5C14,1,11.6,0.1,9.2,0.1C6.8,0.1,4.5,1,2.7,2.8C1.5,4,0.7,5.4,0.3,6.9c-0.4,1.6-0.4,3.2,0,4.7
			c0.4,1.6,1.2,3,2.4,4.2c1.8,1.8,4.1,2.7,6.5,2.7c1.8,0,3.5-0.5,5.1-1.5l0.2-0.1l6.6,6.6c0.3,0.3,0.5,0.4,0.8,0.4
			c0.1,0,0.1,0,0.1,0c0.2,0,0.3-0.1,0.5-0.1c0.2-0.1,0.4-0.3,0.6-0.5l0.3-0.3c0.2-0.2,0.4-0.4,0.5-0.6c0.1-0.1,0.1-0.3,0.1-0.5v-0.1
			C24,21.5,23.8,21.3,23.6,21z M16.6,11.3c-0.3,1.3-1,2.4-2,3.4c-1.4,1.4-3.3,2.2-5.4,2.2c-2,0-3.9-0.8-5.4-2.2C1,11.9,1,6.8,3.9,4
			c1.5-1.4,3.4-2.2,5.4-2.2c2.1,0,3.9,0.7,5.4,2.2c1,1,1.6,2.1,2,3.4C16.9,8.7,16.9,10,16.6,11.3z"/>
		<polygon points="10.1,5.4 8.3,5.4 8.3,8.4 5.4,8.4 5.4,10.2 8.3,10.2 8.3,13.2 10.1,13.2 10.1,10.2 13.1,10.2 13.1,8.4 10.1,8.4 
					"/>
	</g>
</g>
</svg>
